<svg width="63" height="40" viewBox="0 0 75 40" fill="none" xmlns="http://www.w3.org/2000/svg">
<path d="M35.1274 20.088C35.1274 35.448 32.6794 39.384 18.8554 39.384C11.0794 39.384 7.62338 38.904 4.79138 36.648C1.52737 34.056 0.663375 29.112 0.663375 20.088C0.663375 4.728 3.11138 0.791997 16.9834 0.791997C24.7114 0.791997 28.3114 1.32 31.0474 3.528C34.1674 6.024 35.1274 10.68 35.1274 20.088ZM17.8954 7.992C12.8554 7.992 10.9354 8.376 9.87938 9.816C8.96738 11.064 8.58338 14.712 8.58338 20.184C8.58338 24.552 8.82338 27.864 9.35138 29.304C10.2634 31.752 12.1354 32.184 18.4714 32.184C23.0314 32.184 24.9514 31.704 25.9114 30.312C26.8234 29.016 27.1594 25.416 27.1594 20.856C27.1594 16.584 26.9674 12.36 26.3914 10.776C25.5274 8.472 23.3194 7.992 17.8954 7.992ZM47.916 31.8H71.292C73.548 31.8 74.412 32.76 74.412 35.112C74.412 37.512 73.932 39 71.292 39H46.044C42.444 39 40.044 39 40.044 34.344C40.044 28.92 40.044 24.504 43.692 21.384C44.796 20.424 47.148 19.512 49.548 19.224L61.788 17.832C65.388 17.4 66.444 16.392 66.444 13.224C66.444 9.672 65.34 7.992 58.092 7.992C51.66 7.992 50.076 8.568 49.212 10.056C48.924 10.584 48.684 11.784 48.492 12.744C48.204 14.232 47.148 14.76 44.892 14.76C42.204 14.76 40.764 14.136 40.764 11.928C40.764 2.328 47.676 0.791997 57.276 0.791997C64.38 0.791997 67.836 1.464 70.092 3C72.636 4.728 74.268 7.992 74.268 12.744C74.268 16.104 73.644 19.512 71.676 21.432C69.9 23.16 66.924 24.36 64.092 24.696L52.428 26.136C48.828 26.568 47.916 27.672 47.916 30.744V31.8Z" fill="url(#paint0_linear_204_111)"/>
<defs>
<linearGradient id="paint0_linear_204_111" x1="-2.12419" y1="22.1285" x2="68.8448" y2="18.9969" gradientUnits="userSpaceOnUse">
<stop stop-color="#187FC3"/>
<stop offset="1" stop-color="#08ADFF"/>
</linearGradient>
</defs>
</svg>