<svg width="100" height="52" viewBox="0 0 100 52" fill="none" xmlns="http://www.w3.org/2000/svg">
<path d="M46.024 25.784C46.024 46.264 42.76 51.512 24.328 51.512C13.96 51.512 9.352 50.872 5.576 47.864C1.224 44.408 0.072 37.816 0.072 25.784C0.072 5.304 3.336 0.0559959 21.832 0.0559959C32.136 0.0559959 36.936 0.759998 40.584 3.704C44.744 7.032 46.024 13.24 46.024 25.784ZM23.048 9.656C16.328 9.656 13.768 10.168 12.36 12.088C11.144 13.752 10.632 18.616 10.632 25.912C10.632 31.736 10.952 36.152 11.656 38.072C12.872 41.336 15.368 41.912 23.816 41.912C29.896 41.912 32.456 41.272 33.736 39.416C34.952 37.688 35.4 32.888 35.4 26.808C35.4 21.112 35.144 15.48 34.376 13.368C33.224 10.296 30.28 9.656 23.048 9.656ZM91.3635 31.544H95.7155C98.6595 31.544 99.7475 33.016 99.7475 36.024C99.7475 39.928 98.7235 41.144 95.7155 41.144H91.3635V46.008C91.3635 49.272 91.3635 51.576 86.6915 51.576C80.8675 51.576 80.8675 49.912 80.8675 46.008V41.144H58.6595C53.3475 41.144 50.7875 41.144 50.7875 35.64C50.7875 31.096 52.0035 29.624 55.0115 26.104L73.2515 4.6C77.0915 0.119999 77.6675 0.0559959 83.2355 0.0559959C89.3155 0.0559959 91.3635 1.208 91.3635 6.456V31.544ZM80.8675 31.544V9.272L61.7955 31.544H80.8675Z" fill="url(#paint0_linear_249_173)"/>
<defs>
<linearGradient id="paint0_linear_249_173" x1="91.1794" y1="32.4634" x2="-3.16549" y2="28.7457" gradientUnits="userSpaceOnUse">
<stop stop-color="#187FC3"/>
<stop offset="1" stop-color="#08ADFF"/>
</linearGradient>
</defs>
</svg>
