<svg width="63" height="40" viewBox="0 0 75 40" fill="none" xmlns="http://www.w3.org/2000/svg">
<path d="M35.1274 20.088C35.1274 35.448 32.6794 39.384 18.8554 39.384C11.0794 39.384 7.62338 38.904 4.79138 36.648C1.52737 34.056 0.663375 29.112 0.663375 20.088C0.663375 4.728 3.11138 0.791997 16.9834 0.791997C24.7114 0.791997 28.3114 1.32 31.0474 3.528C34.1674 6.024 35.1274 10.68 35.1274 20.088ZM17.8954 7.992C12.8554 7.992 10.9354 8.376 9.87938 9.816C8.96738 11.064 8.58338 14.712 8.58338 20.184C8.58338 24.552 8.82338 27.864 9.35138 29.304C10.2634 31.752 12.1354 32.184 18.4714 32.184C23.0314 32.184 24.9514 31.704 25.9114 30.312C26.8234 29.016 27.1594 25.416 27.1594 20.856C27.1594 16.584 26.9674 12.36 26.3914 10.776C25.5274 8.472 23.3194 7.992 17.8954 7.992ZM60.924 22.776H55.692C53.676 22.776 52.62 21.816 52.62 19.704C52.62 17.496 53.532 16.44 55.692 16.44H60.876C63.036 16.44 66.012 16.44 66.012 12.456C66.012 8.184 62.556 8.088 56.7 8.088C49.212 8.088 49.02 9.672 48.636 12.264C48.444 13.56 47.004 14.04 45.18 14.04C41.868 14.04 40.908 13.176 40.908 11.208C40.908 9.144 41.676 6.84 42.78 5.112C44.796 1.944 48.876 0.791997 57.084 0.791997C64.284 0.791997 67.98 1.464 70.332 3.288C72.828 5.208 73.836 8.568 73.836 11.496C73.836 14.808 72.636 18.024 69.132 19.224C70.572 19.8 74.508 21.336 74.508 28.056C74.508 38.568 66.156 39.384 57.948 39.384C47.868 39.384 43.932 38.136 41.868 35.016C40.284 32.616 40.044 29.88 40.044 28.392C40.044 26.136 41.292 25.224 43.644 25.224C47.484 25.224 47.868 26.376 48.012 28.008C48.3 31.656 50.46 32.136 58.38 32.136C63.036 32.136 66.588 31.56 66.588 27.384C66.588 22.872 63.276 22.776 60.924 22.776Z" fill="url(#paint0_linear_194_207)"/>
<defs>
<linearGradient id="paint0_linear_194_207" x1="-2.12419" y1="22.1285" x2="68.8448" y2="18.9969" gradientUnits="userSpaceOnUse">
<stop stop-color="#187FC3"/>
<stop offset="1" stop-color="#08ADFF"/>
</linearGradient>
</defs>
</svg>
