<svg width="63" height="40" viewBox="0 0 63 40" fill="none" xmlns="http://www.w3.org/2000/svg">
<path d="M35.1274 20.088C35.1274 35.448 32.6794 39.384 18.8554 39.384C11.0794 39.384 7.62338 38.904 4.79138 36.648C1.52737 34.056 0.663375 29.112 0.663375 20.088C0.663375 4.728 3.11138 0.791997 16.9834 0.791997C24.7114 0.791997 28.3114 1.32 31.0474 3.528C34.1674 6.024 35.1274 10.68 35.1274 20.088ZM17.8954 7.992C12.8554 7.992 10.9354 8.376 9.87938 9.816C8.96738 11.064 8.58338 14.712 8.58338 20.184C8.58338 24.552 8.82338 27.864 9.35138 29.304C10.2634 31.752 12.1354 32.184 18.4714 32.184C23.0314 32.184 24.9514 31.704 25.9114 30.312C26.8234 29.016 27.1594 25.416 27.1594 20.856C27.1594 16.584 26.9674 12.36 26.3914 10.776C25.5274 8.472 23.3194 7.992 17.8954 7.992ZM54.732 8.376H50.124C47.82 8.376 46.86 7.464 46.86 5.064C46.86 2.136 47.628 1.176 50.124 1.176H56.7C60.3 1.176 62.7 1.176 62.7 5.832V35.256C62.7 37.704 62.7 39.432 59.196 39.432C54.78 39.432 54.732 38.232 54.732 35.256V8.376Z" fill="url(#paint0_linear_204_113)"/>
<defs>
<linearGradient id="paint0_linear_204_113" x1="-2.12419" y1="22.1285" x2="68.8448" y2="18.9969" gradientUnits="userSpaceOnUse">
<stop stop-color="#187FC3"/>
<stop offset="1" stop-color="#08ADFF"/>
</linearGradient>
</defs>
</svg>
