<svg width="55" height="54" viewBox="0 0 55 54" fill="none" xmlns="http://www.w3.org/2000/svg">
<g id="adobe-photoshop-2 1" clip-path="url(#clip0_390_1475)">
<path id="Vector" d="M10.0625 0.636841H44.9375C50.225 0.636841 54.5 4.93938 54.5 10.2609V44.0019C54.5 49.3234 50.225 53.626 44.9375 53.626H10.0625C4.775 53.626 0.5 49.3234 0.5 44.0019V10.2609C0.5 4.93938 4.775 0.636841 10.0625 0.636841Z" fill="#001E36"/>
<g id="Group">
<path id="Vector_2" d="M12.6499 37.7971V14.4954C12.6499 14.3369 12.7174 14.2463 12.8749 14.2463C13.2574 14.2463 13.6174 14.2463 14.1349 14.2237C14.6749 14.2011 15.2374 14.2011 15.8449 14.1784C16.4524 14.1558 17.1049 14.1558 17.8024 14.1331C18.4999 14.1105 19.1749 14.1105 19.8499 14.1105C21.6949 14.1105 23.2249 14.3369 24.4849 14.8125C25.6099 15.1974 26.6449 15.8315 27.4999 16.6694C28.2199 17.394 28.7824 18.2771 29.1424 19.2509C29.4799 20.202 29.6599 21.1757 29.6599 22.1947C29.6599 24.1422 29.2099 25.75 28.3099 27.0181C27.4099 28.2862 26.1499 29.2373 24.6874 29.7808C23.1574 30.3469 21.4699 30.5507 19.6249 30.5507C19.0849 30.5507 18.7249 30.5507 18.4999 30.528C18.2749 30.5054 17.9599 30.5054 17.5324 30.5054V37.7744C17.5549 37.9329 17.4424 38.0688 17.2849 38.0914H12.9199C12.7399 38.0914 12.6499 38.0009 12.6499 37.7971ZM17.5549 18.6168V26.2255C17.8699 26.2482 18.1624 26.2708 18.4324 26.2708H19.6249C20.5024 26.2708 21.3799 26.1349 22.2124 25.8632C22.9324 25.6594 23.5624 25.2291 24.0574 24.663C24.5299 24.0969 24.7549 23.327 24.7549 22.3306C24.7774 21.6286 24.5974 20.9266 24.2374 20.3152C23.8549 19.7264 23.3149 19.2735 22.6624 19.0244C21.8299 18.6847 20.9299 18.5489 20.0074 18.5715C19.4224 18.5715 18.9049 18.5715 18.4774 18.5942C18.0274 18.5715 17.7124 18.5942 17.5549 18.6168ZM43.6999 24.8442C43.0249 24.4819 42.3049 24.2328 41.5399 24.0742C40.7074 23.8931 39.8749 23.7799 39.0199 23.7799C38.5699 23.7572 38.0974 23.8251 37.6699 23.9384C37.3774 24.0063 37.1299 24.1648 36.9724 24.3913C36.8599 24.5724 36.7924 24.7989 36.7924 25.0027C36.7924 25.2065 36.8824 25.4103 37.0174 25.5915C37.2199 25.8405 37.4899 26.0444 37.7824 26.2029C38.2999 26.4746 38.8399 26.7237 39.3799 26.9501C40.5949 27.3578 41.7649 27.9239 42.8449 28.6032C43.5874 29.0788 44.1949 29.7128 44.6224 30.4828C44.9824 31.2074 45.1624 32 45.1399 32.8152C45.1624 33.8795 44.8474 34.9438 44.2624 35.827C43.6324 36.7328 42.7549 37.4347 41.7424 37.8424C40.6399 38.3179 39.2899 38.567 37.6699 38.567C36.6349 38.567 35.6224 38.4764 34.6099 38.2726C33.8224 38.1367 33.0349 37.8876 32.3149 37.548C32.1574 37.4574 32.0449 37.2989 32.0674 37.1177V33.1775C32.0674 33.1096 32.0899 33.019 32.1574 32.9737C32.2249 32.9284 32.2924 32.9511 32.3599 32.9963C33.2374 33.5172 34.1599 33.8795 35.1499 34.1059C36.0049 34.3324 36.9049 34.4456 37.8049 34.4456C38.6599 34.4456 39.2674 34.3324 39.6724 34.1286C40.0324 33.9701 40.2799 33.5851 40.2799 33.1775C40.2799 32.8605 40.0999 32.5661 39.7399 32.2717C39.3799 31.9773 38.6374 31.6376 37.5349 31.2074C36.3874 30.7998 35.3299 30.2563 34.3399 29.577C33.6424 29.0788 33.0574 28.4221 32.6299 27.6521C32.2699 26.9275 32.0899 26.1349 32.1124 25.3424C32.1124 24.3686 32.3824 23.4402 32.8774 22.6023C33.4399 21.6965 34.2724 20.9719 35.2399 20.519C36.2974 19.9755 37.6249 19.7264 39.2224 19.7264C40.1449 19.7264 41.0899 19.7943 42.0124 19.9302C42.6874 20.0208 43.3399 20.202 43.9474 20.4511C44.0374 20.4737 44.1274 20.5643 44.1724 20.6549C44.1949 20.7454 44.2174 20.836 44.2174 20.9266V24.6177C44.2174 24.7083 44.1724 24.7989 44.1049 24.8442C43.9024 24.8895 43.7899 24.8895 43.6999 24.8442Z" fill="#31A8FF"/>
</g>
</g>
<defs>
<clipPath id="clip0_390_1475">
<rect width="54" height="53" fill="white" transform="translate(0.5 0.631348)"/>
</clipPath>
</defs>
</svg>
