<?xml version="1.0" encoding="UTF-8"?>
<svg width="214" height="143" viewBox="0 0 214 143" fill="none" xmlns="http://www.w3.org/2000/svg">
  <rect width="214" height="143" rx="10" fill="#E6F4FF"/>
  <path d="M107 41.5C93.7452 41.5 83 52.2452 83 65.5C83 78.7548 93.7452 89.5 107 89.5C120.255 89.5 131 78.7548 131 65.5C131 52.2452 120.255 41.5 107 41.5ZM107 85.5C95.9543 85.5 87 76.5457 87 65.5C87 54.4543 95.9543 45.5 107 45.5C118.046 45.5 127 54.4543 127 65.5C127 76.5457 118.046 85.5 107 85.5Z" fill="#187FC3"/>
  <path d="M107 49.5C98.1634 49.5 91 56.6634 91 65.5C91 74.3366 98.1634 81.5 107 81.5C115.837 81.5 123 74.3366 123 65.5C123 56.6634 115.837 49.5 107 49.5ZM107 77.5C100.373 77.5 95 72.1274 95 65.5C95 58.8726 100.373 53.5 107 53.5C113.627 53.5 119 58.8726 119 65.5C119 72.1274 113.627 77.5 107 77.5Z" fill="#08ADFF"/>
  <path d="M107 57.5C102.582 57.5 99 61.0817 99 65.5C99 69.9183 102.582 73.5 107 73.5C111.418 73.5 115 69.9183 115 65.5C115 61.0817 111.418 57.5 107 57.5ZM107 69.5C104.791 69.5 103 67.7091 103 65.5C103 63.2909 104.791 61.5 107 61.5C109.209 61.5 111 63.2909 111 65.5C111 67.7091 109.209 69.5 107 69.5Z" fill="#187FC3"/>
  <path d="M107 61.5C104.791 61.5 103 63.2909 103 65.5C103 67.7091 104.791 69.5 107 69.5C109.209 69.5 111 67.7091 111 65.5C111 63.2909 109.209 61.5 107 61.5Z" fill="#08ADFF"/>
  <path d="M83 101.5H131M107 93.5V109.5" stroke="#187FC3" stroke-width="2"/>
  <path d="M91 97.5L123 97.5M107 89.5V105.5" stroke="#08ADFF" stroke-width="2"/>
</svg> 