<?xml version="1.0" encoding="UTF-8"?>
<svg width="214" height="143" viewBox="0 0 214 163" fill="none" xmlns="http://www.w3.org/2000/svg">
  <rect width="214" height="163" fill="white"/>
  <path d="M107 40C89.3269 40 75 54.3269 75 72C75 89.6731 89.3269 104 107 104C124.673 104 139 89.6731 139 72C139 54.3269 124.673 40 107 40Z" fill="#187FC3"/>
  <path d="M107 46C92.6406 46 81 57.6406 81 72C81 86.3594 92.6406 98 107 98C121.359 98 133 86.3594 133 72C133 57.6406 121.359 46 107 46ZM107 92C95.9544 92 87 83.0456 87 72C87 60.9544 95.9544 52 107 52C118.046 52 127 60.9544 127 72C127 83.0456 118.046 92 107 92Z" fill="white"/>
  <circle cx="107" cy="72" r="12" fill="#187FC3"/>
  <path d="M139 123H75V129H139V123Z" fill="#187FC3"/>
  <path d="M123 108H91V114H123V108Z" fill="#187FC3"/>
</svg> 