<svg width="177" height="135" viewBox="0 0 177 135" fill="none" xmlns="http://www.w3.org/2000/svg">
<g id="_&#227;&#131;&#172;&#227;&#130;&#164;&#227;&#131;&#164;&#227;&#131;&#188;_1">
<circle id="Ellipse 5" cx="52.5" cy="59.5" r="21.5" fill="#D8EBFF"/>
<circle id="Ellipse 6" cx="104.5" cy="22.5" r="21.5" fill="#D8EBFF"/>
<circle id="Ellipse 7" cx="155.5" cy="59.5" r="21.5" fill="#D8EBFF"/>
<path id="Vector" d="M55.5829 127.352C55.5829 129.906 50.2896 129.921 43.7602 129.921C37.2309 129.921 31.9375 129.906 31.9375 127.352C31.9375 124.797 37.2309 122.726 43.7602 122.726C50.2896 122.726 55.5829 124.797 55.5829 127.352Z" fill="white"/>
<path id="Vector_2" d="M43.7606 130.578C36.7883 130.578 31.2812 130.578 31.2812 127.352C31.2812 126.371 31.8487 124.947 34.5512 123.726C34.8811 123.577 35.2706 123.724 35.4198 124.054C35.5691 124.385 35.422 124.774 35.0917 124.923C33.5047 125.639 32.5945 126.525 32.5945 127.352C32.5945 129.266 38.2712 129.266 43.761 129.266C49.2509 129.266 54.9271 129.266 54.9271 127.352C54.9271 125.439 50.3412 123.383 43.761 123.383C43.3985 123.383 43.1044 123.089 43.1044 122.727C43.1044 122.364 43.3985 122.071 43.761 122.071C50.8755 122.071 56.2404 124.341 56.2404 127.353C56.2404 130.579 50.7333 130.579 43.761 130.579L43.7606 130.578Z" fill="#221815"/>
<path id="Vector_3" d="M65.7142 122.796L55.1642 120.142C52.7434 119.105 50.5902 118.388 49.2998 117.993C48.543 117.76 47.7212 118.002 47.2116 118.608L45.802 120.281L42.7594 122.802L42.1576 123.337L40.4923 124.053L37.418 124.892C35.7412 126.848 40.6319 126.708 40.6319 126.708C42.4486 126.848 44.1253 126.01 44.1253 126.01L47.4792 124.752H51.7816C52.8021 124.752 53.7846 125.181 54.4484 125.956C55.4375 127.111 54.1865 127.197 54.1865 127.197C47.8982 127.128 46.8503 128.036 46.8503 128.036C44.5448 130.201 51.6712 130.481 51.6712 130.481L57.8195 130.62C62.2212 130.411 66.1337 128.665 66.1337 128.665C67.6011 125.94 65.7147 122.797 65.7147 122.797L65.7142 122.796Z" fill="white"/>
<path id="Vector_4" d="M57.819 131.276C57.8142 131.276 57.8089 131.276 57.804 131.276L51.6558 131.137C51.5944 131.134 50.3968 131.085 49.1193 130.877C47.1542 130.558 46.1032 130.046 45.8122 129.267C45.666 128.876 45.6492 128.262 46.3999 127.557C46.4061 127.551 46.4127 127.545 46.4194 127.539C46.7077 127.29 48.1098 126.483 54.0717 126.54C54.0408 126.495 54.0006 126.443 53.9485 126.382C53.4186 125.763 52.6281 125.408 51.7803 125.408H47.5967L44.3832 126.613C44.1174 126.74 42.4521 127.495 40.6151 127.365C39.5464 127.393 37.0899 127.322 36.5277 126.144C36.3564 125.786 36.2849 125.203 36.9181 124.465C37.0038 124.365 37.1173 124.293 37.2436 124.259L40.2843 123.43L45.9813 121.207C46.0109 121.196 46.0414 121.186 46.0723 121.179L49.7052 120.34C50.0581 120.258 50.4109 120.479 50.4926 120.832C50.5743 121.186 50.3539 121.538 50.0007 121.62L46.4141 122.447L40.7295 124.665C40.7078 124.673 40.6862 124.68 40.6637 124.686L37.8013 125.467C37.7598 125.529 37.7399 125.573 37.7306 125.598C37.992 125.869 39.3561 126.086 40.612 126.051C40.635 126.05 40.6579 126.051 40.6809 126.053C42.2848 126.177 43.8162 125.429 43.8312 125.421C43.8511 125.412 43.8727 125.402 43.893 125.394L47.2469 124.137C47.3207 124.109 47.3988 124.095 47.4774 124.095H51.7798C53.0114 124.095 54.1653 124.617 54.9452 125.528C55.4446 126.111 55.5983 126.645 55.4022 127.113C55.132 127.757 54.3782 127.841 54.2298 127.851C54.2121 127.852 54.1949 127.853 54.1772 127.852C48.8199 127.793 47.4452 128.444 47.2619 128.547C47.1118 128.695 47.0645 128.788 47.0508 128.824C47.2747 129.179 49.1095 129.721 51.6955 129.823L57.8098 129.962C61.4639 129.783 64.8001 128.503 65.6546 128.152C66.5541 126.223 65.6246 124.057 65.2731 123.361L55.003 120.777C54.9694 120.768 54.9363 120.757 54.9045 120.744C52.5504 119.735 50.452 119.031 49.1064 118.619C48.5999 118.463 48.0533 118.624 47.7123 119.029L46.3028 120.703C46.0692 120.98 45.655 121.016 45.3777 120.782C45.1003 120.548 45.065 120.134 45.2982 119.857L46.7077 118.183C47.3882 117.376 48.4807 117.054 49.4906 117.363C50.8578 117.782 52.9845 118.495 55.3731 119.516L65.8728 122.158C66.0415 122.201 66.1863 122.308 66.2755 122.457C66.3603 122.598 68.3351 125.956 66.7096 128.974C66.6407 129.101 66.5316 129.203 66.3991 129.262C66.2349 129.335 62.3224 131.061 57.8486 131.274C57.8385 131.274 57.8279 131.275 57.8173 131.275L57.819 131.276ZM47.3025 128.51C47.3025 128.51 47.3017 128.511 47.2995 128.513C47.292 128.52 47.2844 128.527 47.2774 128.534C47.2791 128.533 47.3025 128.51 47.3025 128.51Z" fill="#221815"/>
<path id="Vector_5" d="M64.6664 130.775L71.5835 130.565C71.5835 130.565 88.1423 132.451 91.2864 132.032L90.4478 115.477C90.4478 115.477 72.8412 119.249 71.5835 120.087L64.0376 120.716C64.0376 120.716 65.2952 124.907 64.6664 130.775V130.775Z" fill="#DCDCDC"/>
<path id="Vector_6" d="M89.9769 132.619C85.0943 132.619 72.535 131.205 71.5613 131.094L64.6822 131.302C64.5285 131.306 64.3828 131.245 64.279 131.133C64.1752 131.022 64.1253 130.87 64.1417 130.719C64.7502 125.038 63.5442 120.908 63.5318 120.867C63.4863 120.715 63.512 120.55 63.6016 120.419C63.6912 120.288 63.8352 120.204 63.9933 120.19L71.4306 119.571C73.3948 118.619 87.4638 115.577 90.3373 114.961C90.4879 114.929 90.6464 114.964 90.7687 115.058C90.8915 115.152 90.9665 115.296 90.9745 115.45L91.8126 132.006C91.8263 132.28 91.6276 132.519 91.3556 132.556C91.0248 132.6 90.5545 132.62 89.9765 132.62L89.9769 132.619ZM71.5829 130.038C71.6028 130.038 71.6227 130.039 71.6425 130.041C71.8002 130.059 86.7502 131.757 90.7329 131.55L89.9518 116.122C83.1526 117.587 72.7129 119.971 71.8752 120.525C71.8015 120.574 71.7149 120.605 71.6266 120.612L64.7043 121.189C65.0165 122.522 65.6329 125.864 65.2492 130.229L71.567 130.038C71.5723 130.038 71.5776 130.038 71.5829 130.038V130.038Z" fill="#221815"/>
<path id="Vector_7" d="M123.353 67.75C123.039 65.2387 122.369 61.2298 120.684 57.8912C119.269 55.0876 116.666 53.0678 113.617 52.311C112.588 52.0558 111.401 51.7088 110.488 51.2885C107.852 50.0744 102.727 48.7247 94.908 53.0814C94.3415 53.3971 93.7908 53.7768 93.1642 53.9428C81.8537 56.9384 90.5173 67.9751 90.5173 67.9751L100.48 78.9262L112.875 84.4609C112.875 84.4609 125.452 83.8322 123.353 67.7495L123.353 67.75Z" fill="#FFD44A"/>
<path id="Vector_8" d="M107.411 76.0457L116.924 87.8766L99.9109 106.745L101.055 98.4542C101.082 98.0727 101.095 97.6913 101.094 97.3107C101.089 94.7676 100.472 92.2568 99.2864 89.9945L96.5278 86.5L107.412 76.0457H107.411Z" fill="white"/>
<path id="Vector_9" d="M109.824 74.5297L105.9 71.1027C101.613 63.47 96.8417 59.4691 94.8386 58.0121C94.2319 57.5711 93.3853 57.6925 92.9234 58.2832C90.8731 60.9049 88.9862 67.0007 88.9862 67.0007C88.9412 67.0674 89.1196 68.1641 86.9474 70.3968C86.6714 70.6802 85.3316 72.2237 85.2839 72.6162C85.2243 73.1045 85.2791 73.4679 85.7366 73.8171C85.8624 73.9129 86.0231 73.9495 86.1773 73.984C86.599 74.0776 87.544 74.4511 86.9182 75.8776C86.9182 75.8776 86.6498 76.4484 86.9757 77.2326C87.0997 77.5306 87.1192 77.8617 87.0379 78.1743C86.9346 78.5721 86.8701 79.1531 87.1307 79.7028C87.3033 80.0675 87.4349 80.4498 87.4861 80.8498L87.5449 81.3072C87.6376 82.033 87.6239 82.7726 87.4596 83.4856C87.2662 84.3262 87.4504 85.6357 90.4187 85.7368L95.8931 85.8803C96.5317 85.913 98.1545 87.0097 98.306 87.6309L102.175 86.5196L108.312 77.901C108.267 77.7513 109.914 74.6573 109.824 74.5292L109.824 74.5297Z" fill="white"/>
<path id="Vector_10" d="M105.9 71.1026C105.9 71.1026 105.918 70.8341 106.671 70.0699C107.093 69.6416 107.652 69.3803 108.242 69.269C109.222 69.0849 110.889 69.1026 111.538 70.7935C111.737 71.311 111.762 72.4726 111.678 73.02C111.441 74.5472 110.385 77.3746 106.541 78.9865L105.9 71.1021V71.1026Z" fill="white"/>
<path id="Vector_11" d="M105.989 79.2185C105.862 78.9138 106.005 78.5633 106.31 78.4357C110.098 76.8476 110.912 74.056 111.087 72.9297C111.164 72.429 111.126 71.388 110.98 71.0087C110.468 69.6736 109.114 69.7142 108.353 69.8577C107.846 69.9531 107.411 70.1721 107.098 70.4904C106.633 70.9619 106.508 71.1893 106.482 71.2423C106.416 71.5213 105.86 71.7001 105.86 71.7001C105.86 71.7001 105.281 71.3928 105.303 71.0634C105.325 70.7336 105.633 70.2718 106.245 69.6511C106.731 69.1579 107.383 68.8228 108.132 68.6824C110.022 68.3261 111.504 69.0365 112.097 70.5804C112.346 71.229 112.365 72.4926 112.269 73.1129C112.064 74.4383 111.118 77.7178 106.772 79.5394C106.72 79.5615 106.665 79.5756 106.611 79.5818C106.353 79.6127 106.095 79.471 105.989 79.2189V79.2185ZM106.497 71.1442C106.497 71.1442 106.497 71.1442 106.497 71.1438C106.497 71.1438 106.497 71.1438 106.497 71.1442ZM106.497 71.1434C106.497 71.1434 106.497 71.1429 106.497 71.1425C106.497 71.1425 106.497 71.1429 106.497 71.1434Z" fill="#221815"/>
<path id="Vector_12" d="M97.5605 85.8426C97.5181 85.5711 97.2946 85.3614 97.0173 85.3393L88.8015 84.8369C88.4721 84.8108 88.1837 85.0558 88.1572 85.3852C88.1307 85.7146 88.3763 86.0029 88.7057 86.0294L96.5276 86.5004C96.5868 86.6598 96.664 86.8598 96.7625 87.1146L97.8788 86.6837C97.7371 86.3163 97.6024 85.9676 97.5609 85.843L97.5605 85.8426Z" fill="#221815"/>
<path id="Vector_13" d="M85.123 71.569C85.1415 71.55 85.1614 71.5328 85.1826 71.5165C85.671 71.1381 86.7211 70.0763 88.0644 68.603C88.2848 68.3615 88.6606 68.3443 88.9017 68.5641C89.1432 68.7844 89.1605 69.1597 88.9405 69.4012C88.1492 70.2692 86.7118 71.8118 85.958 72.4141C85.9134 72.4728 85.8247 72.6149 85.8432 72.7955C85.8684 73.0405 86.0834 73.3165 86.4659 73.5933L87.3181 74.2631C87.5747 74.4653 87.6193 74.8383 87.4175 75.0953C87.3195 75.2198 87.179 75.2984 87.0218 75.3169C86.8646 75.3355 86.7096 75.2922 86.5851 75.1942L85.762 74.5465C85.0824 74.052 84.7119 73.4931 84.6611 72.8851C84.5979 72.1275 85.0691 71.6238 85.1234 71.5686L85.123 71.569Z" fill="#221815"/>
<path id="Vector_14" d="M87.4597 83.3892C87.7728 83.3517 88.0059 83.0753 87.9852 82.757L87.8403 80.5093C87.8386 80.4832 87.835 80.4572 87.8302 80.4316L87.5489 79.0108L87.8606 78.0011C87.903 77.8642 87.8946 77.7172 87.8377 77.5861L87.3267 76.4117C87.1952 76.1088 86.8419 75.9706 86.5394 76.1018C86.2365 76.2333 86.0978 76.5861 86.2294 76.889L86.652 77.8603L86.361 78.8029C86.3318 78.8978 86.3265 78.9985 86.346 79.0956L86.6493 80.6258L86.7915 82.8343C86.8127 83.1641 87.0976 83.4139 87.427 83.3928C87.438 83.3919 87.4491 83.391 87.4601 83.3897L87.4597 83.3892Z" fill="#221815"/>
<path id="Vector_15" d="M106.41 76.018C106.639 75.9906 106.841 75.8312 106.912 75.5964C107.843 72.5023 108.636 72.1968 108.785 72.1668C108.967 72.1319 109.117 72.3111 109.124 72.3191C109.322 72.5831 109.694 72.6317 109.958 72.433C110.222 72.2343 110.272 71.8551 110.073 71.591C109.859 71.3063 109.302 70.8604 108.581 70.9884C107.491 71.1827 106.57 72.5774 105.766 75.252C105.67 75.5686 105.85 75.9019 106.166 75.9973C106.248 76.0215 106.33 76.0282 106.409 76.0184L106.41 76.018Z" fill="#221815"/>
<path id="Vector_16" d="M93.4228 68.6735C93.206 69.1124 92.7295 69.2717 92.3586 69.0294C91.9881 68.787 91.8631 68.2346 92.0804 67.7958C92.2972 67.3569 92.7737 67.1976 93.1446 67.4399C93.5151 67.6823 93.6401 68.2347 93.4228 68.6735Z" fill="#221815"/>
<path id="Vector_17" d="M104.915 79.4506C104.827 78.712 105.355 78.0413 106.094 77.953C106.833 77.8647 107.504 78.3923 107.592 79.1314C107.68 79.8705 107.153 80.5407 106.413 80.629C105.675 80.7173 105.004 80.1897 104.915 79.4506Z" fill="white"/>
<path id="Vector_18" d="M104.354 79.5174C104.229 78.4706 104.98 77.517 106.027 77.392C107.074 77.2671 108.028 78.0172 108.153 79.064C108.278 80.1108 107.527 81.0644 106.48 81.1894C105.433 81.3143 104.479 80.5642 104.354 79.5174H104.354ZM105.476 79.3836C105.528 79.8119 105.918 80.1187 106.346 80.068C106.774 80.0168 107.082 79.6269 107.03 79.1982C106.979 78.77 106.589 78.4631 106.161 78.5139C105.732 78.5651 105.425 78.9549 105.476 79.3832L105.476 79.3836Z" fill="#231815"/>
<path id="Vector_19" d="M89.3761 67.5198C89.3112 67.541 89.2419 67.552 89.1704 67.5507C88.8264 67.5441 88.5526 67.2597 88.5592 66.9154C88.5954 65.0606 90.0447 60.9158 90.1061 60.7405C90.22 60.416 90.5759 60.2451 90.9005 60.359C91.2251 60.4734 91.396 60.8288 91.2821 61.1533C90.8802 62.2968 89.8319 65.5657 89.8054 66.9396C89.8001 67.2116 89.6208 67.4399 89.3761 67.5198Z" fill="#221815"/>
<path id="Vector_20" d="M144.562 131.538C144.546 131.456 142.897 123.275 139.333 113.508C137.239 107.767 134.9 102.606 132.384 98.1677C129.228 92.6016 125.779 88.1597 122.132 84.9654C122.125 84.9592 122.117 84.953 122.11 84.9473C121.937 84.8126 117.353 82.1592 108.918 91.4502C108.913 91.455 100.917 100.595 100.912 100.599C100.536 100.869 97.0551 99.6012 97.6234 98.8833C96.7747 98.9226 92.7982 97.886 90.6657 97.8034L88.1045 130.724C88.1372 131.42 88.3677 132.438 89.3016 133.255C90.2506 134.086 91.6818 134.5 93.586 134.5C96.1582 134.5 99.5925 133.744 103.863 132.231L106.383 132.124H144.081C144.228 132.124 144.367 132.058 144.46 131.945C144.553 131.831 144.591 131.682 144.562 131.538L144.562 131.538ZM90.5098 100.445L88.6644 129.53C88.6543 129.529 88.6437 129.528 88.6335 129.528C88.5708 129.528 88.5081 129.54 88.4481 129.564L90.5098 100.445Z" fill="#DCDCDC"/>
<path id="Vector_21" d="M98.3362 94.1346L100.381 90.8127L106.77 85.7023C106.77 85.7023 111.384 81.2661 111.129 78.455C111.129 78.455 108.56 75.9919 106.77 75.9919C106.77 75.9919 105.932 72.9998 102.937 75.4806C102.937 75.4806 100.866 73.6488 99.6142 76.2471C99.6142 76.2471 96.5474 75.225 96.2917 78.5469L95.5251 82.8908C95.5251 82.8908 89.1357 87.2348 91.4359 93.6229L90.3545 100.923L98.3442 100.533L98.3367 94.1337L98.3362 94.1346Z" fill="white"/>
<path id="Vector_22" d="M90.3547 101.567C90.3234 101.567 90.2916 101.565 90.2598 101.56C89.9083 101.508 89.6654 101.181 89.7175 100.829L90.7755 93.6864C89.8323 90.9195 90.2849 88.0904 92.0888 85.4948C93.1707 83.9385 94.4288 82.9067 94.9358 82.5239L95.652 78.4656C95.7501 77.2779 96.1833 76.421 96.9401 75.9185C97.7452 75.3843 98.7008 75.4196 99.2832 75.5137C99.7231 74.8113 100.28 74.3883 100.946 74.2541C101.752 74.092 102.477 74.4077 102.92 74.6788C103.944 73.9384 104.879 73.6938 105.704 73.9516C106.538 74.2126 106.999 74.9203 107.22 75.3856C109.123 75.6885 111.312 77.7397 111.574 77.9901C111.686 78.0974 111.755 78.2417 111.769 78.3963C112.045 81.4272 107.711 85.689 107.216 86.165C107.202 86.1787 107.187 86.1915 107.172 86.2038L100.87 91.2445L98.9794 94.3156L98.9865 100.532C98.9865 100.888 98.6994 101.176 98.344 101.177H98.3431C97.988 101.177 97.7001 100.889 97.6997 100.534L97.6922 94.135C97.6922 94.0158 97.7253 93.8988 97.7876 93.7972L99.8321 90.4754C99.871 90.4122 99.9204 90.3566 99.9783 90.3102L106.344 85.2184C107.534 84.0678 110.447 80.8056 110.494 78.7446C109.697 78.0258 107.919 76.6351 106.769 76.6351C106.481 76.6351 106.227 76.4431 106.15 76.1653C106.148 76.1609 105.897 75.3565 105.314 75.1781C104.834 75.0311 104.153 75.3075 103.345 75.9764C103.101 76.1786 102.746 76.1728 102.509 75.9627C102.324 75.8029 101.723 75.4068 101.194 75.5163C100.814 75.5949 100.477 75.9349 100.192 76.5265C100.052 76.8179 99.7164 76.9601 99.4091 76.8576C99.4011 76.855 98.3484 76.5225 97.6462 76.9932C97.2325 77.2704 96.9918 77.8099 96.9313 78.5967C96.9295 78.6175 96.9269 78.6387 96.9234 78.659L96.1568 83.0029C96.1267 83.1738 96.0287 83.3252 95.8852 83.4228C95.8706 83.4329 94.3467 84.4855 93.1222 86.2603C91.5284 88.5712 91.1641 90.9747 92.0394 93.4052C92.0751 93.505 92.0862 93.6123 92.0703 93.7173L90.9888 101.017C90.9416 101.336 90.6669 101.566 90.3534 101.566L90.3547 101.567Z" fill="#221815"/>
<path id="Vector_23" d="M106.26 82.768C106.241 82.768 106.224 82.7671 106.205 82.7658C105.851 82.7362 105.588 82.4254 105.617 82.0713L106.128 75.9388C106.158 75.5847 106.469 75.3216 106.823 75.3511C107.177 75.3807 107.44 75.6915 107.411 76.0456L106.9 82.1781C106.872 82.5141 106.591 82.768 106.26 82.768Z" fill="#221815"/>
<path id="Vector_24" d="M102.936 82.7682C102.581 82.7682 102.293 82.4803 102.293 82.1249V75.4812C102.293 75.1258 102.581 74.8379 102.936 74.8379C103.292 74.8379 103.58 75.1258 103.58 75.4812V82.1249C103.58 82.4803 103.292 82.7682 102.936 82.7682Z" fill="#221815"/>
<path id="Vector_25" d="M99.3588 83.279C99.35 83.279 99.3416 83.279 99.3328 83.2785C98.9777 83.2644 98.7017 82.9651 98.7159 82.6101L98.9715 76.222C98.9857 75.867 99.2851 75.592 99.6401 75.6052C99.9951 75.6193 100.271 75.9187 100.257 76.2736L100.001 82.6618C99.9876 83.0079 99.7024 83.279 99.3588 83.279Z" fill="#221815"/>
<path id="Vector_26" d="M106.711 80.7872C106.564 80.7872 106.415 80.7368 106.294 80.634C106.024 80.4039 105.991 79.9982 106.221 79.7276L107.358 78.3902C107.588 78.1196 107.994 78.0865 108.265 78.317C108.535 78.547 108.568 78.9527 108.338 79.2234L107.201 80.5607C107.074 80.7104 106.893 80.7872 106.71 80.7872H106.711Z" fill="#221815"/>
<path id="Vector_27" d="M105.749 130.795C105.563 130.795 105.378 130.715 105.25 130.56C105.022 130.285 105.06 129.877 105.336 129.649C118.613 118.672 127.211 106.014 127.296 105.888C127.496 105.591 127.899 105.513 128.195 105.712C128.492 105.912 128.57 106.314 128.37 106.611C128.284 106.739 119.588 119.545 106.161 130.647C106.04 130.746 105.894 130.795 105.748 130.795H105.749Z" fill="#221815"/>
<path id="Vector_28" d="M103.669 107.416C103.531 107.416 103.393 107.372 103.275 107.282C102.991 107.064 102.938 106.658 103.156 106.374C103.499 105.929 103.836 105.469 104.157 105.007C105.279 103.397 106.267 101.688 107.096 99.9286C111.105 91.4173 114.107 89.4204 114.232 89.3396C114.533 89.1466 114.934 89.2332 115.127 89.5343C115.32 89.8336 115.234 90.2323 114.936 90.4265C114.892 90.4566 112.067 92.4155 108.268 100.481C107.408 102.306 106.383 104.078 105.22 105.748C104.887 106.226 104.539 106.703 104.183 107.164C104.055 107.33 103.863 107.417 103.67 107.417L103.669 107.416Z" fill="#221815"/>
<path id="Vector_29" d="M98.9797 94.3164C98.9797 94.3164 91.1984 94.5592 89.1199 95.5981L88.6001 103.651C88.6001 103.651 83.6636 136.902 92.2375 133.525L104.342 126.614L98.9793 94.3164H98.9797Z" fill="#DCDCDC"/>
<path id="Vector_30" d="M91.0814 134.258C90.4606 134.258 89.8944 134.057 89.3893 133.655C87.2215 131.933 86.3555 126.321 86.8157 116.974C87.1442 110.305 88.053 104.008 88.1126 103.599L88.6311 95.5665C88.6421 95.3925 88.745 95.2376 88.9013 95.1594C91.0514 94.0844 98.6432 93.8362 98.9652 93.8261C99.2191 93.8199 99.424 93.9934 99.4642 94.2358L104.827 126.533C104.861 126.735 104.765 126.937 104.587 127.039L92.4817 133.95C92.4614 133.961 92.4402 133.972 92.4181 133.98C91.9487 134.165 91.5027 134.258 91.0819 134.258L91.0814 134.258ZM89.5902 95.9276L89.0899 103.683C89.089 103.696 89.0877 103.71 89.0855 103.723C88.0353 110.799 86.152 129.832 89.9991 132.888C90.5537 133.328 91.2166 133.392 92.026 133.081L103.803 126.357L98.5664 94.8226C96.2781 94.9135 91.3782 95.2398 89.5902 95.9281V95.9276Z" fill="#221815"/>
<path id="Vector_31" d="M89.8857 79.2814C89.4308 79.2814 89.1103 79.1989 89.0824 79.1918C88.7256 79.0969 88.5137 78.7309 88.6086 78.3742C88.7031 78.0192 89.0661 77.8068 89.422 77.8995C89.4467 77.9057 90.3017 78.1062 90.9671 77.6307C91.2674 77.4165 91.6847 77.4858 91.8993 77.7861C92.114 78.0863 92.0442 78.5035 91.7439 78.7181C91.1067 79.1728 90.4076 79.2814 89.8852 79.2814H89.8857Z" fill="#221815"/>
<path id="Vector_32" d="M109.661 67.8055C109.366 67.8055 109.096 67.6086 109.016 67.3101C106.468 57.7877 101.027 54.9069 100.973 54.8787C100.645 54.7105 100.515 54.3078 100.683 53.9793C100.851 53.6513 101.254 53.521 101.583 53.6893C101.827 53.8146 107.607 56.8743 110.308 66.9644C110.403 67.3207 110.191 67.6871 109.835 67.7825C109.777 67.798 109.719 67.8055 109.662 67.8055H109.661Z" fill="#221815"/>
<path id="Vector_33" d="M89.8177 59.4209C89.7068 59.4209 89.5951 59.3935 89.4918 59.3352C89.1712 59.1551 89.0559 58.7511 89.2343 58.4301C89.8186 57.3793 91.5933 55.6738 94.1303 56.7418C94.4703 56.8849 94.6297 57.2769 94.4866 57.6169C94.3435 57.9568 93.9519 58.1162 93.6114 57.9732C91.5893 57.1219 90.5163 58.8787 90.4006 59.0818C90.2774 59.2986 90.0504 59.4204 89.8172 59.4204L89.8177 59.4209Z" fill="#221815"/>
<path id="Vector_34" d="M88.1047 131.339C87.8742 131.339 87.653 131.209 87.5479 130.986C86.3061 128.361 86.2699 118.616 86.269 118.202C86.2682 117.862 86.5433 117.586 86.8833 117.585H86.8846C87.2238 117.585 87.4993 117.86 87.5002 118.199C87.5064 120.94 87.7272 128.486 88.6607 130.46C88.806 130.768 88.6748 131.135 88.3675 131.28C88.2827 131.32 88.1931 131.339 88.1047 131.339Z" fill="#221815"/>
<path id="Vector_35" d="M25.7804 130.37H7.28214C5.14572 130.37 3.19963 129.285 2.07666 127.468C0.953697 125.652 0.853456 123.426 1.80862 121.515L13.906 97.3255C14.2089 96.7193 14.9455 96.4738 15.5518 96.7767C16.1577 97.0796 16.4036 97.8164 16.1003 98.4222L4.00288 122.612C3.43058 123.757 3.49064 125.09 4.16362 126.178C4.83661 127.267 6.00196 127.916 7.28214 127.916H25.7804C26.4578 127.916 27.0071 128.466 27.0071 129.143C27.0071 129.82 26.4578 130.369 25.7804 130.369V130.37Z" fill="#DADBDB"/>
<path id="Vector_36" d="M25.7804 131.026H7.28215C4.91655 131.026 2.76202 129.825 1.51806 127.813C0.274544 125.801 0.163704 123.337 1.22131 121.222L13.3187 97.0321C13.5435 96.5823 13.9303 96.2472 14.4072 96.0878C14.8846 95.9288 15.3951 95.965 15.8455 96.1898C16.7741 96.6538 17.1521 97.7876 16.6876 98.7161L5.85272 120.474C5.6911 120.798 5.2972 120.93 4.97263 120.769C4.64806 120.607 4.51602 120.213 4.67765 119.889L15.513 98.1302C15.6538 97.8481 15.5395 97.5046 15.2586 97.3642C15.1221 97.2962 14.9676 97.2847 14.8232 97.3333C14.6788 97.3814 14.5618 97.4829 14.4933 97.6194L2.39595 121.809C1.54323 123.514 1.63244 125.501 2.63529 127.123C3.6377 128.745 5.37492 129.713 7.28215 129.713H25.7804C26.0948 129.713 26.3509 129.457 26.3509 129.143C26.3509 128.828 26.0952 128.572 25.7804 128.572H7.28215C5.77323 128.572 4.399 127.806 3.60546 126.523C2.81237 125.239 2.74127 123.668 3.41602 122.318C3.57808 121.994 3.97242 121.863 4.29655 122.025C4.62068 122.187 4.75227 122.581 4.59021 122.905C4.12036 123.845 4.16982 124.939 4.72225 125.833C5.27468 126.726 6.2316 127.26 7.28215 127.26H25.7804C26.819 127.26 27.6638 128.104 27.6638 129.143C27.6638 130.181 26.819 131.026 25.7804 131.026V131.026Z" fill="#221815"/>
<path id="Vector_37" d="M29.545 124.576L26.6742 125.341C23.0063 122.556 20.3568 118.642 19.1336 114.204L7.26584 71.1318C6.08635 66.8509 6.44625 62.2924 8.28282 58.2496L11.1536 57.4849L29.545 124.576Z" fill="#EDEDED"/>
<path id="Vector_38" d="M26.6739 125.998C26.5321 125.998 26.3922 125.952 26.2769 125.864C22.5163 123.009 19.7546 118.93 18.5 114.378L7.5667 74.6975C7.47043 74.3483 7.67577 73.9867 8.02507 73.8904C8.37437 73.7942 8.73603 73.9995 8.8323 74.3487L19.7656 114.029C20.9155 118.202 23.4145 121.953 26.8178 124.624L28.7361 124.112L27.6657 120.207C27.5699 119.858 27.7757 119.497 28.1254 119.401C28.4751 119.304 28.8364 119.511 28.9322 119.861L30.1775 124.403C30.2238 124.572 30.2009 124.752 30.1134 124.904C30.0264 125.055 29.8825 125.166 29.7134 125.211L26.8426 125.976C26.7869 125.991 26.73 125.998 26.6735 125.998H26.6739Z" fill="#221815"/>
<path id="Vector_39" d="M27.4041 117.427C27.1158 117.427 26.8513 117.235 26.7713 116.944L10.6921 58.2867L8.75487 58.8029C7.09449 62.6285 6.78891 66.9318 7.89818 70.9575C7.99445 71.3067 7.78911 71.6683 7.43981 71.7645C7.09051 71.8603 6.72885 71.6555 6.63258 71.3058C5.41468 66.8859 5.78826 62.1526 7.68489 57.9781C7.76615 57.7993 7.92335 57.666 8.11368 57.6152L10.9845 56.8505C11.332 56.7574 11.691 56.9631 11.7868 57.311L28.0387 116.596C28.1345 116.945 27.9287 117.307 27.579 117.402C27.5207 117.418 27.4624 117.426 27.405 117.426L27.4041 117.427Z" fill="#221815"/>
<path id="Vector_40" d="M26.6736 125.998C26.3853 125.998 26.1212 125.807 26.0413 125.516L10.0437 67.4064C9.94748 67.0572 10.1528 66.6956 10.5026 66.5993C10.8519 66.5026 11.2135 66.7084 11.3098 67.058L27.3069 125.167C27.4031 125.517 27.1978 125.878 26.848 125.975C26.7898 125.99 26.731 125.998 26.6736 125.998V125.998Z" fill="#221815"/>
<path id="Vector_41" d="M9.85356 64.8011C9.56343 64.8011 9.29804 64.6073 9.21987 64.3137L8.62152 62.0682C8.5279 61.7181 8.73633 61.3582 9.08695 61.2651C9.43714 61.1715 9.79703 61.3799 9.89021 61.7304L10.4886 63.9759C10.5822 64.326 10.3737 64.6858 10.0231 64.779C9.9666 64.794 9.90964 64.8015 9.85356 64.8015V64.8011Z" fill="#221815"/>
<path id="Vector_42" d="M103.427 125.558C103.103 125.558 102.823 125.315 102.785 124.985L100.139 102.276C100.097 101.921 100.352 101.6 100.707 101.559C101.062 101.517 101.384 101.772 101.425 102.127L104.071 124.836C104.113 125.19 103.858 125.512 103.503 125.553C103.477 125.556 103.452 125.558 103.427 125.558Z" fill="#221815"/>
<path id="Vector_43" d="M100.912 98.0534C100.884 98.0534 100.856 98.0516 100.828 98.0477C100.5 98.0018 100.272 97.6989 100.317 97.3713C100.321 97.3457 100.656 94.8 99.7971 91.1916C99.7207 90.8693 99.9194 90.5461 100.242 90.4693C100.563 90.392 100.887 90.5915 100.964 90.9138C101.879 94.7585 101.521 97.4256 101.505 97.5373C101.463 97.8366 101.206 98.0534 100.912 98.0534Z" fill="#221815"/>
<path id="Vector_44" d="M99.8477 12.1477H97.0078L92.2272 25.9562L90.4087 26.1606V27.5906H96.6197V26.1606L94.3724 25.9562L95.6186 22.0754H100.747L101.952 25.9562L99.7868 26.1606V27.5906H106.202V26.1606L104.547 25.9562L99.8481 12.1477H99.8477ZM96.1295 20.4206L98.2134 13.9044L100.236 20.4206H96.1295Z" fill="#221815"/>
<path id="Vector_45" d="M117.268 25.9564C116.287 25.9564 116.001 25.6089 116.001 24.506V20.5638C116.001 18.2556 114.612 17.03 112.038 17.03C110.812 17.03 109.464 17.4384 108.238 18.1943V20.7069H109.852L110.036 18.9298C110.546 18.7254 111.037 18.6234 111.609 18.6234C113.121 18.6234 113.794 19.2768 113.794 20.7886V21.4217C109.157 21.687 107.379 22.6676 107.379 24.9758C107.379 26.7528 108.585 27.7948 110.628 27.7948C112.058 27.7948 113.161 27.3047 114.019 26.2831C114.264 27.1206 114.959 27.5904 116.083 27.5904C116.675 27.5904 117.37 27.4884 117.758 27.325V25.9157C117.615 25.936 117.431 25.9568 117.267 25.9568L117.268 25.9564ZM113.795 25.0575C113.162 25.8539 112.406 26.2014 111.363 26.2014C110.26 26.2014 109.647 25.691 109.647 24.7511C109.647 23.5457 110.894 22.974 113.795 22.872V25.0579V25.0575Z" fill="#221815"/>
<path id="Vector_46" d="M58.6457 60.3658C61.9659 57.0463 61.9659 51.6642 58.6457 48.3446C55.3255 45.0251 49.9424 45.0251 46.6221 48.3446C43.3019 51.6642 43.3019 57.0463 46.6221 60.3658C49.9424 63.6854 55.3255 63.6854 58.6457 60.3658Z" fill="white"/>
<path id="Vector_47" d="M46.9155 71.7313C51.611 71.7313 55.4175 67.9256 55.4175 63.231C55.4175 58.5364 51.611 54.7307 46.9155 54.7307C42.22 54.7307 38.4136 58.5364 38.4136 63.231C38.4136 67.9256 42.22 71.7313 46.9155 71.7313Z" fill="white"/>
<path id="Vector_48" d="M58.4512 71.7313C63.1467 71.7313 66.9531 67.9256 66.9531 63.231C66.9531 58.5364 63.1467 54.7307 58.4512 54.7307C53.7557 54.7307 49.9492 58.5364 49.9492 63.231C49.9492 67.9256 53.7557 71.7313 58.4512 71.7313Z" fill="white"/>
<path id="Vector_49" d="M52.6362 63.346C47.9306 63.346 43.9638 59.6731 43.6671 54.9146C43.3584 49.9666 47.1336 45.6902 52.0825 45.3812C57.0318 45.0726 61.3086 48.847 61.6177 53.7949C61.635 54.0731 61.4234 54.3128 61.1452 54.33C60.871 54.3486 60.6272 54.1362 60.61 53.8576C60.3358 49.4655 56.5408 46.115 52.1456 46.3887C47.7527 46.6624 44.4014 50.4589 44.6752 54.8514C44.8081 56.9791 45.7615 58.9278 47.3601 60.3385C48.9587 61.7491 51.0098 62.4528 53.1396 62.3204C56.3906 62.1177 59.1651 59.9932 60.2082 56.908C60.2974 56.6435 60.584 56.5022 60.8485 56.5914C61.1126 56.6806 61.2543 56.9671 61.1651 57.2316C59.99 60.7067 56.8645 63.1001 53.2023 63.3283C53.0129 63.3402 52.8239 63.346 52.6367 63.346H52.6362Z" fill="#221815"/>
<path id="Vector_50" d="M46.919 72.523C44.5874 72.523 42.3843 71.6382 40.6969 70.0188C38.9641 68.3556 37.9825 66.1176 37.933 63.7163C37.8681 60.5622 39.4936 57.5653 42.1749 55.895C42.4116 55.7476 42.723 55.82 42.8705 56.0566C43.0179 56.2933 42.9455 56.6045 42.7088 56.752C40.3282 58.235 38.8851 60.8955 38.9425 63.6955C38.9862 65.8271 39.8575 67.8139 41.396 69.2898C42.9345 70.7662 44.9587 71.5578 47.0876 71.511C51.4885 71.4205 54.9952 67.7675 54.9047 63.3675C54.8976 63.0165 54.8672 62.6637 54.8146 62.3185C54.7665 62.0015 54.698 61.6845 54.6115 61.375C53.6316 57.8712 50.4031 55.4787 46.7595 55.5516C46.5608 55.5555 46.3603 55.567 46.1638 55.5856C45.8878 55.6107 45.6401 55.4081 45.6136 55.1304C45.5876 54.8527 45.7911 54.6063 46.0689 54.5802C46.2901 54.5595 46.5158 54.5463 46.7392 54.5418C50.8438 54.4549 54.4803 57.1555 55.5843 61.103C55.6819 61.4518 55.7587 61.8094 55.813 62.1662C55.8722 62.5542 55.9062 62.9516 55.9142 63.3463C56.0157 68.3026 52.0657 72.4179 47.108 72.5199C47.0448 72.5212 46.9817 72.5216 46.9185 72.5216L46.919 72.523Z" fill="#221815"/>
<path id="Vector_51" d="M58.3604 72.5229C53.6566 72.5229 49.7163 68.8518 49.3899 64.1657C49.3705 63.8875 49.5802 63.6464 49.8584 63.627C50.1371 63.6071 50.3778 63.8173 50.3972 64.0955C50.6873 68.2549 54.1852 71.5132 58.3604 71.5132C62.7622 71.5132 66.343 67.933 66.343 63.5321C66.343 59.1312 62.7622 55.551 58.3604 55.551C54.9911 55.551 51.9679 57.6822 50.8383 60.8539C50.7447 61.1166 50.4555 61.2535 50.1932 61.1603C49.9304 61.0667 49.7931 60.778 49.8867 60.5153C51.1594 56.9422 54.5649 54.5417 58.3604 54.5417C63.319 54.5417 67.353 58.5749 67.353 63.5325C67.353 68.4902 63.319 72.5233 58.3604 72.5233V72.5229Z" fill="#221815"/>
<path id="Vector_52" d="M52.1209 51.605H51.7729V53.1803C51.7729 53.3878 51.727 53.5401 51.6355 53.6386C51.5441 53.737 51.4249 53.7856 51.2774 53.7856C51.1189 53.7856 50.9966 53.7344 50.9096 53.632C50.8226 53.5295 50.7793 53.379 50.7793 53.1803V49.4077C50.7793 49.1935 50.8274 49.0386 50.9233 48.9428C51.0191 48.847 51.1741 48.7988 51.3883 48.7988H53.004C53.227 48.7988 53.4178 48.8085 53.5759 48.8271C53.7344 48.8461 53.8771 48.8845 54.0042 48.9423C54.1579 49.0072 54.2939 49.0995 54.4123 49.22C54.5306 49.3406 54.6203 49.4805 54.6816 49.6399C54.743 49.7993 54.7735 49.9684 54.7735 50.1467C54.7735 50.5123 54.6702 50.8046 54.4639 51.0231C54.2577 51.2417 53.9451 51.3966 53.5256 51.488C53.7017 51.5816 53.87 51.7198 54.0307 51.9026C54.1915 52.0854 54.3345 52.2801 54.4604 52.4863C54.5863 52.6925 54.6847 52.8788 54.7549 53.0448C54.8252 53.2108 54.8605 53.3251 54.8605 53.3874C54.8605 53.4496 54.8397 53.5163 54.7987 53.5799C54.7571 53.6435 54.7011 53.6938 54.6295 53.7304C54.558 53.7671 54.4759 53.7856 54.3818 53.7856C54.2701 53.7856 54.1765 53.7596 54.1009 53.707C54.025 53.6545 53.9601 53.5883 53.9053 53.5079C53.8506 53.4276 53.7768 53.3092 53.6828 53.1534L53.2844 52.4911C53.1418 52.2479 53.0142 52.0629 52.9016 51.9357C52.789 51.8086 52.6746 51.7216 52.5589 51.6748C52.4428 51.628 52.2966 51.6046 52.1209 51.6046V51.605ZM52.6892 49.5445H51.7724V50.8924H52.6622C52.9007 50.8924 53.1016 50.8717 53.2646 50.8306C53.4275 50.7896 53.5516 50.7189 53.6377 50.62C53.7234 50.5207 53.7667 50.3843 53.7667 50.2103C53.7667 50.0743 53.7322 49.9542 53.6629 49.8509C53.5936 49.7472 53.4977 49.6699 53.3754 49.6183C53.2593 49.5693 53.031 49.5445 52.6896 49.5445H52.6892Z" fill="#221815"/>
<path id="Vector_53" d="M54.3826 53.8743C54.2532 53.8743 54.1415 53.8425 54.051 53.7799C53.9666 53.7216 53.8929 53.647 53.8324 53.5578C53.7772 53.477 53.7017 53.356 53.6072 53.1988L53.2089 52.5366C53.0693 52.299 52.9439 52.1167 52.8357 51.9944C52.7328 51.8783 52.6286 51.7984 52.5262 51.7569C52.4215 51.7145 52.2851 51.6933 52.1212 51.6933H51.8625V53.1794C51.8625 53.409 51.8081 53.5834 51.7013 53.6982C51.5926 53.8147 51.4505 53.8735 51.2782 53.8735C51.0932 53.8735 50.9466 53.8112 50.8424 53.688C50.7417 53.5697 50.6909 53.398 50.6909 53.179V49.4063C50.6909 49.1688 50.7479 48.9913 50.8609 48.8787C50.9735 48.7661 51.1515 48.7087 51.3886 48.7087H53.0044C53.2292 48.7087 53.4253 48.7184 53.5869 48.7379C53.7534 48.7577 53.9061 48.7992 54.0417 48.8606C54.2033 48.9286 54.3504 49.0288 54.4762 49.1569C54.6025 49.2853 54.6997 49.4368 54.765 49.6068C54.8299 49.7759 54.8631 49.9569 54.8631 50.1454C54.8631 50.533 54.7509 50.8483 54.5292 51.0827C54.3469 51.2756 54.0854 51.4231 53.7498 51.5216C53.8699 51.6081 53.9865 51.7154 54.0982 51.8425C54.2612 52.0284 54.4091 52.2289 54.5372 52.4386C54.6652 52.6478 54.7659 52.8399 54.8375 53.009C54.9381 53.2474 54.9501 53.3383 54.9501 53.3865C54.9501 53.4682 54.9245 53.5494 54.8737 53.6271C54.8242 53.7035 54.7558 53.7644 54.671 53.8081C54.5871 53.8514 54.4904 53.873 54.3826 53.873V53.8743ZM51.6841 51.5158H52.1208C52.3076 51.5158 52.4661 51.5414 52.5924 51.5926C52.7209 51.6447 52.8477 51.7401 52.9686 51.877C53.0843 52.0077 53.2168 52.1993 53.3617 52.4461L53.7595 53.1074C53.8523 53.262 53.926 53.3799 53.9794 53.458C54.0276 53.5291 54.0859 53.5878 54.1521 53.6337C54.2135 53.6761 54.2886 53.6964 54.3826 53.6964C54.4617 53.6964 54.531 53.6814 54.5893 53.6514C54.6471 53.6214 54.6913 53.5825 54.7244 53.5313C54.7566 53.4823 54.7721 53.435 54.7721 53.3874C54.7721 53.3591 54.7593 53.2814 54.6736 53.0792C54.6056 52.9185 54.5085 52.7344 54.3853 52.5326C54.2625 52.3317 54.1208 52.1392 53.9644 51.9613C53.8116 51.7873 53.6505 51.6545 53.4844 51.5666L53.2698 51.4527L53.5069 51.401C53.9066 51.3141 54.2069 51.1661 54.3994 50.9617C54.5888 50.7613 54.6847 50.4871 54.6847 50.1467C54.6847 49.9803 54.6555 49.8204 54.5986 49.6721C54.542 49.5246 54.4581 49.394 54.3486 49.2827C54.2395 49.1714 54.1119 49.0845 53.9697 49.0249C53.8487 48.9701 53.7136 48.9335 53.5652 48.9158C53.4102 48.8973 53.2217 48.888 53.004 48.888H51.3882C51.1996 48.888 51.0645 48.9277 50.9863 49.0059C50.9082 49.084 50.8684 49.2191 50.8684 49.4076V53.1803C50.8684 53.356 50.9051 53.4885 50.978 53.5741C51.0477 53.6567 51.1458 53.6964 51.2778 53.6964C51.4001 53.6964 51.4959 53.6576 51.5706 53.5776C51.6456 53.4968 51.6836 53.3631 51.6836 53.1803V51.5158H51.6841ZM52.6631 50.9816H51.6841V49.4558H52.6896C53.0459 49.4558 53.2813 49.4823 53.4098 49.5366C53.548 49.5944 53.6584 49.6836 53.737 49.8015C53.8156 49.9198 53.8558 50.0571 53.8558 50.2103C53.8558 50.4054 53.805 50.5631 53.7052 50.6783C53.6076 50.7913 53.4668 50.8717 53.2866 50.9171C53.1175 50.96 52.9073 50.9816 52.6626 50.9816H52.6631ZM51.8625 50.8032H52.6631C52.8931 50.8032 53.0883 50.7834 53.2433 50.7441C53.3873 50.7074 53.4972 50.6461 53.571 50.5613C53.6421 50.4792 53.6778 50.3608 53.6778 50.2099C53.6778 50.0906 53.6487 49.9891 53.5891 49.8999C53.5295 49.8103 53.4482 49.7449 53.3409 49.7004C53.2689 49.6699 53.0971 49.6337 52.6896 49.6337H51.862V50.8032H51.8625Z" fill="#221815"/>
<path id="Vector_54" d="M46.5379 65.2482V66.1882C46.5379 66.3131 46.5256 66.4129 46.5013 66.4875C46.4766 66.5621 46.4315 66.6297 46.3657 66.6897C46.2999 66.7498 46.2156 66.8081 46.1131 66.8637C45.8164 67.0244 45.5311 67.1414 45.2569 67.2147C44.9827 67.2884 44.6837 67.3251 44.3605 67.3251C43.9833 67.3251 43.6402 67.2672 43.3302 67.1511C43.0202 67.035 42.7562 66.8668 42.5376 66.646C42.319 66.4253 42.1512 66.1577 42.0342 65.8434C41.9171 65.529 41.8584 65.178 41.8584 64.79C41.8584 64.4019 41.9154 64.0597 42.0289 63.7431C42.1428 63.4266 42.3097 63.1577 42.5305 62.937C42.7513 62.7162 43.0198 62.5476 43.3368 62.4301C43.6535 62.3131 44.0125 62.2544 44.4139 62.2544C44.7438 62.2544 45.0361 62.2985 45.2904 62.3864C45.5448 62.4743 45.751 62.5855 45.9096 62.7193C46.0681 62.8531 46.1873 62.9948 46.2677 63.144C46.3481 63.2933 46.3882 63.4261 46.3882 63.5418C46.3882 63.6668 46.3419 63.7732 46.2496 63.861C46.1568 63.9493 46.046 63.993 45.9166 63.993C45.8451 63.993 45.7766 63.9763 45.7108 63.9431C45.645 63.9096 45.5898 63.8628 45.5452 63.8028C45.4225 63.6111 45.3187 63.4659 45.2344 63.3679C45.1496 63.2699 45.0352 63.1873 44.8917 63.1202C44.7477 63.0535 44.5645 63.02 44.3415 63.02C44.1185 63.02 43.9065 63.0597 43.7259 63.1387C43.5453 63.2178 43.3907 63.3326 43.2627 63.4831C43.1346 63.6337 43.0361 63.8182 42.9681 64.0367C42.9001 64.2553 42.8661 64.4972 42.8661 64.7626C42.8661 65.3379 42.9981 65.7807 43.2627 66.0902C43.5267 66.4001 43.8955 66.5551 44.3684 66.5551C44.598 66.5551 44.814 66.5251 45.0158 66.465C45.2176 66.405 45.422 66.3189 45.6296 66.2076V65.4116H44.8599C44.6749 65.4116 44.5349 65.3838 44.4399 65.3281C44.345 65.2725 44.2977 65.1776 44.2977 65.0438C44.2977 64.9348 44.3375 64.8443 44.4165 64.7727C44.4956 64.7012 44.6033 64.6659 44.7393 64.6659H45.8667C46.0049 64.6659 46.122 64.6783 46.2178 64.7025C46.3136 64.7273 46.3913 64.782 46.4505 64.8668C46.5097 64.9515 46.5393 65.0787 46.5393 65.2482H46.5379Z" fill="#221815"/>
<path id="Vector_55" d="M44.3603 67.4144C43.9743 67.4144 43.6175 67.3539 43.2987 67.2352C42.9781 67.1151 42.7004 66.938 42.4738 66.7093C42.2473 66.4806 42.0711 66.1998 41.9501 65.8749C41.83 65.5522 41.769 65.1875 41.769 64.7901C41.769 64.3928 41.8282 64.0378 41.9448 63.7133C42.0627 63.3857 42.2385 63.1031 42.4676 62.8744C42.6964 62.6457 42.9786 62.4682 43.3058 62.3473C43.6312 62.2272 44.0039 62.1663 44.4137 62.1663C44.7524 62.1663 45.0571 62.2122 45.3194 62.3036C45.5826 62.3945 45.8003 62.512 45.9668 62.6524C46.1328 62.7928 46.2605 62.9442 46.3457 63.1031C46.4327 63.2647 46.4768 63.4131 46.4768 63.5433C46.4768 63.693 46.4208 63.8223 46.3104 63.927C46.2013 64.0307 46.0684 64.0837 45.916 64.0837C45.8308 64.0837 45.7482 64.0638 45.6701 64.0241C45.5919 63.9844 45.5261 63.9283 45.4731 63.8572C45.3495 63.6643 45.2475 63.5217 45.1662 63.4276C45.0902 63.3398 44.9847 63.2643 44.8531 63.2025C44.7215 63.1415 44.5489 63.1106 44.3404 63.1106C44.132 63.1106 43.9293 63.1482 43.7606 63.2219C43.5933 63.2952 43.448 63.4029 43.3292 63.5424C43.2095 63.6828 43.1163 63.8585 43.0519 64.0647C42.9869 64.2736 42.9538 64.5089 42.9538 64.7641C42.9538 65.3151 43.0801 65.7424 43.3287 66.0343C43.5774 66.3261 43.9169 66.4678 44.3665 66.4678C44.5864 66.4678 44.7957 66.4387 44.9882 66.3813C45.168 66.3279 45.353 66.2519 45.5385 66.1552V65.5018H44.858C44.6548 65.5018 44.5025 65.4705 44.393 65.406C44.3082 65.3561 44.2071 65.2533 44.2071 65.0453C44.2071 64.9102 44.257 64.7972 44.355 64.7084C44.4508 64.6224 44.5793 64.5786 44.7374 64.5786H45.8648C46.0101 64.5786 46.1355 64.5919 46.2379 64.6179C46.355 64.648 46.4499 64.7151 46.5214 64.8171C46.5921 64.9182 46.6261 65.0594 46.6261 65.2493V66.1892C46.6261 66.3248 46.6124 66.4316 46.585 66.5164C46.5554 66.6056 46.502 66.6864 46.4252 66.7566C46.3541 66.8215 46.2631 66.8846 46.1549 66.9433C45.8533 67.1067 45.5588 67.2272 45.2792 67.3023C44.9988 67.3773 44.6893 67.4153 44.3599 67.4153L44.3603 67.4144ZM44.4137 62.3442C44.0247 62.3442 43.6727 62.4016 43.3676 62.5142C43.0647 62.6263 42.8041 62.7897 42.5935 63.0003C42.3833 63.2104 42.2212 63.4705 42.1126 63.7733C42.0026 64.0784 41.9474 64.4206 41.9474 64.7901C41.9474 65.1597 42.0049 65.5098 42.1175 65.8126C42.2296 66.1137 42.3921 66.3729 42.6006 66.584C42.809 66.7945 43.0651 66.9575 43.3614 67.0683C43.6599 67.18 43.996 67.2365 44.3603 67.2365C44.6747 67.2365 44.9684 67.2003 45.2338 67.1292C45.5 67.0577 45.7818 66.942 46.0706 66.7857C46.166 66.7341 46.245 66.6798 46.3055 66.6246C46.3594 66.5751 46.3969 66.5199 46.4168 66.4599C46.438 66.3945 46.449 66.3032 46.449 66.1884V65.2484C46.449 65.0983 46.4247 64.987 46.3766 64.9182C46.3298 64.851 46.2702 64.8087 46.1951 64.7892C46.1072 64.7667 45.9964 64.7552 45.8661 64.7552H44.7387C44.6244 64.7552 44.5383 64.7826 44.4756 64.8396C44.4155 64.8939 44.3864 64.961 44.3864 65.0444C44.3864 65.1786 44.4424 65.2272 44.4844 65.2519C44.5648 65.2992 44.6911 65.3235 44.8593 65.3235H45.7177V66.2617L45.6709 66.2868C45.459 66.4007 45.2466 66.4899 45.0403 66.5513C44.831 66.6135 44.6049 66.6453 44.3674 66.6453C43.8697 66.6453 43.4749 66.4784 43.1941 66.1491C42.9167 65.8241 42.7763 65.3579 42.7763 64.7636C42.7763 64.4903 42.8121 64.2374 42.8823 64.0117C42.9538 63.7826 43.0585 63.5857 43.1941 63.4272C43.3305 63.2669 43.497 63.1429 43.6895 63.059C43.8807 62.9751 44.0998 62.9327 44.3409 62.9327C44.582 62.9327 44.7732 62.9694 44.9286 63.0413C45.0836 63.1133 45.2086 63.2042 45.3013 63.3115C45.3892 63.4135 45.4934 63.5592 45.6202 63.7566C45.6533 63.8007 45.6974 63.8382 45.7513 63.8656C45.8047 63.8925 45.8591 63.9058 45.9165 63.9058C46.0229 63.9058 46.1116 63.8705 46.188 63.7981C46.2627 63.727 46.2993 63.6435 46.2993 63.5433C46.2993 63.4431 46.2622 63.323 46.1894 63.1875C46.1147 63.0488 46.0013 62.9146 45.8524 62.7883C45.7032 62.6621 45.5045 62.5557 45.262 62.4718C45.0187 62.3875 44.7334 62.3446 44.4146 62.3446L44.4137 62.3442Z" fill="#221815"/>
<path id="Vector_56" d="M61.0059 67.2417H59.5072C59.2908 67.2417 59.1367 67.1932 59.0439 67.096C58.9512 66.9993 58.9053 66.8448 58.9053 66.6329V62.9472C58.9053 62.7309 58.9525 62.5755 59.0475 62.4805C59.142 62.3856 59.2956 62.3384 59.5072 62.3384H61.096C61.33 62.3384 61.5332 62.3529 61.705 62.3816C61.8767 62.4108 62.0304 62.4664 62.1664 62.549C62.2821 62.6183 62.385 62.7057 62.4742 62.8117C62.5634 62.9176 62.6314 63.0346 62.6782 63.1627C62.725 63.2907 62.7484 63.4262 62.7484 63.5689C62.7484 64.0594 62.5034 64.4183 62.0127 64.6457C62.657 64.851 62.9794 65.2501 62.9794 65.843C62.9794 66.1172 62.9092 66.3645 62.7688 66.5839C62.6283 66.8038 62.4384 66.9658 62.2 67.0704C62.0507 67.1327 61.8789 67.1768 61.6846 67.2024C61.4908 67.228 61.2643 67.2408 61.0055 67.2408L61.0059 67.2417ZM59.8989 63.0845V64.3521H60.8085C61.0563 64.3521 61.2475 64.3287 61.3822 64.2819C61.5173 64.2351 61.6202 64.1459 61.6917 64.0143C61.7474 63.9207 61.7752 63.8161 61.7752 63.7C61.7752 63.4523 61.6869 63.2881 61.5111 63.2068C61.3349 63.1256 61.066 63.0845 60.7048 63.0845H59.8984H59.8989ZM60.9326 65.0647H59.8989V66.496H60.9662C61.6374 66.496 61.973 66.2541 61.973 65.7702C61.973 65.5225 61.886 65.3433 61.712 65.2316C61.538 65.1203 61.2784 65.0642 60.9326 65.0642V65.0647Z" fill="#221815"/>
<path id="Vector_57" d="M61.0058 67.3308H59.507C59.2663 67.3308 59.0888 67.2726 58.9793 67.1578C58.8707 67.0443 58.8159 66.8677 58.8159 66.6333V62.9476C58.8159 62.7078 58.8724 62.5299 58.9842 62.4182C59.0954 62.3065 59.2716 62.25 59.507 62.25H61.0959C61.3343 62.25 61.5441 62.265 61.7194 62.2946C61.9013 62.3255 62.0674 62.3855 62.2122 62.4734C62.3358 62.5471 62.4467 62.6421 62.5421 62.7546C62.6374 62.8681 62.7116 62.9953 62.7615 63.1326C62.8119 63.2699 62.837 63.4169 62.837 63.5697C62.837 64.031 62.633 64.3878 62.2299 64.6319C62.7863 64.8655 63.068 65.2725 63.068 65.8443C63.068 66.1348 62.9925 66.4001 62.8432 66.6333C62.6935 66.8668 62.4891 67.0421 62.2352 67.1533C62.078 67.2191 61.8969 67.2655 61.696 67.2924C61.4986 67.3185 61.2659 67.3317 61.0053 67.3317L61.0058 67.3308ZM59.507 62.4279C59.3207 62.4279 59.1873 62.4668 59.11 62.544C59.0327 62.6213 58.9939 62.7568 58.9939 62.9476V66.6333C58.9939 66.8205 59.0323 66.9555 59.1083 67.035C59.1829 67.1132 59.3171 67.1529 59.507 67.1529H61.0058C61.2588 67.1529 61.4836 67.1401 61.673 67.1154C61.8585 67.0906 62.0241 67.0483 62.1654 66.9891C62.3849 66.8929 62.5633 66.7401 62.6935 66.5366C62.8242 66.3326 62.8905 66.0995 62.8905 65.8438C62.8905 65.2889 62.5946 64.9251 61.9857 64.7313L61.7675 64.6619L61.9751 64.5657C62.4356 64.3524 62.6595 64.0266 62.6595 63.5697C62.6595 63.4381 62.6379 63.3118 62.5946 63.1939C62.5513 63.0761 62.4882 62.967 62.4061 62.8694C62.3239 62.7719 62.2277 62.6897 62.1208 62.6257C61.9945 62.5493 61.8497 62.4968 61.6898 62.4699C61.5242 62.4416 61.3242 62.4275 61.0959 62.4275H59.507V62.4279ZM60.9656 66.5851H59.8095V64.9754H60.932C61.2932 64.9754 61.5714 65.0363 61.7596 65.1569C61.96 65.2853 62.0616 65.492 62.0616 65.7701C62.0616 66.1419 61.8713 66.5851 60.9656 66.5851ZM59.9875 66.4068H60.9656C61.5834 66.4068 61.8832 66.1984 61.8832 65.7701C61.8832 65.5533 61.8112 65.4015 61.6633 65.3065C61.5048 65.205 61.2588 65.1533 60.932 65.1533H59.9875V66.4068ZM60.8084 64.4412H59.8095V62.9957H60.7046C61.0826 62.9957 61.3582 63.0381 61.548 63.1259C61.7578 63.2231 61.8642 63.416 61.8642 63.6999C61.8642 63.8315 61.832 63.9524 61.768 64.0597C61.688 64.2076 61.567 64.3118 61.4111 64.3661C61.2654 64.4165 61.0685 64.4412 60.8084 64.4412ZM59.9875 64.2628H60.8084C61.0451 64.2628 61.2283 64.2407 61.3529 64.1975C61.4672 64.1577 61.5525 64.0836 61.6134 63.9714C61.6629 63.888 61.6863 63.8001 61.6863 63.6995C61.6863 63.488 61.6169 63.3533 61.4739 63.2871C61.3105 63.2116 61.0517 63.1732 60.705 63.1732H59.9879V64.2624L59.9875 64.2628Z" fill="#221815"/>
<path id="Vector_58" d="M157.068 48.6094C156.368 52.0156 155.246 60.7967 155.818 64.1009L160.201 69.5119L163.39 68.485L163.54 68.4364L166.729 67.4095L167.128 60.4576C165.667 57.4505 159.629 50.9723 157.068 48.6094Z" fill="white"/>
<path id="Vector_59" d="M160.201 70.0674C160.037 70.0674 159.877 69.9942 159.77 69.8617L155.387 64.4506C155.327 64.3769 155.287 64.289 155.271 64.1959C154.687 60.8237 155.793 52.0572 156.524 48.4982C156.564 48.3022 156.708 48.1428 156.898 48.0814C157.088 48.0201 157.298 48.066 157.445 48.202C160.119 50.6686 166.136 57.1446 167.628 60.2157C167.67 60.3009 167.689 60.3954 167.683 60.4903L167.284 67.4423C167.27 67.6714 167.118 67.8688 166.899 67.939L160.372 70.0414C160.316 70.0595 160.259 70.0683 160.202 70.0683L160.201 70.0674ZM156.343 63.8661L160.394 68.8666L166.196 66.9977L166.565 60.5733C165.208 57.9283 160.299 52.5044 157.423 49.7119C156.719 53.6545 155.899 60.9208 156.343 63.8661Z" fill="#221815"/>
<path id="Vector_60" d="M161.726 58.6753C161.954 59.383 161.565 60.1415 160.857 60.3698C160.149 60.5976 159.391 60.2091 159.162 59.5014C158.934 58.7936 159.323 58.0351 160.031 57.8069C160.739 57.579 161.497 57.9676 161.726 58.6757L161.726 58.6753Z" fill="white"/>
<path id="Vector_61" d="M160.446 60.99C159.642 60.99 158.893 60.4761 158.634 59.6713C158.312 58.673 158.863 57.5993 159.861 57.2779C160.859 56.9556 161.933 57.5066 162.255 58.5048C162.576 59.5031 162.026 60.5768 161.028 60.8982C160.835 60.9605 160.639 60.99 160.446 60.99ZM160.444 58.2969C160.364 58.2969 160.283 58.3092 160.202 58.3348C159.787 58.4686 159.558 58.9154 159.692 59.3304C159.757 59.5313 159.896 59.6956 160.084 59.7918C160.272 59.888 160.487 59.9057 160.688 59.8408C161.103 59.707 161.332 59.2602 161.198 58.8452C161.09 58.5106 160.779 58.2969 160.444 58.2969Z" fill="#221815"/>
<path id="Vector_62" d="M166.73 67.4035L160.202 69.5063L161.287 72.8715L167.814 70.7687L166.73 67.4035Z" fill="white"/>
<path id="Vector_63" d="M161.286 73.4325C161.198 73.4325 161.111 73.4122 161.032 73.3712C160.901 73.3041 160.802 73.1875 160.757 73.0471L159.672 69.682C159.578 69.3901 159.739 69.0771 160.031 68.9831L166.558 66.8806C166.699 66.8351 166.851 66.8479 166.982 66.9151C167.113 66.9822 167.212 67.0987 167.257 67.2391L168.342 70.6043C168.436 70.8961 168.275 71.2091 167.983 71.3032L161.456 73.4056C161.4 73.4237 161.343 73.4325 161.286 73.4325ZM160.9 69.8705L161.644 72.1782L167.114 70.4162L166.37 68.1084L160.9 69.8705Z" fill="#221815"/>
<path id="Vector_64" d="M160.031 58.3617C159.797 58.3617 159.579 58.2116 159.503 57.9762L156.539 48.7793C156.445 48.4874 156.605 48.1744 156.898 48.0804C157.189 47.9863 157.503 48.1466 157.597 48.4389L160.561 57.6359C160.655 57.9277 160.494 58.2407 160.202 58.3348C160.146 58.3529 160.088 58.3617 160.032 58.3617H160.031Z" fill="#221815"/>
<path id="Vector_65" d="M141.962 63.8825C142.892 63.7316 143.523 62.8557 143.372 61.9262C143.221 60.9967 142.345 60.3655 141.415 60.5164C140.486 60.6672 139.854 61.5431 140.005 62.4726C140.156 63.4021 141.032 64.0334 141.962 63.8825Z" fill="white"/>
<path id="Vector_66" d="M141.687 64.4663C140.44 64.4663 139.426 63.4522 139.426 62.2058C139.426 60.9594 140.441 59.9453 141.687 59.9453C142.933 59.9453 143.948 60.9594 143.948 62.2058C143.948 63.4522 142.933 64.4663 141.687 64.4663ZM141.687 61.0561C141.053 61.0561 140.537 61.5718 140.537 62.2058C140.537 62.8398 141.053 63.3555 141.687 63.3555C142.321 63.3555 142.837 62.8398 142.837 62.2058C142.837 61.5718 142.321 61.0561 141.687 61.0561Z" fill="#221815"/>
<path id="Vector_67" d="M141.887 60.9556C141.594 60.9556 141.349 60.7256 141.333 60.4294C141.327 60.3053 141.193 57.3521 142.633 54.0598C143.968 51.0094 146.957 47.103 153.62 45.8138C153.92 45.756 154.212 45.9524 154.27 46.2535C154.329 46.5547 154.132 46.846 153.831 46.9043C148.879 47.8624 145.46 50.4063 143.668 54.4651C142.319 57.5212 142.441 60.3446 142.443 60.3724C142.458 60.6784 142.222 60.9393 141.916 60.9547C141.906 60.9552 141.897 60.9556 141.887 60.9556Z" fill="#221815"/>
<path id="Vector_68" d="M154.077 48.5364C154.947 48.176 155.36 47.1786 155 46.3086C154.639 45.4386 153.642 45.0254 152.771 45.3858C151.901 45.7462 151.488 46.7436 151.848 47.6136C152.209 48.4836 153.207 48.8968 154.077 48.5364Z" fill="white"/>
<path id="Vector_69" d="M153.424 49.2212C152.177 49.2212 151.163 48.2071 151.163 46.9607C151.163 45.7143 152.177 44.7002 153.424 44.7002C154.67 44.7002 155.684 45.7143 155.684 46.9607C155.684 48.2071 154.67 49.2212 153.424 49.2212ZM153.424 45.811C152.789 45.811 152.274 46.3267 152.274 46.9607C152.274 47.5947 152.789 48.1104 153.424 48.1104C154.058 48.1104 154.573 47.5947 154.573 46.9607C154.573 46.3267 154.058 45.811 153.424 45.811Z" fill="#221815"/>
<path id="Vector_70" d="M44.589 121.075C44.3329 120.818 43.9169 120.818 43.6608 121.075C42.2279 122.507 40.2341 123.45 40.2138 123.459C39.8852 123.612 39.7435 124.003 39.8967 124.331C40.008 124.57 40.2447 124.71 40.492 124.71C40.5847 124.71 40.6792 124.69 40.7693 124.649C40.8589 124.607 42.9887 123.604 44.589 122.003C44.8456 121.747 44.8456 121.331 44.589 121.075V121.075Z" fill="#221815"/>
</g>
</svg>
