<svg width="193" height="133" viewBox="0 0 193 133" fill="none" xmlns="http://www.w3.org/2000/svg">
<g id="Group 34">
<path id="Vector" d="M83.9038 39.208L81.6781 38.9925C80.7231 38.9005 80.0207 38.0472 80.1135 37.0905L80.2245 35.9384C80.1642 35.697 79.5939 35.0783 79.2867 34.8868C79.2188 34.86 78.9155 34.8868 78.6781 35.0831L77.7614 35.8388C77.4045 36.1337 76.9519 36.2716 76.4878 36.2266C76.0246 36.1816 75.6065 35.9604 75.3117 35.6022L73.8898 33.8735C73.595 33.5163 73.4572 33.0633 73.5013 32.5998C73.5462 32.1353 73.7682 31.7168 74.1271 31.4218L75.0218 30.6834C75.1519 30.4718 75.1854 29.6386 75.1031 29.289C75.0735 29.2172 74.839 29.017 74.5271 28.9864L73.3472 28.8724C72.3922 28.7795 71.6898 27.9271 71.7827 26.9704L71.998 24.7428C72.0898 23.787 72.9424 23.084 73.8974 23.1769L75.0495 23.288C75.2916 23.2277 75.9088 22.6569 76.1012 22.3485C76.128 22.2805 76.1012 21.9779 75.905 21.7404L75.15 20.8219C74.8553 20.4647 74.7175 20.0117 74.7625 19.5472C74.8074 19.0837 75.0294 18.6652 75.3873 18.3702L77.1126 16.948C77.4705 16.653 77.9231 16.5151 78.3863 16.5601C78.8504 16.6052 79.2676 16.8273 79.5614 17.1855L80.2991 18.081C80.5106 18.2103 81.3441 18.2438 81.6953 18.1624C81.7651 18.1336 81.9661 17.8981 81.9957 17.5868L82.1096 16.4059C82.2015 15.4502 83.0541 14.7472 84.0091 14.8391L86.2349 15.0546C87.1908 15.1475 87.8932 15.9999 87.8013 16.9566L87.6903 18.1087C87.7506 18.3501 88.3209 18.9688 88.629 19.1622C88.696 19.1881 88.9984 19.1613 89.2367 18.9649L90.1534 18.2093C90.894 17.5992 91.9935 17.7056 92.6031 18.4468L94.0251 20.1736C94.6346 20.9158 94.5274 22.0152 93.7887 22.6262L92.893 23.3646C92.7638 23.5763 92.7294 24.4105 92.8107 24.761C92.8404 24.8318 93.0748 25.033 93.3868 25.0626L94.5657 25.1766C95.5217 25.2695 96.224 26.1219 96.1312 27.0777L95.9159 29.3053C95.8231 30.262 94.9705 30.964 94.0155 30.8721L92.8643 30.761C92.6222 30.8213 92.005 31.3921 91.8127 31.6996C91.7859 31.7675 91.8127 32.0702 92.0098 32.3087L92.7648 33.2261C93.3744 33.9674 93.2681 35.0678 92.5275 35.6779L90.8012 37.101C90.0596 37.7111 88.9611 37.6048 88.3506 36.8645L87.6118 35.9671C87.3994 35.8368 86.5679 35.8024 86.2195 35.8847C86.1478 35.9144 85.9468 36.1491 85.9172 36.4613L85.8033 37.6412C85.7114 38.5979 84.8579 39.2999 83.9019 39.208H83.9038ZM79.3882 33.4665C79.6274 33.4895 79.8523 33.5594 80.0427 33.6791C80.3259 33.8563 81.7469 34.9826 81.6446 36.0475L81.5307 37.2274C81.5144 37.3989 81.6446 37.5578 81.8158 37.5741L84.0416 37.7896C84.2139 37.8059 84.3727 37.6756 84.389 37.5042L84.5028 36.3243C84.5871 35.449 85.187 34.6637 85.8971 34.498C86.2205 34.4214 88.0118 34.2087 88.696 35.041L89.451 35.9585C89.5601 36.0916 89.7649 36.1107 89.8979 36.0016L91.6232 34.5784C91.7562 34.4692 91.7754 34.2643 91.6663 34.1312L90.9113 33.2146C90.3524 32.5366 90.2213 31.5607 90.606 30.9449C90.784 30.6604 91.9103 29.2382 92.9734 29.3407L94.1533 29.4547C94.3246 29.471 94.4844 29.3407 94.5006 29.1693L94.7159 26.9417C94.7322 26.7702 94.6011 26.6122 94.4298 26.595L93.2509 26.481C92.3763 26.3967 91.5916 25.7963 91.4251 25.0856C91.3495 24.76 91.1381 22.9662 91.9677 22.2824L92.8844 21.5268C93.0165 21.4176 93.0366 21.2117 92.9265 21.0786L91.5055 19.3528C91.3964 19.2206 91.1926 19.2005 91.0596 19.3097L90.1429 20.0653C89.4654 20.6237 88.4903 20.7549 87.875 20.3699C87.5908 20.1918 86.1698 19.0626 86.2722 18.0005L86.386 16.8197C86.4023 16.6482 86.2712 16.4893 86.099 16.473L83.8732 16.2575C83.7019 16.2412 83.544 16.3715 83.5268 16.5429L83.4129 17.7237C83.3287 18.5972 82.7297 19.3825 82.0206 19.5491C81.6943 19.6258 79.9011 19.8365 79.2188 19.008L78.4628 18.0896C78.3911 18.0024 78.2982 17.9814 78.2494 17.9766C78.1997 17.9718 78.105 17.9747 78.0179 18.0465L76.2916 19.4696C76.2045 19.5415 76.1835 19.6353 76.1787 19.6851C76.1739 19.734 76.1768 19.8297 76.2485 19.9169L77.0035 20.8353C77.5624 21.5134 77.6935 22.4893 77.3078 23.1051C77.1308 23.3886 76.0045 24.8117 74.9414 24.7093L73.7615 24.5953C73.5903 24.579 73.4324 24.7093 73.4151 24.8807L73.1998 27.1083C73.1836 27.2797 73.3137 27.4387 73.485 27.455L74.6649 27.569C75.5385 27.6532 76.3232 28.2528 76.4897 28.9634C76.5662 29.288 76.7787 31.0818 75.9471 31.7666L75.0323 32.5222C74.9443 32.595 74.9232 32.6879 74.9184 32.7367C74.9137 32.7856 74.9165 32.8814 74.9883 32.9676L76.4112 34.6962C76.483 34.7824 76.5758 34.8035 76.6256 34.8083C76.6753 34.8131 76.7701 34.8102 76.8571 34.7384L77.7748 33.9827C78.2437 33.5958 78.8533 33.4148 79.3882 33.4665ZM83.4876 31.9007C80.7996 31.6402 78.8236 29.2411 79.0829 26.5519C79.2083 25.2484 79.8341 24.0724 80.8436 23.2401C81.147 22.9902 81.5958 23.0333 81.8455 23.3369C82.0953 23.6405 82.0522 24.0896 81.7489 24.3396C81.0331 24.9305 80.5891 25.7646 80.5001 26.6888C80.3154 28.5966 81.7173 30.2984 83.6244 30.4823C85.5306 30.6671 87.231 29.2651 87.4157 27.3573C87.6004 25.4486 86.1994 23.7458 84.2933 23.5619C83.9019 23.5236 83.6158 23.176 83.6531 22.7843C83.6914 22.3926 84.0387 22.1062 84.4301 22.1436C87.1171 22.4031 89.0922 24.8041 88.8329 27.4943C88.5735 30.1835 86.1755 32.1602 83.4885 31.8997L83.4876 31.9007Z" fill="#221815"/>
<path id="Vector_2" d="M68.7123 47.3072L69.1371 46.7853C69.1754 46.7383 69.1955 46.6761 69.2012 46.6368C69.1084 46.5181 68.8989 46.3179 68.7821 46.2566L68.1793 46.3179C67.5228 46.3849 66.9334 45.9042 66.8664 45.2472L66.7372 43.984C66.6702 43.327 67.1496 42.738 67.807 42.67L68.4778 42.601C68.5362 42.5953 68.5927 42.5675 68.6242 42.5445C68.6424 42.3913 68.6357 42.1002 68.5965 41.9737L68.1295 41.5935C67.8817 41.3915 67.7266 41.1041 67.6941 40.7852C67.6616 40.4663 67.7544 40.1541 67.9563 39.9061L68.7582 38.9215C69.1754 38.4092 69.9314 38.3316 70.4433 38.7501L70.9648 39.1744C71.0127 39.2127 71.0739 39.2337 71.1131 39.2385C71.2328 39.1447 71.4318 38.9349 71.493 38.8181L71.4318 38.2157C71.3658 37.5587 71.8452 36.9697 72.5016 36.9017L73.7638 36.7724C74.0815 36.7399 74.3934 36.8337 74.6413 37.0358C74.8901 37.2379 75.0441 37.5252 75.0767 37.8422L75.1456 38.5136C75.1513 38.572 75.181 38.6304 75.202 38.6601C75.3551 38.6783 75.646 38.6716 75.7723 38.6323L76.1522 38.1649C76.5694 37.6526 77.3254 37.575 77.8383 37.9926L78.822 38.7942C79.0699 38.9962 79.2239 39.2826 79.2564 39.6025C79.289 39.9214 79.1962 40.2336 78.9943 40.4816L78.5694 41.0036C78.5311 41.0505 78.511 41.1128 78.5053 41.152C78.5991 41.2717 78.8086 41.4709 78.9254 41.5332L79.5263 41.4719C79.844 41.4393 80.1559 41.5322 80.4047 41.7353C80.6535 41.9383 80.8086 42.2247 80.8411 42.5426L80.9703 43.8058C81.0028 44.1238 80.909 44.436 80.7071 44.685C80.5043 44.934 80.2181 45.0882 79.9004 45.1208L79.2297 45.1897C79.1713 45.1955 79.1148 45.2232 79.0832 45.2462C79.0651 45.3995 79.0718 45.6906 79.111 45.817L79.578 46.1972C80.0909 46.6148 80.1674 47.3714 79.7502 47.8838L78.9493 48.8683C78.7474 49.1163 78.4613 49.2705 78.1426 49.3031C77.824 49.3356 77.512 49.2427 77.2642 49.0407L76.7426 48.6154C76.6948 48.5771 76.6336 48.557 76.5943 48.5513C76.4757 48.6442 76.2757 48.8539 76.2144 48.9717L76.2757 49.5741C76.3082 49.8921 76.2154 50.2043 76.0125 50.4533C75.8097 50.7023 75.5235 50.8565 75.2068 50.889L73.9446 51.0183C73.627 51.0509 73.315 50.957 73.0672 50.755C72.8193 50.5519 72.6643 50.2656 72.6318 49.9486L72.5629 49.2772C72.5571 49.2188 72.5284 49.1623 72.5064 49.1307C72.3533 49.1125 72.0624 49.1192 71.9361 49.1585L71.5562 49.6258C71.139 50.1382 70.383 50.2158 69.8711 49.7982L68.8874 48.9966C68.7946 48.9209 68.7161 48.8347 68.6529 48.7409C68.3639 48.3138 68.3735 47.7296 68.7151 47.3091L68.7123 47.3072ZM71.027 48.3253C71.5399 47.6941 72.8145 47.9345 72.826 47.9364C73.3207 48.0466 73.7236 48.557 73.7829 49.1489L73.849 49.7896L75.0508 49.666L74.9858 49.0263C74.9035 48.2247 75.9714 47.4853 75.9819 47.4786C76.4116 47.2086 77.0584 47.2842 77.5177 47.6596L78.0163 48.0657L78.779 47.1281L78.2814 46.7221C77.6508 46.2078 77.8909 44.9331 77.8938 44.9206C78.0048 44.4264 78.5139 44.0232 79.1053 43.9629L79.7454 43.8968L79.6229 42.6949L78.9818 42.76C78.1704 42.8424 77.445 41.7726 77.4364 41.7621C77.1666 41.3311 77.2431 40.6847 77.6173 40.225L78.023 39.726L77.0862 38.9618L76.6804 39.4598C76.1675 40.0899 74.8929 39.8515 74.8805 39.8486C74.3867 39.7375 73.9839 39.227 73.9236 38.6361L73.8576 37.9954L72.6557 38.118L72.7208 38.7587C72.804 39.5718 71.7361 40.2987 71.7246 40.3054C71.294 40.5755 70.6481 40.4998 70.1869 40.1244L69.6893 39.7183L68.9266 40.6559L69.4252 41.062C70.0567 41.5753 69.8156 42.851 69.8137 42.8635C69.7027 43.3586 69.1936 43.7618 68.6013 43.8212L67.9611 43.8863L68.0836 45.0892L68.7237 45.024C69.5266 44.9417 70.2653 46.0114 70.2692 46.0201C70.54 46.4501 70.4634 47.0975 70.0883 47.5591L69.6826 48.0571L70.6194 48.8213L71.0251 48.3233L71.027 48.3253ZM70.8806 44.1985C70.7993 43.4036 71.0318 42.625 71.5361 42.0054C72.0404 41.3857 72.7552 40.9998 73.5494 40.9184C74.3437 40.8369 75.1226 41.0697 75.7408 41.5744C76.1905 41.9412 76.5226 42.4267 76.6986 42.9784C76.802 43.3021 76.624 43.6478 76.3015 43.7512C75.979 43.8547 75.6336 43.6765 75.5293 43.3538C75.425 43.0291 75.2298 42.7437 74.9647 42.5273C74.6001 42.2304 74.1418 42.0935 73.6738 42.1413C73.2059 42.1892 72.7849 42.4172 72.4873 42.782C72.1906 43.1469 72.0538 43.6057 72.1016 44.074C72.1495 44.5423 72.3763 44.9637 72.7409 45.2606C73.1054 45.5575 73.5648 45.6954 74.0317 45.6475C74.4997 45.5996 74.9207 45.3726 75.2173 45.0078C75.4317 44.7444 75.8183 44.7051 76.0814 44.9196C76.3436 45.1342 76.3838 45.5211 76.1695 45.7845C75.6652 46.4041 74.9504 46.79 74.1561 46.8705C73.3619 46.9519 72.5839 46.7182 71.9648 46.2135C71.7351 46.0258 71.5371 45.8094 71.3753 45.5699C71.1017 45.1658 70.9304 44.6975 70.8797 44.1985H70.8806Z" fill="#221815"/>
<path id="Vector_3" d="M38.2255 56.0117H36.0074C35.5892 56.0117 35.2505 55.6726 35.2505 55.2541C35.2505 54.8356 35.5892 54.4966 36.0074 54.4966H38.2255C38.6437 54.4966 38.9824 54.8356 38.9824 55.2541C38.9824 55.6726 38.6437 56.0117 38.2255 56.0117Z" fill="#221815"/>
<path id="Vector_4" d="M27.2758 56.0117H23.2099C19.5507 56.0117 16.5747 53.0323 16.5747 49.3709C16.5747 46.4442 18.5249 43.8574 21.2837 43.0185C21.61 40.5648 23.0214 38.3679 25.1343 37.0635C25.4902 36.8442 25.9572 36.9543 26.1763 37.3106C26.3955 37.6668 26.2854 38.1342 25.9295 38.3535C24.075 39.498 22.8827 41.4842 22.7401 43.6688C22.7181 44.0078 22.4731 44.2903 22.142 44.3602C19.7937 44.8592 18.0885 46.9661 18.0885 49.37C18.0885 52.1962 20.3861 54.4956 23.2099 54.4956H27.2758C27.694 54.4956 28.0327 54.8347 28.0327 55.2532C28.0327 55.6717 27.694 56.0107 27.2758 56.0107V56.0117Z" fill="#221815"/>
<path id="Vector_5" d="M48.8287 56.0115H46.958C46.5398 56.0115 46.2011 55.6725 46.2011 55.254C46.2011 54.8355 46.5398 54.4964 46.958 54.4964H48.8287C52.5157 54.4964 55.5156 51.494 55.5156 47.804C55.5156 44.114 52.5157 41.1115 48.8287 41.1115C48.7282 41.1115 48.6153 41.1269 48.4852 41.1441C48.3933 41.1566 48.3015 41.169 48.2086 41.1776C48.0067 41.1958 47.8048 41.1336 47.6498 41.0024C47.4948 40.8712 47.3981 40.6834 47.3828 40.4814C47.0651 36.323 43.5724 33.0659 39.4309 33.0659C36.4846 33.0659 33.7823 34.7093 32.3795 37.3545C32.2072 37.6791 31.8273 37.8333 31.479 37.7203C30.7364 37.4809 30.0656 37.365 29.4303 37.365C29.0121 37.365 28.6733 37.026 28.6733 36.6075C28.6733 36.1889 29.0121 35.8499 29.4303 35.8499C30.0475 35.8499 30.679 35.9342 31.3498 36.1056C33.0856 33.2804 36.1286 31.5498 39.4319 31.5498C44.1016 31.5498 48.0785 35.0263 48.8038 39.5965C53.3281 39.5859 57.0304 43.2702 57.0304 47.804C57.0304 52.3378 53.3511 56.0115 48.8297 56.0115H48.8287Z" fill="#221815"/>
<path id="Vector_6" d="M45.3087 57.4979V51.0066C45.3087 50.7806 45.1259 50.5977 44.9001 50.5977H40.2103C39.9844 50.5977 39.8017 50.7806 39.8017 51.0066V57.4979C39.8017 57.7239 39.6189 57.9069 39.3931 57.9069H38.0993C37.7357 57.9069 37.5529 58.3474 37.8103 58.605L42.2657 63.0641C42.4255 63.2241 42.6839 63.2241 42.8437 63.0641L47.2991 58.605C47.5565 58.3474 47.3737 57.9069 47.0101 57.9069H45.7163C45.4905 57.9069 45.3077 57.7239 45.3077 57.4979H45.3087Z" fill="#221815"/>
<path id="Vector_7" d="M36.5896 50.5412L32.1342 46.0821C31.9744 45.9222 31.716 45.9222 31.5562 46.0821L27.1009 50.5412C26.8435 50.7988 27.0262 51.2394 27.3899 51.2394H28.6836C28.9094 51.2394 29.0922 51.4223 29.0922 51.6483V58.1396C29.0922 58.3657 29.275 58.5486 29.5008 58.5486H34.1916C34.4174 58.5486 34.6002 58.3657 34.6002 58.1396V51.6483C34.6002 51.4223 34.7829 51.2394 35.0088 51.2394H36.3025C36.6661 51.2394 36.8489 50.7988 36.5915 50.5412H36.5896Z" fill="#221815"/>
<path id="Vector_8" d="M87.2857 83.8371C87.1212 83.8371 86.9546 83.7835 86.8159 83.6724C86.4886 83.4119 86.4331 82.9359 86.6934 82.6074C87.3747 81.7484 87.7345 80.7236 87.7345 79.6443C87.7345 79.0687 87.6312 78.5046 87.4274 77.9674C87.3011 77.6341 87.4235 77.2567 87.7221 77.0623C89.1354 76.142 89.9794 74.6211 89.9794 72.994C89.9794 70.2789 87.6609 68.0695 84.8102 68.0695C84.77 68.0695 84.7308 68.0714 84.6916 68.0723L84.6428 68.0743C84.437 68.08 84.2418 68.0043 84.0954 67.8636C83.949 67.7228 83.8648 67.5284 83.8629 67.3244C83.8361 64.6351 81.5175 62.4477 78.6946 62.4477C77.2028 62.4477 75.7837 63.0635 74.8 64.1362C74.6354 64.3153 74.3952 64.4043 74.1522 64.3766C73.9101 64.3478 73.6967 64.2042 73.579 63.9906C72.6804 62.3663 70.9274 61.3569 69.003 61.3569C66.8251 61.3569 64.8682 62.6699 64.1343 64.6236C63.9907 65.0067 63.5697 65.2059 63.1822 65.0747C62.6233 64.8841 62.0386 64.7884 61.4434 64.7884C61.0253 64.7884 60.6865 64.4493 60.6865 64.0308C60.6865 63.6123 61.0262 63.2733 61.4434 63.2733C61.9707 63.2733 62.4913 63.3327 63.0003 63.4495C64.1123 61.2669 66.4414 59.8428 69.003 59.8428C71.1465 59.8428 73.1302 60.8244 74.3799 62.4564C75.5789 61.4795 77.1061 60.9326 78.6946 60.9326C82.0859 60.9326 84.9145 63.4026 85.326 66.5735C88.7709 66.8283 91.4933 69.6104 91.4933 72.994C91.4933 74.9439 90.5804 76.7721 89.0264 77.9903C89.1737 78.5276 89.2493 79.0812 89.2493 79.6433C89.2493 81.0684 88.7756 82.4188 87.88 83.5489C87.7307 83.7375 87.5097 83.8352 87.2867 83.8352L87.2857 83.8371Z" fill="#221815"/>
<path id="Vector_9" d="M80.342 91.8944H77.6617C77.4426 91.8944 77.233 91.7986 77.0895 91.6329C76.9459 91.4672 76.8809 91.2469 76.9124 91.0286L77.3402 88.0386C76.5526 88.3451 75.7087 88.5041 74.8427 88.5041C73.2226 88.5041 71.66 87.9323 70.4495 86.9162C69.2237 87.9965 67.6189 88.6037 65.9415 88.6037C62.9215 88.6037 60.3244 86.6796 59.5158 83.9387C59.4326 83.9416 59.3503 83.9435 59.268 83.9435C55.582 83.9435 52.584 81.0541 52.584 77.5039C52.584 75.4419 53.6184 73.5093 55.3255 72.3045C54.9542 71.4904 54.76 70.6074 54.76 69.712C54.76 67.5916 55.8432 65.6072 57.6585 64.4044C58.0068 64.1726 58.4776 64.2684 58.7082 64.617C58.9388 64.9656 58.8441 65.4358 58.4958 65.6676C57.1054 66.5898 56.2757 68.1021 56.2757 69.712C56.2757 70.5777 56.5159 71.431 56.9714 72.1781C57.0786 72.3543 57.1102 72.5678 57.0566 72.768C57.003 72.9682 56.8709 73.1377 56.6891 73.2373C55.0911 74.1165 54.0988 75.7513 54.0988 77.5039C54.0988 80.219 56.4174 82.4284 59.268 82.4284C59.5072 82.4284 59.7531 82.4111 60 82.3776C60.4029 82.323 60.7761 82.596 60.8469 82.9953C61.2708 85.3666 63.4133 87.0876 65.9415 87.0876C67.4553 87.0876 68.8878 86.4565 69.8734 85.3571C70.015 85.199 70.216 85.108 70.4284 85.1052C70.6409 85.109 70.8437 85.1895 70.9892 85.3436C71.97 86.3885 73.3748 86.9871 74.8436 86.9871C75.9383 86.9871 76.9852 86.6634 77.8713 86.0514C78.1191 85.88 78.4445 85.8723 78.6999 86.0313C78.9554 86.1893 79.0932 86.4852 79.0511 86.7831L78.5373 90.3773H79.8109C80.4186 88.8862 81.8635 86.6461 83.1046 84.792C83.2175 84.6234 83.3926 84.5076 83.5917 84.4693C84.0883 84.3744 84.5658 84.2097 85.0117 83.9818C85.3849 83.7912 85.8404 83.9387 86.0308 84.3112C86.2213 84.6838 86.0749 85.1406 85.7017 85.3312C85.2232 85.5764 84.717 85.7641 84.1926 85.8905C83.3544 87.147 81.4501 90.0431 81.0712 91.3475C80.9774 91.6712 80.6808 91.8934 80.3439 91.8934L80.342 91.8944Z" fill="#221815"/>
<path id="Vector_10" d="M70.4247 78.4789H66.4449L65.8918 80.3531H62.313L66.576 69.0005H70.3989L74.661 80.3531H70.9902L70.4228 78.4789H70.4247ZM69.6975 76.0243L68.4458 71.9435L67.2066 76.0243H69.6975Z" fill="#221815"/>
<path id="Vector_11" d="M75.9155 69.0005H79.4283V80.3531H75.9155V69.0005Z" fill="#221815"/>
<path id="Vector_12" d="M131.105 4.12892C131.105 4.12892 122.913 -2.51086 112.879 2.16083C110 3.50066 107.56 5.62581 105.713 8.21066C104.492 9.92016 103.943 11.8624 101.793 13.2673C101.793 13.2673 93.1 19.8506 103.883 27.0037L116.753 34.8665L132.908 39.3677L138.008 37.5653L140.702 30.0148C142.433 22.695 149.256 9.12144 131.105 4.12892Z" fill="#FFD44A"/>
<path id="Vector_13" d="M22.9814 123.535L23.1326 126.372L68.7112 127.913L70.6231 127.098L73.3149 125.548L86.6609 117.866L50.4581 113.908L22.9814 123.535Z" fill="#DADBDB"/>
<path id="Vector_14" d="M67.3368 128.644C67.2612 128.644 67.1856 128.643 67.1091 128.64L31.1427 127.425C30.7121 127.41 30.3752 127.049 30.3896 126.618C30.404 126.187 30.7657 125.847 31.1953 125.865L67.1617 127.08C68.0593 127.111 68.955 126.907 69.7511 126.492L74.9184 123.8C75.3002 123.601 75.771 123.749 75.9701 124.131C76.1691 124.513 76.0208 124.986 75.638 125.184L70.4698 127.876C69.5033 128.38 68.4239 128.643 67.3349 128.643L67.3368 128.644Z" fill="#251E1C"/>
<path id="Vector_15" d="M27.7898 127.311C27.7811 127.311 27.7716 127.311 27.763 127.311L23.1076 127.154C22.7038 127.14 22.3765 126.82 22.3555 126.415L22.2052 123.578C22.1823 123.148 22.5124 122.78 22.943 122.757C23.3755 122.738 23.7401 123.064 23.7631 123.495L23.876 125.619L27.8175 125.752C28.2481 125.766 28.5849 126.127 28.5706 126.558C28.5562 126.979 28.2098 127.313 27.7917 127.313L27.7898 127.311Z" fill="#251E1C"/>
<path id="Vector_16" d="M2.98096 72.6623L4.57708 72.4669L5.81245 72.3156L24.8789 69.9826C26.2453 69.815 27.5611 70.5611 28.1199 71.8204L47.4744 115.708L25.0683 122.172C23.5315 122.615 21.9019 121.863 21.2426 120.404L1.21833 75.8016C0.596339 74.4273 1.48531 72.8442 2.98096 72.6613V72.6623Z" fill="#DADBDB"/>
<path id="Vector_17" d="M24.1909 123.077C22.6532 123.077 21.191 122.181 20.5327 120.727L0.507427 76.1225C0.108396 75.2405 0.151456 74.2492 0.626083 73.4036C1.10071 72.5579 1.92461 72.0053 2.88726 71.8885C3.31309 71.8358 3.70351 72.1404 3.75614 72.5685C3.80877 72.9966 3.50447 73.3854 3.07673 73.4381C2.61263 73.4946 2.21551 73.7608 1.98681 74.1688C1.75811 74.5768 1.73706 75.0547 1.93035 75.4808L21.9556 120.085C22.4513 121.181 23.6972 121.756 24.8541 121.423L35.1782 118.444C35.5925 118.325 36.0241 118.564 36.1437 118.978C36.2633 119.392 36.0241 119.825 35.6107 119.944L25.2866 122.923C24.9239 123.027 24.5565 123.077 24.1928 123.077H24.1909Z" fill="#251E1C"/>
<path id="Vector_18" d="M43.7746 108.154C43.4751 108.154 43.189 107.98 43.0608 107.687L27.4076 72.1355C26.9856 71.1854 26.0086 70.6309 24.9742 70.7573L7.44364 72.9026C7.01686 72.9553 6.6274 72.6507 6.57477 72.2226C6.52214 71.7945 6.82643 71.4057 7.25417 71.353L24.7848 69.2078C26.5024 68.999 28.1301 69.9203 28.8334 71.5034L44.4875 107.057C44.6617 107.452 44.4827 107.913 44.0885 108.086C43.9861 108.131 43.8799 108.152 43.7746 108.152V108.154Z" fill="#251E1C"/>
<path id="Vector_19" d="M79.6406 106.553L71.769 102.614C70.0256 101.741 67.9854 101.691 66.2017 102.477L57.9513 106.11C57.9513 106.11 45.1143 114.527 63.7052 115.413H86.2796L91.5914 109.654L79.6396 106.553H79.6406Z" fill="white"/>
<path id="Vector_20" d="M81.4114 107.777C81.3492 107.777 81.2851 107.769 81.2219 107.753L79.4517 107.31C79.3962 107.296 79.3426 107.276 79.2919 107.25L71.4203 103.311C69.8797 102.54 68.0922 102.497 66.5162 103.19L58.2657 106.824C57.8714 106.997 57.4112 106.818 57.238 106.424C57.0648 106.029 57.2437 105.568 57.638 105.395L65.8884 101.762C67.8912 100.88 70.162 100.935 72.1189 101.915L79.9138 105.816L81.6018 106.238C82.02 106.342 82.2736 106.767 82.1693 107.184C82.0803 107.538 81.7626 107.776 81.4133 107.776L81.4114 107.777Z" fill="#251E1C"/>
<path id="Vector_21" d="M75.3619 112.016L63.5584 108.177L50.7214 108.472L49.0985 110.244L45.7053 113.492C45.7053 113.492 42.0758 115.402 40.8366 116.15C39.5926 116.901 39.9887 118.09 41.4327 118.251L43.7877 118.513C41.427 121.466 47.9187 120.284 47.9187 120.284L53.2305 118.808L57.9519 119.693C64.4435 121.761 73.8873 120.875 73.8873 120.875L89.527 121.466L92.7728 112.015H75.3619V112.016Z" fill="white"/>
<path id="Vector_22" d="M69.0499 121.851C65.7438 121.851 61.3515 121.588 57.7603 120.454L53.2628 119.61L48.1251 121.038C48.1022 121.045 48.0792 121.05 48.0563 121.054C46.7166 121.299 43.5119 121.716 42.6861 120.33C42.4765 119.979 42.4315 119.589 42.5483 119.162L41.3445 119.028C40.289 118.911 39.5244 118.337 39.3474 117.531C39.178 116.761 39.5838 115.995 40.4316 115.483C41.577 114.792 44.6449 113.17 45.2439 112.854L48.5586 109.682C48.8696 109.384 49.3634 109.394 49.661 109.707C49.9586 110.018 49.9481 110.512 49.6361 110.81L46.2419 114.058C46.1893 114.108 46.13 114.151 46.0659 114.185C46.0295 114.204 42.4421 116.092 41.2364 116.82C40.9349 117.002 40.8632 117.167 40.8699 117.197C40.8823 117.251 41.0641 117.427 41.5158 117.477L43.8707 117.74C44.153 117.771 44.3961 117.954 44.5052 118.217C44.6142 118.479 44.5712 118.781 44.3932 119.003C44.1607 119.294 44.0841 119.468 44.0592 119.55C44.4765 119.809 46.1941 119.803 47.7414 119.526L53.0188 118.059C53.1336 118.027 53.2542 118.021 53.3709 118.043L58.0923 118.929C58.1239 118.935 58.1545 118.943 58.1851 118.952C64.4472 120.946 73.7186 120.109 73.8115 120.1C74.2392 120.059 74.6201 120.375 74.6602 120.805C74.7004 121.234 74.3856 121.615 73.9569 121.655C73.7799 121.671 71.7857 121.852 69.048 121.852L69.0499 121.851Z" fill="#251E1C"/>
<path id="Vector_23" d="M75.3619 112.798C75.2815 112.798 75.2012 112.785 75.1208 112.76L63.4436 108.961L50.7397 109.253C50.311 109.26 49.9521 108.922 49.9426 108.491C49.933 108.06 50.2737 107.703 50.7043 107.693L63.5412 107.398C63.6283 107.395 63.7163 107.409 63.8005 107.437L75.604 111.276C76.0136 111.409 76.2375 111.85 76.1045 112.26C75.9973 112.589 75.6921 112.799 75.3629 112.799L75.3619 112.798Z" fill="#251E1C"/>
<path id="Vector_24" d="M43.7874 119.295C43.4926 119.295 43.2113 119.127 43.0793 118.842C42.8984 118.451 43.0678 117.987 43.4592 117.806L49.5087 115C49.5652 114.973 49.6255 114.954 49.6867 114.942L56.4741 113.613C56.897 113.531 57.3066 113.806 57.3889 114.229C57.4712 114.652 57.1956 115.062 56.7736 115.144L50.0791 116.455L44.1156 119.221C44.0094 119.27 43.8984 119.294 43.7883 119.294L43.7874 119.295Z" fill="#251E1C"/>
<path id="Vector_25" d="M45.7049 114.275C45.39 114.275 45.0934 114.082 44.9747 113.77C44.8226 113.367 45.0264 112.917 45.4293 112.764C50.4215 110.879 56.9486 110.634 57.2241 110.624C57.6567 110.603 58.0155 110.947 58.0299 111.377C58.0452 111.808 57.7083 112.169 57.2777 112.184C57.2127 112.186 50.7277 112.431 45.9805 114.225C45.8895 114.259 45.7967 114.276 45.7049 114.276V114.275Z" fill="#251E1C"/>
<path id="Vector_26" d="M92.9205 110.54L79.1984 110.761C79.1984 110.761 75.4358 115.191 78.5343 123.386L86.8709 124.42L92.9205 110.539V110.54Z" fill="white"/>
<path id="Vector_27" d="M86.8711 125.202C86.8395 125.202 86.807 125.2 86.7744 125.196L78.4378 124.163C78.1508 124.128 77.9068 123.936 77.8044 123.665C74.5796 115.137 78.4379 110.452 78.6034 110.257C78.7488 110.086 78.9603 109.986 79.1852 109.982L92.9073 109.761C93.1743 109.763 93.4221 109.887 93.5685 110.109C93.7159 110.33 93.7407 110.61 93.6345 110.854L87.5849 124.735C87.4596 125.022 87.1773 125.203 86.8701 125.203L86.8711 125.202ZM79.1029 122.672L86.3888 123.575L91.7207 111.34L79.5948 111.536C78.9125 112.544 76.858 116.324 79.1019 122.671L79.1029 122.672Z" fill="#251E1C"/>
<path id="Vector_28" d="M112.304 53.2389C112.661 53.0005 112.772 52.5216 112.551 52.1481L110.99 49.5125C110.972 49.4818 110.952 49.4522 110.93 49.4244L109.713 47.8758L109.468 46.4593C109.435 46.2678 109.334 46.0944 109.184 45.9699L107.842 44.8609C107.495 44.5746 106.982 44.6253 106.697 44.9701C106.411 45.3168 106.461 45.8292 106.806 46.1155L107.916 47.033L108.144 48.3556C108.167 48.4887 108.223 48.6142 108.306 48.7195L109.616 50.3878L111.149 52.9775C111.378 53.3644 111.876 53.4918 112.263 53.2629C112.275 53.2552 112.288 53.2475 112.301 53.2389H112.304Z" fill="#251E1C"/>
<path id="Vector_29" d="M112.147 53.1858C111.929 52.2319 111.514 51.3345 110.98 50.5147L110.614 49.9554C110.377 49.5925 109.887 49.0992 109.549 48.8282C108.925 48.3273 108.661 47.6062 108.549 47.0689C108.46 46.6418 108.258 46.2414 107.93 45.9532C107.071 45.1975 107.06 44.3471 107.06 44.3471C106.981 42.265 105.627 42.3675 105.065 42.5006C104.86 42.5495 104.645 42.5993 104.439 42.5572C103.671 42.401 103.397 41.9835 103.182 41.3399C103.008 40.817 103.048 39.9656 103.258 39.4551C105.605 33.7482 104.183 32.3815 104.392 32.4534L103.01 25.6297C101.707 18.8013 103.064 16.385 105.929 15.998C106.692 15.8946 105.162 15.9406 105.929 15.998C107.472 16.113 111.059 19.5186 113.965 20.55C117.007 21.6303 119.336 20.3345 119.336 20.3345C121.331 21.4014 122.313 22.7441 123.284 24.7888L124.527 28.317C124.801 28.792 125.408 29.3427 125.783 28.9434L127.832 27.2262L133.353 29.1972L139.825 35.676L143.772 39.0711L127.659 60.4251C126.728 60.2144 124.144 50.9486 123.679 51.1459L117.015 54.1674C113.389 55.7773 112.403 54.3092 112.145 53.1848L112.147 53.1858Z" fill="white"/>
<path id="Vector_30" d="M127.093 27.5264C127.093 27.5264 126.958 27.1931 127.417 25.8341C127.674 25.0727 128.193 24.432 128.839 23.9541C129.91 23.1612 131.923 22.2092 133.69 23.8651C134.23 24.3717 134.938 25.7546 135.156 26.4633C135.762 28.4391 136.141 32.4576 132.46 36.6399L127.093 27.5273V27.5264Z" fill="white"/>
<path id="Vector_31" d="M131.932 37.2397C131.601 36.9476 131.568 36.4419 131.86 36.1105C135.488 31.9895 134.839 28.1549 134.392 26.6982C134.193 26.0508 133.539 24.8201 133.144 24.4495C131.75 23.1422 130.146 23.9812 129.316 24.597C128.761 25.0078 128.366 25.525 128.175 26.091C127.891 26.9299 127.873 27.2757 127.873 27.3542C127.957 27.7287 127.76 28.1194 127.393 28.2679C126.984 28.4336 126.518 28.2363 126.352 27.8264C126.186 27.4165 126.287 26.6809 126.66 25.5777C126.957 24.7004 127.546 23.917 128.363 23.3108C130.427 21.7794 132.624 21.7689 134.236 23.2811C134.913 23.9161 135.673 25.4254 135.919 26.228C136.445 27.9423 137.221 32.4406 133.059 37.1678C133.008 37.2253 132.952 37.2732 132.891 37.3124C132.598 37.5002 132.204 37.481 131.931 37.2387L131.932 37.2397Z" fill="#251E1C"/>
<path id="Vector_32" d="M102.391 40.2096C102.403 40.1761 102.416 40.1435 102.432 40.1119C102.799 39.3716 103.442 37.4811 104.198 34.925C104.322 34.5064 104.763 34.2661 105.182 34.3896C105.6 34.5131 105.84 34.9547 105.716 35.3741C105.271 36.8796 104.443 39.5756 103.889 40.7392C103.87 40.8359 103.846 41.0591 103.973 41.265C104.146 41.5456 104.565 41.7515 105.186 41.8616L106.602 42.17C107.028 42.2629 107.299 42.6862 107.206 43.1134C107.161 43.3202 107.038 43.4964 106.86 43.6114C106.682 43.7253 106.47 43.7636 106.264 43.7186L104.897 43.4198C103.792 43.2216 103.021 42.7647 102.606 42.0627C102.088 41.1884 102.361 40.3073 102.394 40.2096H102.391Z" fill="#251E1C"/>
<path id="Vector_33" d="M112.092 53.0685C112.447 52.8406 112.566 52.3722 112.355 52.0007L110.871 49.3804C110.854 49.3497 110.835 49.321 110.814 49.2923L109.647 47.7465L109.433 46.3492C109.404 46.1606 109.309 45.9882 109.163 45.8637L107.865 44.7489C107.53 44.4606 107.025 44.5009 106.737 44.8351C106.45 45.1703 106.489 45.675 106.824 45.9633L107.897 46.8855L108.097 48.1899C108.117 48.3211 108.17 48.4456 108.249 48.551L109.506 50.2155L110.964 52.7898C111.182 53.1738 111.669 53.3089 112.054 53.0905C112.066 53.0829 112.08 53.0752 112.092 53.0675V53.0685Z" fill="#251E1C"/>
<path id="Vector_34" d="M130.572 33.1436C130.831 32.9769 130.981 32.6666 130.93 32.3429C130.245 28.0764 131.02 27.246 131.182 27.1234C131.381 26.975 131.666 27.1033 131.678 27.1091C132.07 27.3111 132.546 27.1522 132.748 26.7595C132.95 26.3668 132.788 25.8813 132.395 25.6792C131.971 25.4618 131.042 25.2502 130.25 25.8238C129.053 26.6934 128.76 28.9096 129.353 32.5967C129.423 33.0325 129.833 33.3294 130.268 33.2595C130.38 33.2413 130.483 33.201 130.573 33.1436H130.572Z" fill="#251E1C"/>
<path id="Vector_35" d="M110.679 31.8831C110.674 32.5382 110.194 33.0075 109.607 32.9318C109.021 32.8561 108.549 32.2643 108.554 31.6102C108.559 30.9551 109.039 30.4858 109.625 30.5615C110.212 30.6371 110.684 31.229 110.679 31.8831Z" fill="#251E1C"/>
<path id="Vector_36" d="M105.163 31.6187C105.098 31.6819 105.021 31.7356 104.934 31.7758C104.517 31.9683 104.022 31.7863 103.828 31.3678C102.79 29.1153 102.116 23.2819 102.088 23.0348C102.036 22.578 102.364 22.1643 102.821 22.1125C103.278 22.0608 103.691 22.3884 103.742 22.8461C103.926 24.4561 104.572 29.0013 105.341 30.6697C105.494 31.0001 105.411 31.3793 105.163 31.6178V31.6187Z" fill="#251E1C"/>
<path id="Vector_37" d="M112.003 26.3217C112.184 26.1685 112.301 25.9425 112.308 25.6868C112.32 25.2118 111.945 24.8172 111.472 24.8047C109.034 24.7415 107.589 26.202 107.529 26.2643C107.199 26.6052 107.207 27.1502 107.547 27.4806C107.886 27.81 108.428 27.8052 108.758 27.4662C108.809 27.4154 109.777 26.4817 111.427 26.5238C111.646 26.5296 111.848 26.4529 112.003 26.3217Z" fill="#251E1C"/>
<path id="Vector_38" d="M113.88 44.9264C114.691 44.255 115.111 43.6632 115.142 43.6191C115.409 43.236 115.315 42.7083 114.932 42.4411C114.551 42.1739 114.024 42.2678 113.757 42.648C113.738 42.6748 112.659 44.1593 110.597 44.8584C110.156 45.0078 109.917 45.4886 110.067 45.931C110.218 46.3735 110.697 46.611 111.139 46.4616C112.31 46.0651 113.222 45.4704 113.88 44.9274V44.9264Z" fill="#251E1C"/>
<path id="Vector_39" d="M141.902 34.1987L124.054 58.8549L127.594 65.352L147.956 39.3627L141.902 34.1987Z" fill="white"/>
<path id="Vector_40" d="M125.114 61.5804C124.837 61.5804 124.57 61.4329 124.429 61.1734L123.369 59.2283C123.228 58.9697 123.244 58.6537 123.412 58.4104L139.937 34.4879C140.182 34.1335 140.668 34.0444 141.023 34.2896C141.377 34.5348 141.466 35.0213 141.221 35.3756L124.968 58.9027L125.798 60.4254C126.005 60.8037 125.865 61.2778 125.487 61.4846C125.368 61.5498 125.24 61.5804 125.114 61.5804Z" fill="#251E1C"/>
<path id="Vector_41" d="M115.229 55.7964C114.933 55.7964 114.65 55.6269 114.519 55.3405C114.34 54.9488 114.512 54.4853 114.904 54.3062L123.356 50.4371C123.696 50.2819 124.098 50.3892 124.315 50.6928L126.339 53.5285C126.589 53.8791 126.508 54.3665 126.158 54.6174C125.807 54.8684 125.321 54.787 125.07 54.4355L123.42 52.1236L115.552 55.7246C115.447 55.7724 115.337 55.7954 115.229 55.7954V55.7964Z" fill="#251E1C"/>
<path id="Vector_42" d="M190.934 114.639C190.593 103.095 188.231 91.9945 183.912 81.6436C180.457 73.3614 175.748 65.5398 169.917 58.3972C160.384 46.717 150.872 40.6509 150.042 40.1328L144.334 35.2255C144.156 35.0723 143.918 35.0081 143.687 35.0493C143.456 35.0905 143.256 35.2341 143.142 35.44L128.028 62.8257C127.668 63.1254 127.325 63.4453 126.999 63.7862C123.107 67.8488 122.976 73.3671 122.978 74.1448C120.963 85.1115 116.027 100.213 115.071 103.09C114.806 103.083 114.482 103.047 114.183 103.014C113.586 102.949 112.969 102.881 112.468 102.981C111.384 103.199 110.691 104.169 110.02 105.107C109.543 105.773 109.004 106.528 108.534 106.594C98.4966 108.003 84.6674 107.694 84.5286 107.691C84.2588 107.683 83.9975 107.823 83.8511 108.054C80.6866 113.06 80.7708 117.669 81.3976 120.653C82.078 123.89 83.5067 125.933 83.5669 126.018C83.6894 126.191 83.877 126.306 84.0865 126.339C99.6047 128.683 129.226 128.708 129.523 128.708C129.75 128.708 129.967 128.61 130.114 128.437C132.442 125.734 135.132 120.879 137.739 115.458L140.075 119.294L139.072 131.116C139.053 131.333 139.126 131.549 139.274 131.71C139.422 131.871 139.63 131.962 139.849 131.962H191.195C191.411 131.962 191.616 131.873 191.764 131.716C191.911 131.559 191.987 131.348 191.973 131.133L190.934 114.639V114.639Z" fill="#DCDCDC"/>
<path id="Vector_43" d="M130.083 59.3253C129.951 59.3253 129.818 59.2918 129.695 59.2228C129.316 59.0083 129.183 58.5266 129.398 58.1473L142.456 35.0522C142.681 34.6443 143.08 34.3579 143.547 34.2736C144.015 34.1884 144.487 34.3186 144.847 34.628L150.555 39.5353C150.885 39.8187 150.923 40.3177 150.639 40.6481C150.355 40.9785 149.857 41.0168 149.527 40.7324L143.819 35.8251L130.771 58.925C130.626 59.1816 130.359 59.3253 130.084 59.3253H130.083Z" fill="#251E1C"/>
<path id="Vector_44" d="M183.912 82.4338C183.604 82.4338 183.311 82.2509 183.184 81.9482C179.758 73.7359 175.089 65.9804 169.306 58.8972C163.214 51.4338 157.15 46.2727 153.134 43.2569C152.786 42.9955 152.715 42.5003 152.976 42.1517C153.239 41.8031 153.732 41.7323 154.081 41.9937C158.166 45.0622 164.335 50.3114 170.527 57.8974C176.405 65.0993 181.154 72.986 184.639 81.3382C184.806 81.7404 184.617 82.203 184.215 82.3706C184.115 82.4118 184.013 82.4319 183.911 82.4319L183.912 82.4338Z" fill="#251E1C"/>
<path id="Vector_45" d="M191.763 132.505C191.57 132.505 191.376 132.434 191.224 132.291C190.907 131.993 190.891 131.496 191.186 131.178L190.147 114.689C190.147 114.68 190.146 114.671 190.146 114.662C189.852 104.723 188.04 95.0767 184.758 85.9928C184.609 85.5829 184.822 85.1309 185.231 84.9825C185.639 84.834 186.093 85.0457 186.241 85.4565C189.579 94.6946 191.423 104.5 191.722 114.602L192.76 131.083C192.788 131.514 192.634 131.942 192.338 132.256C192.183 132.421 191.974 132.505 191.763 132.505Z" fill="#251E1C"/>
<path id="Vector_46" d="M139.277 132.5C139.063 132.5 138.85 132.413 138.693 132.243C138.396 131.921 138.248 131.485 138.285 131.047L139.289 119.226C139.326 118.792 139.708 118.469 140.141 118.507C140.575 118.543 140.897 118.926 140.86 119.36L139.856 131.182C140.151 131.503 140.129 131.999 139.808 132.294C139.658 132.433 139.468 132.501 139.277 132.501V132.5Z" fill="#251E1C"/>
<path id="Vector_47" d="M129.524 129.497C129.225 129.497 99.5325 129.471 83.9693 127.119C83.5492 127.055 83.1684 126.821 82.9243 126.475C82.8612 126.386 81.3435 124.222 80.6268 120.817C79.9694 117.689 79.8795 112.864 83.1856 107.634C83.4813 107.167 84.0085 106.889 84.5549 106.904C85.1252 106.916 98.6387 107.183 108.394 105.818C108.63 105.697 109.116 105.017 109.379 104.65C110.103 103.636 110.925 102.488 112.314 102.209C112.935 102.085 113.613 102.16 114.271 102.231C114.353 102.24 114.436 102.25 114.518 102.258C115.679 98.7263 119.57 86.6228 121.673 76.6808C121.763 76.2546 122.182 75.9817 122.608 76.0727C123.034 76.1627 123.307 76.5822 123.216 77.0084C120.956 87.6887 116.659 100.817 115.821 103.34C115.712 103.67 115.398 103.892 115.054 103.881C114.757 103.873 114.412 103.836 114.107 103.802C113.561 103.743 113.006 103.68 112.624 103.758C111.846 103.914 111.271 104.719 110.662 105.57C110.066 106.403 109.45 107.266 108.645 107.379C98.7631 108.766 85.1004 108.498 84.5224 108.484C81.4957 113.262 81.5741 117.652 82.1713 120.494C82.82 123.582 84.198 125.545 84.2114 125.564C99.654 127.895 129.228 127.922 129.525 127.922C131.553 125.563 134.079 121.254 137.03 115.118C137.218 114.726 137.69 114.56 138.083 114.75C138.475 114.938 138.64 115.41 138.451 115.803C135.44 122.065 132.838 126.489 130.713 128.955C130.416 129.301 129.983 129.499 129.527 129.5L129.524 129.497Z" fill="#251E1C"/>
<path id="Vector_48" d="M137.777 111.542C137.657 111.542 137.537 111.514 137.423 111.456C137.039 111.259 136.887 110.789 137.083 110.405C140.463 103.786 143.634 96.7703 145.699 92.0517C145.872 91.6572 146.332 91.4771 146.727 91.6505C147.121 91.8238 147.301 92.2835 147.128 92.679C145.054 97.4178 141.869 104.463 138.472 111.117C138.334 111.387 138.06 111.542 137.777 111.542Z" fill="#251E1C"/>
<path id="Vector_49" d="M148.252 88.8742C148.19 88.8742 148.126 88.8666 148.062 88.8503C147.644 88.7459 147.391 88.3216 147.495 87.9041C149.087 81.5286 149.057 75.9701 147.404 71.3808C146.226 68.1112 144.265 65.397 141.575 63.315C141.234 63.0516 141.172 62.5613 141.435 62.2203C141.698 61.8794 142.188 61.8171 142.529 62.0805C145.416 64.3158 147.609 67.3488 148.871 70.8521C150.631 75.7383 150.677 81.6024 149.008 88.2833C148.92 88.6377 148.601 88.8752 148.252 88.8752V88.8742Z" fill="#251E1C"/>
<path id="Vector_50" d="M124.054 73.5168C124.047 73.5168 124.041 73.5168 124.034 73.5168C123.604 73.5063 123.263 73.149 123.274 72.7181C123.277 72.583 123.373 69.3824 125.22 66.1472C126.938 63.1381 130.536 59.5515 137.922 59.5515C138.353 59.5515 138.702 59.9011 138.702 60.332C138.702 60.763 138.353 61.1126 137.922 61.1126C132.593 61.1126 128.775 63.0672 126.574 66.922C124.921 69.8181 124.832 72.7267 124.832 72.7554C124.823 73.1797 124.476 73.5177 124.054 73.5177V73.5168Z" fill="#251E1C"/>
<path id="Vector_51" d="M115.496 114.275C115.193 114.275 114.905 114.098 114.779 113.802C112.03 107.381 113.503 105.02 113.68 104.771L114.949 105.678C114.949 105.678 114.955 105.672 114.965 105.656C114.953 105.676 113.829 107.622 116.212 113.187C116.382 113.583 116.199 114.042 115.803 114.212C115.702 114.255 115.598 114.275 115.496 114.275Z" fill="#251E1C"/>
<path id="Vector_52" d="M25.488 73.8381L5.71924 76.5753L23.2776 116.149L42.0282 110.921L25.488 73.8381Z" fill="white"/>
<path id="Vector_53" d="M29.3007 115.25C28.9591 115.25 28.6462 115.024 28.5496 114.679C28.4338 114.263 28.6768 113.833 29.0912 113.717L40.9473 110.411L25.0157 74.6915L23.5354 74.8965C23.1095 74.9568 22.7153 74.657 22.656 74.2299C22.5966 73.8028 22.8952 73.4091 23.322 73.3498L25.3822 73.0644C25.7267 73.0174 26.0597 73.2023 26.2013 73.5193L42.7415 110.602C42.8343 110.809 42.8314 111.046 42.7348 111.252C42.6381 111.458 42.4573 111.611 42.2381 111.671L29.5103 115.22C29.4404 115.239 29.3696 115.248 29.3007 115.248V115.25Z" fill="#251E1C"/>
<path id="Vector_54" d="M23.2779 116.929C22.9764 116.929 22.6932 116.753 22.565 116.466L5.00663 76.8926C4.90711 76.6685 4.9186 76.4109 5.03821 76.1963C5.15782 75.9818 5.37026 75.8362 5.61235 75.8027L19.7507 73.8452C20.1775 73.7858 20.5708 74.0846 20.6301 74.5117C20.6894 74.9389 20.3909 75.3325 19.9641 75.3919L6.85155 77.2067L23.7161 115.216L25.4692 114.728C25.8835 114.613 26.3141 114.855 26.4299 115.27C26.5457 115.685 26.3026 116.115 25.8883 116.231L23.4865 116.901C23.4166 116.92 23.3468 116.929 23.2769 116.929H23.2779Z" fill="#251E1C"/>
<path id="Vector_55" d="M65.9954 125.948C65.9868 125.948 65.9772 125.948 65.9676 125.948L30.4079 124.717C29.9773 124.702 29.6405 124.341 29.6558 123.91C29.6711 123.479 30.0309 123.145 30.4625 123.157L66.0222 124.388C66.4528 124.403 66.7896 124.764 66.7743 125.195C66.7599 125.617 66.4135 125.949 65.9954 125.949V125.948Z" fill="#251E1C"/>
<path id="Vector_56" d="M140.102 57.1856C139.987 57.1856 139.87 57.1598 139.76 57.1061C139.374 56.9165 139.213 56.4491 139.402 56.0622L146.83 40.8567C147.019 40.4698 147.486 40.3089 147.873 40.4985C148.259 40.6882 148.42 41.1555 148.231 41.5424L140.803 56.7479C140.668 57.0247 140.391 57.1856 140.102 57.1856Z" fill="#251E1C"/>
<path id="Vector_57" d="M103.552 17.9983C103.692 17.9907 103.82 17.9437 103.928 17.87C104.134 17.7283 104.262 17.486 104.247 17.2188C104.237 17.0272 104.25 16.7734 104.377 16.6499C104.513 16.5168 104.788 16.5072 104.873 16.5148C104.915 16.5196 104.957 16.5187 104.998 16.5168C105.468 16.5733 106.332 16.8462 107.825 17.802C108.506 18.2368 109.18 18.7578 109.887 19.3928C111.366 20.7211 115.406 23.4774 120.987 20.4051C121.01 20.3926 121.032 20.3792 121.052 20.3648C121.371 20.1446 121.479 19.7145 121.287 19.3669C121.083 18.9972 120.619 18.8622 120.25 19.0652C115.527 21.6654 112.143 19.365 110.908 18.255C110.137 17.5635 109.399 16.9937 108.647 16.5129C106.393 15.0706 104.797 14.6473 103.768 15.2181C103.457 15.3905 103.245 15.6328 103.103 15.8837C102.897 16.195 102.734 16.6499 102.771 17.3021C102.794 17.7091 103.143 18.0213 103.55 17.9974L103.552 17.9983Z" fill="#251E1C"/>
</g>
</svg>
