<?xml version="1.0" encoding="UTF-8"?>
<svg width="214" height="143" viewBox="0 0 214 163" fill="none" xmlns="http://www.w3.org/2000/svg">
  <rect width="214" height="163" fill="white"/>
  <path d="M107 40C89.3269 40 75 54.3269 75 72C75 89.6731 89.3269 104 107 104C124.673 104 139 89.6731 139 72C139 54.3269 124.673 40 107 40ZM107 98C92.6406 98 81 86.3594 81 72C81 57.6406 92.6406 46 107 46C121.359 46 133 57.6406 133 72C133 86.3594 121.359 98 107 98Z" fill="#187FC3"/>
  <path d="M119.5 63L107 75.5L94.5 63L90.5 67L107 83.5L123.5 67L119.5 63Z" fill="#187FC3"/>
  <path d="M107 123C65.5786 123 32 89.4214 32 48H26C26 92.7351 62.2649 129 107 129C151.735 129 188 92.7351 188 48H182C182 89.4214 148.421 123 107 123Z" fill="#187FC3"/>
</svg> 