<svg width="51" height="50" viewBox="0 0 51 50" fill="none" xmlns="http://www.w3.org/2000/svg">
<g id="java 1" clip-path="url(#clip0_329_1652)">
<g id="Group">
<path id="Vector" fill-rule="evenodd" clip-rule="evenodd" d="M0.5 -0.5H50.5V49.5H0.5V-0.5Z" fill="white"/>
<path id="Vector_2" fill-rule="evenodd" clip-rule="evenodd" d="M21.3481 26.388C21.3481 26.388 20.1538 27.0829 22.1989 27.3177C24.6772 27.6007 25.943 27.56 28.6732 27.0435C28.6732 27.0435 29.3919 27.4936 30.3953 27.8829C24.2733 30.5062 16.5402 27.7312 21.3481 26.388ZM20.5997 22.9648C20.5997 22.9648 19.26 23.9565 21.3069 24.1681C23.9542 24.4415 26.0439 24.4638 29.6622 23.7676C29.6622 23.7676 30.1618 24.2747 30.9481 24.5518C23.5473 26.7164 15.3047 24.7222 20.5997 22.9648Z" fill="#3174B9"/>
<path id="Vector_3" fill-rule="evenodd" clip-rule="evenodd" d="M26.9057 17.1572C28.4148 18.8944 26.5101 20.4567 26.5101 20.4567C26.5101 20.4567 30.3403 18.4798 28.5811 16.0034C26.9386 13.695 25.6787 12.5482 32.4985 8.59351C32.4985 8.59351 21.7933 11.2661 26.9057 17.1572Z" fill="#CA3132"/>
<path id="Vector_4" fill-rule="evenodd" clip-rule="evenodd" d="M35.0022 28.9202C35.0022 28.9202 35.8863 29.6491 34.0285 30.2128C30.4958 31.2828 19.3223 31.6055 16.2187 30.2553C15.1038 29.7697 17.1955 29.0966 17.8536 28.9545C18.54 28.8061 18.9317 28.8331 18.9317 28.8331C17.691 27.9594 10.9122 30.549 15.489 31.2919C27.969 33.3154 38.239 30.3809 35.0022 28.9202ZM21.9228 19.4175C21.9228 19.4175 16.2399 20.7677 19.9106 21.2585C21.461 21.4657 24.5494 21.418 27.4284 21.1765C29.7806 20.9791 32.1416 20.5568 32.1416 20.5568C32.1416 20.5568 31.3129 20.9124 30.7124 21.3218C24.9406 22.84 13.7923 22.1329 17.002 20.5809C19.7158 19.2681 21.9228 19.4175 21.9228 19.4175ZM32.118 25.1157C37.9848 22.0678 35.2723 19.1382 33.3784 19.533C32.9154 19.6297 32.7076 19.7133 32.7076 19.7133C32.7076 19.7133 32.8804 19.443 33.2088 19.3268C36.9547 18.0103 39.835 23.2104 32.001 25.2698C32.0008 25.2698 32.0911 25.1883 32.118 25.1157Z" fill="#3174B9"/>
<path id="Vector_5" fill-rule="evenodd" clip-rule="evenodd" d="M28.5813 2.2059C28.5813 2.2059 31.8297 5.45638 25.4995 10.4531C20.4228 14.4628 24.342 16.7484 25.4979 19.3608C22.534 16.6872 20.3601 14.3332 21.8184 12.1428C23.9594 8.92761 29.8921 7.36839 28.5813 2.2059Z" fill="#CA3132"/>
<path id="Vector_6" fill-rule="evenodd" clip-rule="evenodd" d="M22.5 33.3775C28.1304 33.7375 36.7784 33.1775 36.9836 30.5127C36.9836 30.5127 36.5898 31.5228 32.3298 32.3241C27.5234 33.2288 21.5944 33.1235 18.0791 32.5432C18.0791 32.5432 18.7994 33.1393 22.5 33.3775Z" fill="#3174B9"/>
<path id="Vector_7" fill-rule="evenodd" clip-rule="evenodd" d="M36.7233 38.156H36.5521V38.06H37.0141V38.156H36.8429V38.6354H36.7233V38.156ZM37.6452 38.1799H37.6431L37.4729 38.6351H37.3948L37.2257 38.1799H37.2236V38.6351H37.11V38.0598H37.2768L37.4335 38.4668L37.5902 38.0598H37.7554V38.6351H37.6454L37.6452 38.1799ZM21.5772 43.5579C21.0462 44.0181 20.4849 44.277 19.9809 44.277C19.2629 44.277 18.8732 43.8456 18.8732 43.1553C18.8732 42.408 19.2904 41.8612 20.9598 41.8612H21.5769L21.5772 43.5579ZM23.0428 45.2113V40.0929C23.0428 38.7848 22.2967 37.9215 20.4984 37.9215C19.4491 37.9215 18.5293 38.1807 17.7815 38.5109L17.9968 39.4174C18.5858 39.2011 19.3474 39.0006 20.095 39.0006C21.131 39.0006 21.5769 39.4174 21.5769 40.2805V40.9276H21.0592C18.5425 40.9276 17.4069 41.904 17.4069 43.3719C17.4069 44.6367 18.1552 45.3558 19.564 45.3558C20.4696 45.3558 21.1461 44.982 21.7777 44.4349L21.8926 45.2113H23.0428ZM27.9342 45.2113H26.1067L23.9063 38.0517H25.5026L26.8683 42.4513L27.1723 43.7732C27.8613 41.8612 28.3503 39.9202 28.5949 38.0517H30.1471C29.7315 40.4091 28.9829 42.9974 27.9342 45.2113ZM34.9474 43.5579C34.4149 44.0181 33.8536 44.277 33.3506 44.277C32.6326 44.277 32.2435 43.8456 32.2435 43.1553C32.2435 42.408 32.6609 41.8612 34.3293 41.8612H34.9474V43.5579ZM36.4136 45.2113V40.0929C36.4136 38.7848 35.6652 37.9215 33.8686 37.9215C32.8183 37.9215 31.8988 38.1807 31.1509 38.5109L31.3662 39.4174C31.9553 39.2011 32.7185 39.0006 33.4663 39.0006C34.5008 39.0006 34.9472 39.4174 34.9472 40.2805V40.9276H34.4294C31.9125 40.9276 30.7777 41.904 30.7777 43.3719C30.7777 44.6367 31.5245 45.3558 32.9335 45.3558C33.8398 45.3558 34.5153 44.982 35.1485 44.4349L35.2639 45.2113H36.4136ZM15.7999 46.4279C15.3823 47.0382 14.7068 47.5215 13.9683 47.7941L13.2446 46.9417C13.8073 46.653 14.2892 46.1869 14.5136 45.7532C14.7068 45.3667 14.7875 44.8697 14.7875 43.6801V35.5052H16.3452V43.5673C16.3452 45.1584 16.2181 45.8014 15.7999 46.4279Z" fill="#CA3132"/>
</g>
</g>
<defs>
<clipPath id="clip0_329_1652">
<rect width="50" height="50" fill="white" transform="translate(0.5)"/>
</clipPath>
</defs>
</svg>
