<svg width="51" height="50" viewBox="0 0 51 50" fill="none" xmlns="http://www.w3.org/2000/svg">
<g id="js 1" clip-path="url(#clip0_329_1661)">
<g id="logo">
<path id="background" d="M50.5 0H0.5V50H50.5V0Z" fill="#F7DF1E"/>
<path id="j" d="M13.647 41.7836L17.4734 39.468C18.2116 40.7768 18.8831 41.8841 20.4938 41.8841C22.0377 41.8841 23.0112 41.2802 23.0112 38.9309V22.9548H27.7099V38.9974C27.7099 43.8641 24.8572 46.0793 20.6952 46.0793C16.9364 46.0793 14.7545 44.1325 13.647 41.7832" fill="black"/>
<path id="s" d="M30.2617 41.2802L34.0876 39.065C35.0948 40.7097 36.4037 41.918 38.7195 41.918C40.6664 41.918 41.9079 40.9446 41.9079 39.602C41.9079 37.991 40.6326 37.4203 38.4844 36.4809L37.31 35.9771C33.92 34.5341 31.6711 32.7217 31.6711 28.8955C31.6711 25.3714 34.3562 22.6862 38.5517 22.6862C41.5388 22.6862 43.6868 23.7268 45.2306 26.4454L41.5721 28.7948C40.7666 27.3517 39.8942 26.7812 38.5517 26.7812C37.1756 26.7812 36.3029 27.6538 36.3029 28.7948C36.3029 30.2045 37.1756 30.7751 39.1892 31.6478L40.3638 32.1512C44.3578 33.863 46.6067 35.6081 46.6067 39.5348C46.6067 43.764 43.2839 46.0797 38.8202 46.0797C34.457 46.0797 31.6376 43.9989 30.2617 41.2802Z" fill="black"/>
</g>
</g>
<defs>
<clipPath id="clip0_329_1661">
<rect width="50" height="50" fill="white" transform="translate(0.5)"/>
</clipPath>
</defs>
</svg>
