<svg width="51" height="51" viewBox="0 0 51 51" fill="none" xmlns="http://www.w3.org/2000/svg">
<g id="_&#231;&#183;&#168;&#233;&#155;&#134;&#227;&#131;&#162;&#227;&#131;&#188;&#227;&#131;&#137;" clip-path="url(#clip0_390_3595)">
<path id="Vector" d="M37.1269 7.81077C37.3311 7.42533 37.6029 7.06121 37.9226 6.74327C38.0132 6.65268 38.1038 6.57276 38.2068 6.48217C35.777 4.85872 33.0167 3.68821 30.0416 3.09851C30.054 3.22284 30.0647 3.35961 30.0647 3.49638C30.0647 3.95109 29.9972 4.3827 29.8711 4.80189C32.4945 5.34718 34.9475 6.38093 37.1286 7.81077H37.1269Z" fill="#203A72"/>
<path id="Vector_2" d="M4.67066 30.0026C4.2497 30.1269 3.81808 30.1962 3.36515 30.1962C3.22839 30.1962 3.09162 30.1855 2.96729 30.1731C3.56942 33.1482 4.73816 35.9084 6.36338 38.3507C6.44331 38.2477 6.53389 38.1464 6.62448 38.0558C6.94242 37.7379 7.29411 37.4768 7.68132 37.2601C6.26213 35.0789 5.21773 32.6384 4.67244 30.0043L4.67066 30.0026Z" fill="#203A72"/>
<path id="Vector_3" d="M4.67035 21.2566C5.21564 18.6332 6.26005 16.1802 7.69166 14.0008C7.30623 13.7966 6.94211 13.523 6.62417 13.2051C6.53358 13.1145 6.443 13.0115 6.35241 12.9209C4.72896 15.3507 3.55845 18.1216 2.96875 21.0861C3.09308 21.0737 3.22985 21.063 3.36662 21.063C3.82133 21.063 4.25294 21.1305 4.67212 21.2566H4.67035Z" fill="#203A72"/>
<path id="Vector_4" d="M13.8695 43.4484C13.6652 43.8338 13.3917 44.1979 13.0737 44.5159C12.9832 44.6064 12.8926 44.6864 12.7896 44.777C15.2194 46.4004 17.9796 47.5709 20.9547 48.1731C20.9441 48.0363 20.9316 47.912 20.9316 47.7752C20.9316 47.3205 20.9991 46.8889 21.1253 46.4697C18.4911 45.9244 16.0382 44.88 13.8677 43.4484H13.8695Z" fill="#203A72"/>
<path id="Vector_5" d="M13.8697 7.82137C16.0384 6.39153 18.4913 5.34535 21.1272 4.80005C21.0029 4.3791 20.9336 3.94748 20.9336 3.49455C20.9336 3.35778 20.946 3.22101 20.9567 3.09668C17.9816 3.68638 15.2213 4.85689 12.7915 6.48034C12.8945 6.57092 12.9851 6.65085 13.0757 6.74144C13.3936 7.07004 13.6654 7.43416 13.8714 7.81959L13.8697 7.82137Z" fill="#203A72"/>
<path id="Vector_6" d="M46.3367 21.2565C46.7577 21.1322 47.1893 21.0629 47.6423 21.0629C47.779 21.0629 47.9158 21.0736 48.0401 21.086C47.4504 18.1215 46.2692 15.3507 44.644 12.9102C44.5641 13.0114 44.4735 13.1144 44.3829 13.205C44.065 13.5229 43.7009 13.784 43.3154 14.0007C44.747 16.1819 45.7915 18.6331 46.3367 21.2565Z" fill="#203A72"/>
<path id="Vector_7" d="M37.1272 43.4484C34.946 44.8906 32.4931 45.9244 29.8696 46.4697C29.994 46.8906 30.0632 47.3223 30.0632 47.7752C30.0632 47.912 30.0526 48.0363 30.0401 48.1731C33.0153 47.5834 35.7755 46.4022 38.2178 44.777C38.1147 44.697 38.0135 44.6064 37.9229 44.5159C37.605 44.1979 37.3332 43.8338 37.1272 43.4484Z" fill="#203A72"/>
<path id="Vector_8" d="M46.3367 30.0026C45.7915 32.6367 44.747 35.0897 43.3154 37.2708C43.7009 37.4751 44.065 37.7362 44.3829 38.0541C44.4735 38.1447 44.5641 38.2477 44.644 38.349C46.2675 35.9067 47.4486 33.1483 48.0401 30.1714C47.9158 30.1838 47.779 30.1945 47.6423 30.1945C47.1875 30.1945 46.7559 30.127 46.3367 30.0009V30.0026Z" fill="#203A72"/>
<path id="Vector_9" d="M13.4309 22.5798C13.184 23.5585 13.0366 24.5763 13.0366 25.6313C13.0366 26.6864 13.1823 27.7059 13.4309 28.6846H20.1485C20.0721 27.6793 20.0295 26.6562 20.0295 25.6313C20.0295 24.6065 20.0721 23.5852 20.1485 22.5798H13.4309Z" fill="#203A72"/>
<path id="Vector_10" d="M14.0825 30.6118C15.6012 34.0807 18.6562 36.7184 22.3827 37.6829C21.3951 35.9564 20.7095 33.4306 20.3454 30.6118H14.0825Z" fill="#203A72"/>
<path id="Vector_11" d="M25.4998 38.0932C26.5975 38.0932 28.0681 35.2885 28.7147 30.6118H22.2866C22.9332 35.2903 24.4038 38.0932 25.4998 38.0932Z" fill="#203A72"/>
<path id="Vector_12" d="M29.0436 25.6313C29.0436 24.555 28.9974 23.5408 28.921 22.5798H22.0791C22.0027 23.5408 21.9565 24.555 21.9565 25.6313C21.9565 26.7077 22.0027 27.7237 22.0791 28.6846H28.921C28.9974 27.7237 29.0436 26.7095 29.0436 25.6313Z" fill="#203A72"/>
<path id="Vector_13" d="M36.9174 20.6508C35.3987 17.1819 32.3437 14.5443 28.6172 13.578C29.6065 15.3045 30.2904 17.8302 30.6545 20.6508H36.9174Z" fill="#203A72"/>
<path id="Vector_14" d="M37.5691 28.6828C37.816 27.7041 37.9635 26.6846 37.9635 25.6295C37.9635 24.5745 37.8178 23.5567 37.5691 22.578H30.8516C30.9279 23.5833 30.9706 24.6064 30.9706 25.6295C30.9706 26.6526 30.9279 27.6757 30.8516 28.6828H37.5691Z" fill="#203A72"/>
<path id="Vector_15" d="M14.0825 20.6508H20.3454C20.7095 17.8302 21.3951 15.3045 22.3827 13.578C18.6562 14.5425 15.6012 17.1819 14.0825 20.6508Z" fill="#203A72"/>
<path id="Vector_16" d="M25.5001 13.1696C24.4024 13.1696 22.9317 15.9742 22.2852 20.6527H28.715C28.0685 15.9742 26.5978 13.1696 25.5001 13.1696Z" fill="#203A72"/>
<path id="Vector_17" d="M36.9175 30.6118H30.6564C30.2905 33.4306 29.6067 35.9564 28.6191 37.6829C32.3438 36.7184 35.3989 34.0807 36.9193 30.6118H36.9175Z" fill="#203A72"/>
<path id="Vector_18" d="M34.8892 15.0363C35.3154 15.4146 35.7169 15.816 36.0934 16.2405L39.8359 12.4999C40.914 13.0629 42.2728 12.9048 43.1787 11.999C44.2959 10.8817 44.2959 9.07002 43.1787 7.95279C42.0615 6.83556 40.2497 6.83556 39.1325 7.95279C38.2266 8.85865 38.0686 10.2157 38.6316 11.2956L34.8892 15.0363Z" fill="#14A0DE"/>
<path id="Vector_19" d="M6.07709 26.4821H11.3702C11.3524 26.1979 11.3275 25.9173 11.3275 25.6295C11.3275 25.3418 11.3542 25.0611 11.3702 24.7769H6.07709C5.71297 23.6153 4.64014 22.7681 3.3595 22.7681C1.77869 22.7681 0.498047 24.0487 0.498047 25.6295C0.498047 27.2103 1.77869 28.491 3.3595 28.491C4.64014 28.491 5.71297 27.6437 6.07709 26.4821Z" fill="#14A0DE"/>
<path id="Vector_20" d="M16.111 36.2264C15.6847 35.848 15.2833 35.4466 14.9068 35.0221L11.1661 38.7628C10.0879 38.1997 8.72913 38.3578 7.82327 39.2637C6.70604 40.3809 6.70604 42.1926 7.82327 43.3098C8.9405 44.4271 10.7522 44.4271 11.8695 43.3098C12.7753 42.404 12.9334 41.047 12.3703 39.9688L16.111 36.2281V36.2264Z" fill="#14A0DE"/>
<path id="Vector_21" d="M26.3507 45.0524V39.7593C26.0666 39.7753 25.7859 39.8019 25.4982 39.8019C25.2104 39.8019 24.9298 39.7753 24.6456 39.7593V45.0524C23.484 45.4165 22.6367 46.4893 22.6367 47.7699C22.6367 49.349 23.9174 50.6296 25.4982 50.6296C27.079 50.6296 28.3596 49.349 28.3596 47.7699C28.3596 46.4893 27.5106 45.4165 26.3507 45.0524Z" fill="#14A0DE"/>
<path id="Vector_22" d="M11.1641 12.4999L14.9048 16.2405C15.2831 15.816 15.6846 15.4146 16.1091 15.0363L12.3684 11.2956C12.9314 10.2174 12.7734 8.86043 11.8675 7.95279C10.7503 6.83556 8.93855 6.83556 7.82132 7.95279C6.70409 9.07002 6.70409 10.8817 7.82132 11.999C8.72718 12.9048 10.0842 13.0629 11.1641 12.4999Z" fill="#14A0DE"/>
<path id="Vector_23" d="M24.6476 6.20856V11.5016C24.9317 11.4839 25.2124 11.459 25.5001 11.459C25.7879 11.459 26.0685 11.4856 26.3527 11.5016V6.20856C27.5143 5.84444 28.3616 4.77161 28.3616 3.49097C28.3616 1.91193 27.0809 0.629517 25.5001 0.629517C23.9193 0.629517 22.6387 1.91016 22.6387 3.49097C22.6387 4.77161 23.4859 5.84444 24.6476 6.20856Z" fill="#14A0DE"/>
<path id="Vector_24" d="M47.6386 22.7699C46.358 22.7699 45.2851 23.6171 44.921 24.7788H39.6279C39.6457 25.063 39.6706 25.3436 39.6706 25.6314C39.6706 25.9191 39.6439 26.1997 39.6279 26.4839H44.921C45.2851 27.6456 46.3562 28.4928 47.6386 28.4928C49.2176 28.4928 50.5 27.2122 50.5 25.6314C50.5 24.0505 49.2194 22.7699 47.6386 22.7699Z" fill="#14A0DE"/>
<path id="Vector_25" d="M39.8359 38.7628L36.0934 35.0204C35.7169 35.4449 35.3154 35.8481 34.8892 36.2246L38.6316 39.9671C38.0686 41.0453 38.2266 42.4023 39.1325 43.3099C40.2497 44.4271 42.0615 44.4271 43.1787 43.3099C44.2959 42.1927 44.2959 40.381 43.1787 39.2637C42.2728 38.3579 40.914 38.1998 39.8359 38.7628Z" fill="#14A0DE"/>
</g>
<defs>
<clipPath id="clip0_390_3595">
<rect width="50" height="50" fill="white" transform="translate(0.5 0.631348)"/>
</clipPath>
</defs>
</svg>
