<svg width="171" height="50" viewBox="0 0 171 50" fill="none" xmlns="http://www.w3.org/2000/svg">
<g id="g2303">
<path id="path46" d="M64.5636 21.0402C64.5636 15.8177 63.0745 13.1366 60.0962 12.9897C58.9112 12.9338 57.7541 13.1226 56.6285 13.5595C55.7302 13.8811 55.1254 14.1992 54.8073 14.5208V26.9862C56.7124 28.1818 58.4043 28.7376 59.8795 28.6502C63.0011 28.4439 64.5636 25.9096 64.5636 21.0402ZM68.2375 21.2569C68.2375 23.9101 67.6153 26.1123 66.3639 27.8637C64.9691 29.8457 63.036 30.8664 60.5646 30.9223C58.7014 30.9818 56.7823 30.398 54.8073 29.1745V40.5039L51.6123 39.3643V14.2167C52.1366 13.5735 52.8113 13.0212 53.6293 12.5528C55.5309 11.4447 57.8415 10.8749 60.5611 10.8469L60.6066 10.8924C63.092 10.8609 65.0076 11.8816 66.3534 13.951C67.6083 15.8492 68.2375 18.2821 68.2375 21.2569Z" fill="#646464"/>
<path id="path48" d="M87.764 28.6921C87.764 32.2507 87.4075 34.7151 86.6943 36.0854C85.9777 37.4557 84.6144 38.5498 82.601 39.3643C80.9685 40.0075 79.2032 40.357 77.3086 40.4165L76.7807 38.403C78.7068 38.1408 80.0631 37.8786 80.8497 37.6165C82.3982 37.0921 83.4609 36.2881 84.0447 35.2115C84.5131 34.3341 84.7438 32.6597 84.7438 30.1813V29.3493C82.559 30.3421 80.2694 30.8349 77.8749 30.8349C76.3018 30.8349 74.9141 30.3421 73.7186 29.3493C72.3762 28.2691 71.7051 26.8989 71.7051 25.2384V11.9411L74.9001 10.8469V24.2317C74.9001 25.6614 75.3615 26.7625 76.2844 27.5351C77.2072 28.3076 78.4027 28.6781 79.8674 28.6502C81.332 28.6187 82.9016 28.0524 84.569 26.9443V11.3293H87.764V28.6921Z" fill="#646464"/>
<path id="path50" d="M100.236 30.7475C99.8554 30.779 99.5058 30.793 99.1842 30.793C97.377 30.793 95.9682 30.363 94.9615 29.4996C93.9582 28.6362 93.4549 27.4442 93.4549 25.9236V13.3393H91.2666V11.3293H93.4549V5.99149L96.6464 4.85541V11.3293H100.236V13.3393H96.6464V25.8362C96.6464 27.0352 96.968 27.8846 97.6112 28.381C98.1635 28.79 99.0409 29.0242 100.236 29.0836V30.7475Z" fill="#646464"/>
<path id="path52" d="M119.581 30.4854H116.386V18.1528C116.386 16.8979 116.093 15.8177 115.509 14.9159C114.834 13.8951 113.898 13.3848 112.695 13.3848C111.23 13.3848 109.399 14.1573 107.2 15.7024V30.4854H104.005V1.00674L107.2 0V13.4267C109.241 11.9411 111.472 11.1965 113.894 11.1965C115.586 11.1965 116.956 11.7663 118.005 12.9024C119.057 14.0385 119.581 15.4542 119.581 17.1461V30.4854Z" fill="#646464"/>
<path id="path54" d="M136.563 20.5368C136.563 18.5303 136.182 16.8734 135.423 15.5625C134.522 13.965 133.12 13.1226 131.225 13.0352C127.723 13.2379 125.975 15.7478 125.975 20.5578C125.975 22.7635 126.338 24.6057 127.072 26.0844C128.009 27.9685 129.414 28.8984 131.288 28.8669C134.805 28.8389 136.563 26.0634 136.563 20.5368ZM140.062 20.5578C140.062 23.4137 139.332 25.7907 137.874 27.6889C136.269 29.8142 134.053 30.8804 131.225 30.8804C128.422 30.8804 126.237 29.8142 124.66 27.6889C123.231 25.7907 122.518 23.4137 122.518 20.5578C122.518 17.8731 123.29 15.615 124.835 13.7763C126.468 11.8257 128.614 10.8469 131.267 10.8469C133.92 10.8469 136.081 11.8257 137.745 13.7763C139.29 15.615 140.062 17.8731 140.062 20.5578Z" fill="#646464"/>
<path id="path56" d="M158.379 30.4854H155.184V17.4537C155.184 16.024 154.754 14.9088 153.894 14.1048C153.034 13.3044 151.888 12.9163 150.458 12.9478C148.941 12.9758 147.497 13.4721 146.127 14.4334V30.4854H142.932V14.0384C144.771 12.6996 146.463 11.8257 148.008 11.4167C149.465 11.0357 150.752 10.8469 151.86 10.8469C152.619 10.8469 153.332 10.9203 154.003 11.0671C155.258 11.3573 156.278 11.8956 157.065 12.6856C157.942 13.5595 158.379 14.6082 158.379 15.8352V30.4854Z" fill="#646464"/>
<path id="path1948" d="M20.0561 1.12478C18.4122 1.13242 16.8424 1.27262 15.4611 1.51704C11.3919 2.23592 10.6531 3.7406 10.6531 6.51549V10.1803H20.269V11.4019H10.6531H7.04439C4.24976 11.4019 1.80269 13.0816 1.03728 16.277C0.154394 19.9397 0.115233 22.2253 1.03728 26.0498C1.72081 28.8966 3.35318 30.925 6.14781 30.925H9.45396V26.5317C9.45396 23.3578 12.2001 20.5582 15.4611 20.5582H25.0657C27.7393 20.5582 29.8736 18.3569 29.8736 15.6718V6.51549C29.8736 3.90954 27.6752 1.95196 25.0657 1.51704C23.4139 1.24206 21.6999 1.11714 20.0561 1.12478ZM14.8559 4.0723C15.8491 4.0723 16.6602 4.89667 16.6602 5.91029C16.6602 6.92032 15.8491 7.73708 14.8559 7.73708C13.8591 7.73708 13.0515 6.92032 13.0515 5.91029C13.0515 4.89667 13.8591 4.0723 14.8559 4.0723Z" fill="url(#paint0_linear_329_1695)"/>
<path id="path1950" d="M31.073 11.4019V15.6718C31.073 18.9823 28.2664 21.7686 25.0659 21.7686H15.4612C12.8304 21.7686 10.6533 24.0203 10.6533 26.655V35.8113C10.6533 38.4173 12.9194 39.9501 15.4612 40.6977C18.5051 41.5927 21.424 41.7545 25.0659 40.6977C27.4867 39.9968 29.8738 38.5862 29.8738 35.8113V32.1465H20.2692V30.925H29.8738H34.6818C37.4764 30.925 38.5178 28.9756 39.4897 26.0498C40.4936 23.0377 40.4509 20.141 39.4897 16.277C38.799 13.495 37.4799 11.4019 34.6818 11.4019H31.073ZM25.6711 34.5897C26.6679 34.5897 27.4755 35.4065 27.4755 36.4165C27.4755 37.4301 26.6679 38.2545 25.6711 38.2545C24.6778 38.2545 23.8667 37.4301 23.8667 36.4165C23.8667 35.4065 24.6778 34.5897 25.6711 34.5897Z" fill="url(#paint1_linear_329_1695)"/>
<path id="text3004" d="M164.601 8.48085H165.161V4.96759H166.488V4.54883H163.274V4.96759H164.601V8.48085ZM166.985 8.48085H167.463V5.27214L168.502 8.48044H169.035L170.117 5.28302V8.48085H170.639V4.54883H169.949L168.766 7.91742L167.757 4.54883H166.985V8.48085Z" fill="#646464"/>
<path id="path1894" opacity="0.44382" d="M33.2643 46.9222C33.2643 47.2504 32.931 47.5753 32.2834 47.8784C31.6358 48.1816 30.6866 48.4571 29.49 48.6891C28.2935 48.9211 26.8729 49.1052 25.3095 49.2307C23.7461 49.3563 22.0705 49.4209 20.3782 49.4209C18.686 49.4209 17.0104 49.3563 15.447 49.2307C13.8835 49.1052 12.463 48.9211 11.2664 48.6891C10.0698 48.4571 9.12066 48.1816 8.47308 47.8784C7.8255 47.5753 7.49219 47.2504 7.49219 46.9222C7.49219 46.5941 7.8255 46.2692 8.47308 45.966C9.12066 45.6629 10.0698 45.3874 11.2664 45.1554C12.463 44.9234 13.8835 44.7393 15.447 44.6137C17.0104 44.4882 18.686 44.4235 20.3782 44.4235C22.0705 44.4235 23.7461 44.4882 25.3095 44.6137C26.8729 44.7393 28.2935 44.9234 29.49 45.1554C30.6866 45.3874 31.6358 45.6629 32.2834 45.966C32.931 46.2692 33.2643 46.5941 33.2643 46.9222Z" fill="url(#paint2_radial_329_1695)"/>
</g>
<defs>
<linearGradient id="paint0_linear_329_1695" x1="0.360352" y1="1.12445" x2="22.5335" y2="20.019" gradientUnits="userSpaceOnUse">
<stop stop-color="#5A9FD4"/>
<stop offset="1" stop-color="#306998"/>
</linearGradient>
<linearGradient id="paint1_linear_329_1695" x1="25.44" y1="36.1084" x2="17.4851" y2="24.9613" gradientUnits="userSpaceOnUse">
<stop stop-color="#FFD43B"/>
<stop offset="1" stop-color="#FFE873"/>
</linearGradient>
<radialGradient id="paint2_radial_329_1695" cx="0" cy="0" r="1" gradientUnits="userSpaceOnUse" gradientTransform="translate(20.3782 46.9222) rotate(-90) scale(2.49871 10.9829)">
<stop stop-color="#B8B8B8" stop-opacity="0.498039"/>
<stop offset="1" stop-color="#7F7F7F" stop-opacity="0"/>
</radialGradient>
</defs>
</svg>
