<svg width="122" height="114" viewBox="0 0 122 114" fill="none" xmlns="http://www.w3.org/2000/svg">
<g id="_&#227;&#131;&#172;&#227;&#130;&#164;&#227;&#131;&#164;&#227;&#131;&#188;_1" clip-path="url(#clip0_282_221)">
<path id="Vector" d="M57.0405 103.392C57.0026 103.409 57.0061 103.423 57.0198 103.419C57.0302 103.405 57.0405 103.399 57.0474 103.388C57.0474 103.388 57.0439 103.388 57.0405 103.388V103.392Z" fill="#6EC878"/>
<path id="Vector_2" d="M57.0568 103.375C57.0568 103.375 57.0499 103.381 57.0464 103.388C57.0464 103.385 57.0533 103.381 57.0568 103.375Z" fill="#6EC878"/>
<path id="Vector_3" d="M57.5508 103.649C57.5508 103.649 57.5542 103.663 57.5609 103.676C57.5542 103.659 57.5542 103.639 57.5508 103.622C57.5508 103.619 57.5508 103.615 57.5508 103.612C57.5508 103.622 57.5542 103.632 57.5542 103.649H57.5508Z" fill="#6EC878"/>
<path id="Vector_4" d="M57.544 103.606C57.544 103.606 57.544 103.603 57.544 103.599C57.544 103.599 57.544 103.595 57.544 103.592C57.544 103.592 57.544 103.592 57.5405 103.588C57.5405 103.588 57.5405 103.588 57.5405 103.592C57.5405 103.595 57.5476 103.603 57.5476 103.603L57.544 103.606Z" fill="#6EC878"/>
<path id="Vector_5" d="M57.8521 105.709C57.8521 105.709 57.8521 105.703 57.8521 105.699C57.869 105.618 57.8521 105.669 57.8521 105.709Z" fill="#6EC878"/>
<path id="Vector_6" d="M56.2544 104.875V104.888C56.2579 104.888 56.2614 104.888 56.2579 104.881L56.251 104.875H56.2544Z" fill="#6EC878"/>
<path id="Vector_7" d="M53.8579 103.683C53.8579 103.683 53.8616 103.683 53.8652 103.68C53.8652 103.68 53.8616 103.683 53.8579 103.687V103.683Z" fill="#6EC878"/>
<path id="Vector_8" d="M56.2544 104.875C56.2544 104.875 56.2544 104.875 56.2614 104.882C56.2614 104.882 56.2614 104.875 56.2614 104.871C56.2614 104.871 56.2614 104.868 56.2579 104.864C56.2579 104.868 56.2579 104.871 56.2579 104.875H56.2544Z" fill="#6EC878"/>
<path id="Vector_9" d="M56.4308 105.048C56.4308 105.048 56.4205 105.041 56.4102 105.034C56.4205 105.041 56.4274 105.048 56.4308 105.048Z" fill="#6EC878"/>
<path id="Vector_10" d="M58.093 106.066C58.093 106.066 58.0724 106.056 58.0621 106.049C58.0621 106.049 58.0586 106.049 58.0552 106.049C58.0689 106.056 58.0827 106.063 58.093 106.07V106.066Z" fill="#6EC878"/>
<path id="Vector_11" d="M56.7423 105.17C56.7423 105.17 56.7526 105.17 56.7561 105.17C56.7561 105.17 56.7595 105.17 56.7629 105.167C56.7492 105.167 56.7423 105.17 56.7251 105.173C56.7285 105.173 56.7354 105.173 56.7389 105.173L56.7423 105.17Z" fill="#6EC878"/>
<path id="Vector_12" d="M57.8828 105.91C57.8931 105.92 57.9 105.93 57.9103 105.941C57.9103 105.937 57.9069 105.934 57.9035 105.93C57.8966 105.923 57.8931 105.92 57.8828 105.91Z" fill="#6EC878"/>
<path id="Vector_13" d="M58.0045 106.031C58.0045 106.031 57.9842 106.011 57.9774 106.004C57.974 106.004 57.9706 105.998 57.9639 105.994C57.9774 106.008 57.9909 106.018 58.0045 106.031Z" fill="#6EC878"/>
<path id="Vector_14" d="M58.0483 106.045C58.0483 106.045 58.0517 106.045 58.0551 106.045C58.0348 106.035 58.0144 106.025 57.9941 106.015C57.9941 106.015 58.0178 106.035 58.0483 106.045Z" fill="#6EC878"/>
<path id="Vector_15" d="M56.7051 105.173C56.7051 105.173 56.6979 105.173 56.6943 105.18C56.6943 105.18 56.7051 105.176 56.7122 105.173C56.7122 105.173 56.7086 105.173 56.7051 105.173Z" fill="#6EC878"/>
<path id="Vector_16" d="M56.7656 105.16C56.7893 105.129 56.7893 105.139 56.7791 105.156C56.7791 105.156 56.7859 105.153 56.7859 105.149C57.0296 104.779 57.2665 104.406 57.4628 104.009C57.4899 103.941 57.5102 103.873 57.5305 103.805C57.5475 103.744 57.5441 103.592 57.5441 103.778C57.5441 103.734 57.5508 103.693 57.5508 103.649C57.5407 103.619 57.5339 103.598 57.5339 103.592C57.5305 103.585 57.5271 103.582 57.5238 103.575C57.5136 103.565 57.5035 103.554 57.4933 103.544C57.4933 103.544 57.4933 103.544 57.4899 103.544C57.4053 103.49 57.3173 103.442 57.2259 103.395C57.2022 103.395 57.1819 103.381 57.148 103.371C57.1311 103.371 57.1142 103.371 57.0973 103.371C57.0939 103.371 57.0939 103.371 57.0871 103.371C57.077 103.378 57.0668 103.381 57.0567 103.388C57.0465 103.405 57.0363 103.415 57.0262 103.419C56.9822 103.466 56.9077 103.534 56.8637 103.585C56.708 103.795 56.5659 104.019 56.4508 104.25C56.4271 104.298 56.3763 104.464 56.4305 104.281C56.3695 104.45 56.2951 104.62 56.2612 104.796C56.2612 104.813 56.2612 104.837 56.2612 104.854C56.2748 104.878 56.2782 104.885 56.2815 104.888C56.2849 104.895 56.2883 104.902 56.2917 104.905C56.3323 104.949 56.3594 104.976 56.4068 105.02C56.4068 105.02 56.4068 105.02 56.4135 105.024C56.4677 105.061 56.5252 105.095 56.5828 105.126C56.6336 105.146 56.664 105.153 56.7249 105.16C56.7453 105.149 56.7622 105.149 56.7723 105.153L56.7656 105.16Z" fill="white"/>
<path id="Vector_17" d="M54.0986 103.69C54.0377 103.666 53.9869 103.639 53.9294 103.615C53.9124 103.632 53.8955 103.649 53.8786 103.663C53.8786 103.663 53.8786 103.663 53.8786 103.666C53.8989 103.649 53.9192 103.636 53.9395 103.619C53.9091 103.642 53.8854 103.673 53.8583 103.7C53.8447 103.72 53.8346 103.737 53.8244 103.758C53.8143 103.792 53.8041 103.822 53.7974 103.856C53.7974 103.897 53.7974 103.934 53.7974 103.975C53.8041 104.002 53.8109 104.029 53.8177 104.056C53.8278 104.073 53.838 104.094 53.8481 104.111C53.8583 104.121 53.8684 104.134 53.882 104.145C53.9361 104.179 53.9903 104.213 54.0478 104.24C54.1291 104.267 54.2137 104.291 54.2983 104.308C54.3626 104.314 54.4269 104.314 54.4912 104.308C54.5217 104.301 54.5522 104.294 54.5793 104.284C54.5793 104.284 54.5826 104.284 54.586 104.28C54.5962 104.267 54.6097 104.257 54.6199 104.246C54.6165 104.253 54.6097 104.26 54.6063 104.267C54.7011 104.138 54.8399 104.063 54.9888 104.046C54.7079 103.9 54.4066 103.802 54.1054 103.686L54.0986 103.69Z" fill="white"/>
<path id="Vector_18" d="M23.5912 55.6763C23.5912 55.6763 23.5912 55.6763 23.5946 55.6763C23.5777 55.6763 23.5574 55.6763 23.5337 55.6763C23.5337 55.6831 23.5506 55.6865 23.5912 55.6763Z" fill="#6EC878"/>
<path id="Vector_19" d="M38.4267 84.5294C37.6178 79.6662 35.6275 75.0712 33.2988 70.7646C32.7877 70.9649 32.1073 71.6198 31.647 71.0056C34.2668 75.4479 36.4839 80.1108 38.4538 84.8755C38.4572 84.8042 38.464 84.7364 38.4674 84.6651C38.4504 84.6244 38.4369 84.5803 38.4267 84.5294Z" fill="#FFD44A"/>
<path id="Vector_20" d="M27.9341 49.9378C27.9612 49.9378 27.995 49.9378 27.9916 49.931C27.9882 49.9276 27.9612 49.931 27.9341 49.9378Z" fill="#6EC878"/>
<path id="Vector_21" d="M25.1312 63.9264C26.4446 64.9343 27.7308 65.9965 28.8681 67.2013C29.3623 66.4852 29.8531 65.7692 30.3472 65.0565C27.2027 63.0305 24.038 60.9603 20.7073 59.2397C20.6159 59.7149 20.5279 60.1866 20.4365 60.6617C22.0545 61.6696 23.6216 62.7692 25.1312 63.9298V63.9264Z" fill="white"/>
<path id="Vector_22" d="M27.3516 50.3287C27.3584 50.3218 27.3584 50.3184 27.3688 50.308C27.3825 50.2873 27.386 50.2769 27.3516 50.3287Z" fill="#6EC878"/>
<path id="Vector_23" d="M27.3316 50.3481C27.3316 50.3481 27.3382 50.3448 27.3382 50.3415C27.3382 50.3381 27.3449 50.3315 27.3482 50.3281C27.3416 50.3381 27.3283 50.3481 27.3316 50.3481Z" fill="#6EC878"/>
<path id="Vector_24" d="M28.1234 49.9345C28.0963 49.9277 28.0895 49.9345 28.0997 49.9412C28.12 49.9412 28.1369 49.9412 28.1572 49.9412C28.1471 49.9412 28.1369 49.9378 28.1268 49.9345H28.1234Z" fill="#6EC878"/>
<path id="Vector_25" d="M52.0981 102.367C52.0981 102.367 52.1252 102.38 52.1388 102.387C52.132 102.38 52.1218 102.373 52.0981 102.367Z" fill="#6EC878"/>
<path id="Vector_26" d="M58.8877 104.664C58.9015 104.699 58.9049 104.719 58.8877 104.664V104.664Z" fill="#6EC878"/>
<path id="Vector_27" d="M60.0487 104.868C60.0487 104.888 60.042 104.912 60.0386 104.932C60.1266 104.939 60.2112 104.956 60.2958 104.98C60.2146 104.912 60.1266 104.851 60.0521 104.779C60.0521 104.81 60.0521 104.837 60.0521 104.868H60.0487Z" fill="white"/>
<path id="Vector_28" d="M59.5278 106.361C59.5278 106.388 59.5278 106.418 59.5278 106.446C59.5346 106.473 59.5413 106.503 59.5515 106.53C59.565 106.558 59.582 106.585 59.5989 106.612C59.6192 106.636 59.6429 106.656 59.6666 106.68C59.6869 106.693 59.7038 106.703 59.7241 106.714C59.7546 106.724 59.785 106.731 59.8155 106.737C59.8358 106.737 59.8561 106.737 59.8764 106.737C59.9103 106.731 59.9441 106.72 59.978 106.71C60.0017 106.697 60.022 106.686 60.0457 106.67C60.0694 106.649 60.0897 106.625 60.11 106.605C60.1303 106.574 60.1472 106.544 60.1641 106.513C60.1777 106.476 60.1878 106.439 60.1946 106.398C60.1946 106.361 60.1946 106.323 60.1946 106.289C60.1912 106.269 60.1844 106.245 60.1777 106.225C60.1709 106.208 60.1608 106.194 60.1506 106.177C60.1371 106.164 60.1235 106.147 60.1066 106.133C60.0829 106.116 60.0592 106.103 60.0321 106.089C60.0051 106.079 59.9746 106.072 59.9441 106.065C59.9204 106.065 59.9001 106.065 59.8764 106.065C59.8358 106.076 59.7986 106.086 59.758 106.099C59.7275 106.116 59.697 106.133 59.6666 106.154C59.6361 106.181 59.6056 106.211 59.5786 106.242C59.565 106.262 59.5515 106.286 59.538 106.31C59.5312 106.327 59.5278 106.344 59.5244 106.361H59.5278Z" fill="white"/>
<path id="Vector_29" d="M56.8163 103.636C56.8367 103.609 56.8502 103.592 56.857 103.585C56.8299 103.612 56.813 103.632 56.8163 103.636Z" fill="#6EC878"/>
<path id="Vector_30" d="M52.0983 102.367C52.0983 102.367 52.0811 102.36 52.0742 102.353C52.0811 102.356 52.0845 102.36 52.088 102.363C52.088 102.363 52.0914 102.363 52.0949 102.363C52.0949 102.363 52.0949 102.363 52.0983 102.363V102.367Z" fill="#6EC878"/>
<path id="Vector_31" d="M52.2915 102.489C52.2399 102.448 52.2468 102.458 52.2915 102.489V102.489Z" fill="#6EC878"/>
<path id="Vector_32" d="M58.8813 104.644C58.8813 104.644 58.8885 104.651 58.8992 104.658C58.8921 104.655 58.8885 104.647 58.8813 104.64V104.644Z" fill="#6EC878"/>
<path id="Vector_33" d="M62.1174 106.436C62.1174 106.436 62.1002 106.446 62.083 106.46C62.0933 106.453 62.1174 106.436 62.1174 106.436Z" fill="#6EC878"/>
<path id="Vector_34" d="M66.9946 95.6267C66.9235 95.8269 66.7543 95.9932 66.4903 96.0135C64.3545 96.2307 62.4861 94.9819 60.577 94.6323C60.357 94.6798 60.1709 94.9208 60.0321 95.0803C59.6868 95.4807 59.3856 95.9151 59.0674 96.3359C58.8406 96.6278 58.1772 97.1945 58.9151 97.3167C59.873 97.4694 60.5059 96.6176 60.9121 95.8948C61.2269 95.3314 62.0257 95.7081 61.9716 96.2409C62.1408 96.19 62.3337 96.224 62.4894 96.4038C62.8144 96.7703 63.1359 97.1402 63.4609 97.5101C64.7505 98.9796 66.0198 100.473 67.3331 101.919C67.5937 101.786 67.8747 101.705 68.1251 101.552C68.2402 101.477 68.3824 101.467 68.5144 101.488C68.3959 99.4954 68.2639 97.2658 66.9946 95.6301V95.6267Z" fill="white"/>
<path id="Vector_35" d="M65.5796 104.769C65.5862 104.746 65.5896 104.736 65.5796 104.769V104.769Z" fill="#6EC878"/>
<path id="Vector_36" d="M65.5054 104.579C65.5432 104.645 65.5398 104.61 65.5088 104.583C65.5088 104.583 65.5088 104.583 65.5054 104.579Z" fill="#6EC878"/>
<path id="Vector_37" d="M58.1466 106.066C58.1466 106.066 58.1669 106.066 58.1804 106.066C58.1872 106.066 58.2109 106.062 58.2515 106.062C58.2684 106.059 58.2854 106.052 58.3023 106.049C58.3294 106.035 58.3531 106.018 58.3801 106.005C58.4005 105.988 58.4208 105.967 58.4377 105.947C58.4478 105.93 58.458 105.913 58.4648 105.906C58.5866 105.702 58.6848 105.485 58.7863 105.268C58.8371 105.132 58.8845 104.993 58.9116 104.851C58.9116 104.82 58.9116 104.779 58.9116 104.749C58.9048 104.718 58.8946 104.691 58.8879 104.661C58.8879 104.654 58.8811 104.647 58.8777 104.64C58.8777 104.64 58.8777 104.637 58.8743 104.633C58.8405 104.603 58.8371 104.593 58.8506 104.603C58.8506 104.6 58.8439 104.596 58.8405 104.593C58.81 104.576 58.7796 104.559 58.7491 104.542C58.7389 104.542 58.7288 104.535 58.7152 104.535C58.7152 104.538 58.6949 104.535 58.6577 104.521C58.6577 104.521 58.6475 104.521 58.6408 104.525C58.6408 104.525 58.634 104.528 58.6306 104.532C58.6137 104.552 58.59 104.579 58.5731 104.596C58.3463 104.912 58.0823 105.204 57.9029 105.55C57.886 105.601 57.8724 105.648 57.8623 105.699C57.8623 105.706 57.8623 105.709 57.8589 105.716C57.8589 105.764 57.8724 105.855 57.869 105.842C57.869 105.842 57.869 105.845 57.869 105.848C57.869 105.859 57.8758 105.865 57.8758 105.872C57.886 105.889 57.8961 105.909 57.9063 105.926C57.9232 105.943 57.9367 105.957 57.9435 105.964C57.9503 105.971 57.9638 105.984 57.9807 105.998C57.9875 106.001 57.9909 106.008 57.9977 106.011C57.9977 106.011 58.0214 106.021 58.0654 106.045C58.1127 106.062 58.1601 106.066 58.2075 106.079C58.1838 106.072 58.1635 106.069 58.1466 106.066C58.0958 106.059 58.062 106.045 58.1466 106.066Z" fill="white"/>
<path id="Vector_38" d="M57.9504 105.985C57.9504 105.985 57.9611 105.992 57.9647 105.996C57.9575 105.992 57.9539 105.985 57.9468 105.978C57.9468 105.978 57.9504 105.981 57.9504 105.985Z" fill="#6EC878"/>
<path id="Vector_39" d="M61.7107 106.527C61.7716 106.534 61.8326 106.534 61.8935 106.527C61.9341 106.517 61.9781 106.507 62.0187 106.493C62.039 106.483 62.0593 106.473 62.0763 106.463C62.0898 106.453 62.1033 106.442 62.1135 106.432C61.7886 106.208 61.4907 105.937 61.1895 105.692C61.2978 105.906 61.3452 106.14 61.3384 106.375C61.3925 106.412 61.4535 106.436 61.511 106.466C61.5787 106.49 61.6464 106.51 61.7141 106.524L61.7107 106.527Z" fill="white"/>
<path id="Vector_40" d="M93.2435 68.1277C93.8155 68.8675 94.3842 69.6073 94.9562 70.3471C95.667 69.2137 96.6656 68.2329 97.6065 67.2962C99.1365 65.7725 100.741 64.32 102.386 62.9252C102.01 62.4195 101.631 61.9173 101.255 61.4116C99.0417 62.1141 97.0683 63.2849 95.4436 64.9614C94.5264 65.8336 93.9002 66.9467 93.0303 67.8528C93.1014 67.9444 93.1724 68.0361 93.2435 68.1277Z" fill="white"/>
<path id="Vector_41" d="M110.438 90.0781C110.408 90.1324 110.404 90.1799 110.411 90.2241C110.415 90.2274 110.418 90.2342 110.421 90.2376C110.418 90.1731 110.421 90.1087 110.438 90.0781Z" fill="#6EC878"/>
<path id="Vector_42" d="M41.1107 102.16C41.0904 104.383 41.0701 106.605 41.0498 108.832L41.2969 108.781C41.1581 108.486 41.236 108.088 41.6388 107.99C41.8317 107.943 42.0246 107.895 42.2176 107.848C43.4496 107.545 44.6817 107.243 45.9138 106.941V104.355C45.9138 103.914 46.3199 103.741 46.6449 103.826L46.6957 103.202C44.8306 102.838 42.9656 102.472 41.1006 102.099C41.1006 102.119 41.1073 102.136 41.1073 102.156L41.1107 102.16Z" fill="#DCDCDC"/>
<path id="Vector_43" d="M40.1971 89.6842C42.6747 90.3731 45.1524 91.0654 47.6301 91.7543V91.4862C47.295 91.5982 46.855 91.4251 46.8584 90.967C46.8584 90.7125 46.8617 90.4579 46.8651 90.2034C46.8787 88.6932 46.8922 87.1865 46.9091 85.6763C44.885 86.0598 42.8643 86.4432 40.8402 86.8267C40.4272 86.9048 40.1531 86.5756 40.1294 86.2532L39.4524 86.3754C39.4321 86.5586 39.405 86.7419 39.3779 86.9251L40.2004 89.6842H40.1971Z" fill="#DCDCDC"/>
<path id="Vector_44" d="M35.7798 41.1955C35.6782 41.0292 35.5868 40.958 35.4108 40.8935C35.008 40.7509 34.5274 40.7068 34.1111 40.6186C30.909 39.9874 27.7307 39.1763 24.5185 38.6265C23.8653 38.5722 23.3271 38.6842 22.8227 39.105C22.5689 39.3154 21.9935 39.8313 22.0612 40.2215C22.1796 40.9274 21.1303 41.2328 20.9713 40.5677C20.7072 40.8867 20.5278 41.2023 20.4906 41.5213C20.6091 41.484 20.7276 41.4466 20.8528 41.4229C21.5704 41.2803 21.875 42.3833 21.1574 42.5258C19.8847 42.7803 18.9573 43.7815 18.5004 44.9659C17.9148 46.4862 18.1179 48.1831 18.4225 49.7408C18.5545 50.4127 18.6628 51.0337 19.0148 51.6242C19.8069 52.9953 21.2691 54.1729 21.3097 55.8629H21.3368C21.4417 55.7136 21.6211 55.6152 21.8073 55.605C22.3895 55.5541 22.9581 55.7374 23.5369 55.6763C23.5369 55.6695 23.5606 55.6627 23.6013 55.6763C23.6689 55.6627 23.7333 55.6423 23.7976 55.622C23.7976 55.622 23.7976 55.622 23.801 55.622C23.8957 55.5745 23.9905 55.5236 24.0751 55.4591C24.241 55.3199 24.3831 55.1672 24.5185 54.9942C24.6912 54.7668 24.8435 54.5258 24.9856 54.2781C25.1684 53.9557 25.6355 53.9048 25.886 54.1661C26.0823 53.9014 26.2583 53.6163 26.4073 53.3007C25.6626 52.1231 25.6423 50.4161 26.6679 49.3878C27.2704 48.7464 28.2824 48.6039 29.0271 49.0654C29.0576 48.5292 29.1219 47.9964 29.22 47.4704C28.7529 47.6027 28.2554 47.6367 27.7104 47.5315C26.9894 47.3923 27.2975 46.2894 28.015 46.4285C29.4367 46.7034 30.5198 45.3494 31.4303 44.3686C32.4931 43.2215 33.6812 42.0779 35.3668 42.3358C35.5022 42.3561 35.6072 42.4444 35.6782 42.5598C35.8306 42.4953 35.9795 42.4512 36.1318 42.4478C36.0743 42.0202 36.0099 41.5552 35.7899 41.1989L35.7798 41.1955Z" fill="white"/>
<path id="Vector_45" d="M21.3096 55.8944C21.3096 55.8944 21.3268 55.8736 21.3337 55.8633H21.3062C21.3062 55.8633 21.3062 55.884 21.3062 55.8944H21.3096Z" fill="#6EC878"/>
<path id="Vector_46" d="M38.3826 53.036C37.594 52.3029 36.9542 51.4036 36.5684 50.3957C35.8982 48.648 36.785 46.8595 36.3314 45.1016C36.213 44.6434 36.6225 44.3584 36.9779 44.3957C36.9035 43.9545 36.8459 43.4998 36.7748 43.0552C36.3619 43.1672 36.1317 42.8753 36.1216 42.4443C35.9693 42.4511 35.8203 42.4952 35.668 42.5563C35.9693 43.0179 35.5631 43.5439 35.052 43.4353C33.1869 43.2792 31.9752 45.8821 30.5265 46.7984C30.2794 47.6977 30.1474 48.6276 30.1338 49.5608C30.1338 49.7136 30.0695 49.8493 29.9748 49.9477C30.3572 50.5246 29.5787 51.1457 29.1049 50.6638C28.9695 50.4839 28.8172 50.3176 28.6445 50.1751C28.5362 50.1106 28.4211 50.0054 28.2993 49.9749C28.4381 50.0326 28.3636 50.002 28.3061 49.9817C28.2587 49.9681 28.2147 49.9545 28.1673 49.9443C28.13 49.9511 28.1063 49.9443 28.0962 49.9409C28.0319 49.9274 27.9777 49.9409 27.9168 49.9409C27.8423 49.9613 27.8186 49.9749 27.7611 49.9851C27.6832 50.0258 27.6359 50.0631 27.5648 50.1072C27.5309 50.1344 27.4395 50.2294 27.3651 50.3109C27.3549 50.3244 27.3448 50.338 27.338 50.3448C27.2568 50.4534 27.1992 50.579 27.1383 50.6943C27.0841 50.8742 27.0198 51.0575 27.0029 51.2441C26.9961 51.1728 26.9961 51.1559 26.9961 51.1694C27.0029 51.3561 26.9927 51.5597 27.0097 51.7464C27.0435 51.9432 27.0943 52.14 27.1721 52.3301C27.2534 52.5133 27.3515 52.6898 27.47 52.8527C27.4835 52.8731 27.5749 52.9851 27.4835 52.8731C27.8254 53.3109 28.279 53.6366 28.7732 53.881C29.0507 54.0201 29.1252 54.4104 28.9762 54.6649C28.4279 55.5778 26.722 53.8674 26.397 53.3075C26.2515 53.6231 26.0721 53.9047 25.8758 54.1728C26.0484 54.3493 26.0856 54.648 25.9604 54.8618C25.4865 55.6762 24.8366 56.6095 23.8449 56.7961C23.1612 56.9251 22.4842 56.7181 21.7971 56.7554C21.5229 56.769 21.3097 56.5552 21.2454 56.3075C21.2352 56.3278 21.2284 56.3482 21.2183 56.3651C21.181 56.9387 21.0084 57.502 20.9204 58.0722C24.3661 59.8504 27.6866 61.9375 30.9056 64.0959C30.8887 63.2136 31.0816 62.3142 31.1425 61.4319C31.1798 61.0823 31.481 60.7565 31.8635 60.8821C32.7774 61.174 33.6507 61.5167 34.6289 61.4251C35.3566 61.3572 36.3247 61.0145 36.653 60.2916C36.7748 60.0235 36.7478 59.7045 36.7647 59.4161C36.785 58.8629 36.9475 58.3572 36.9881 57.8109C36.2536 57.5631 35.5563 57.1898 34.9166 56.7554C34.2938 56.3346 34.832 55.4115 35.492 55.7679C35.9625 56.1038 36.4837 56.3685 37.005 56.6095C37.0388 56.6231 37.0727 56.6332 37.1065 56.6468C37.1641 55.7407 37.5466 54.8787 38.1355 54.1932C38.2642 54.0439 38.8193 53.6299 38.7854 53.4466C38.7617 53.3109 38.4706 53.1276 38.3758 53.0394L38.3826 53.036ZM35.1941 49.9885C34.4596 49.9885 34.4596 48.8448 35.1941 48.8448C35.9286 48.8448 35.9286 49.9885 35.1941 49.9885Z" fill="white"/>
<path id="Vector_47" d="M34.5579 70.1371C34.4631 70.1846 34.3717 70.2321 34.277 70.2796C36.0777 73.3135 37.4384 76.6156 38.5114 79.9753C38.3049 76.5748 37.9292 73.059 36.4906 69.9334C36.3755 69.6959 36.4331 69.4685 36.5617 69.309C35.6715 67.9855 34.7779 66.7638 33.5898 65.5488C34.1314 66.8113 34.4936 68.1721 34.8219 69.4957C34.8795 69.7298 34.7881 70.0285 34.5613 70.1405L34.5579 70.1371Z" fill="white"/>
<path id="Vector_48" d="M32.3307 65.5248C32.1107 65.1311 32.4187 64.6085 32.8824 64.673C32.5812 64.3404 32.2766 63.9874 32.0735 63.5293C32.0599 63.6447 32.0498 63.7601 32.0362 63.8755C32.0058 64.1775 31.7891 64.3472 31.5556 64.4015C31.5454 64.5847 31.542 64.7816 31.542 65.0123C31.542 64.7782 31.542 64.5847 31.5556 64.4015C31.3728 64.4422 31.1765 64.4117 31.0445 64.2963C31.0783 64.3913 31.0817 64.4965 31.0648 64.5915C31.4405 64.6288 31.6741 65.1243 31.4608 65.4365C30.9903 66.1187 30.5198 66.8008 30.0527 67.4829C30.2186 67.4897 30.3777 67.5712 30.4792 67.768C30.9091 68.5994 31.5861 69.3291 32.2596 70.0078C32.7064 69.7838 33.1532 69.5598 33.6 69.3359C33.2514 68.0666 32.8858 66.6752 32.3307 65.5214V65.5248Z" fill="#FFD44A"/>
<path id="Vector_49" d="M48.5641 93.2036C44.1706 91.9784 39.7771 90.7567 35.3802 89.5316C34.9064 89.3993 34.8861 88.8631 35.1365 88.5814L34.5814 88.337C34.4122 88.7341 33.8165 88.9207 33.5795 88.4321C32.9026 87.0339 32.2324 85.6357 31.5622 84.2341C30.5434 82.0961 29.5245 79.9547 28.5429 77.7963C27.7746 75.9162 26.7998 74.0769 25.1683 72.8042C21.401 69.7499 17.39 70.8291 15.4708 75.2511C15.1662 75.9196 14.1812 75.3393 14.4858 74.6741C16.2324 70.6493 20.1994 68.6266 24.2375 70.8359C24.2848 70.7443 24.3559 70.6662 24.4473 70.6153C25.2495 70.1504 26.133 69.8144 27.0401 69.6346C27.3549 69.5735 27.6392 69.7228 27.7407 70.035C27.8321 70.3133 27.6358 70.6798 27.3413 70.7375C26.6238 70.8834 25.9163 71.104 25.2766 71.4671C27.3786 72.8585 28.6817 75.0678 29.5922 77.3619C31.2 80.8812 32.8755 84.3698 34.5611 87.8517C34.6457 88.0248 34.639 88.1911 34.578 88.3336L35.1331 88.578C35.255 88.4389 35.4446 88.3608 35.6781 88.4253C36.2908 88.595 36.9034 88.768 37.5194 88.9377C38.4096 89.1855 39.2998 89.4332 40.19 89.6809L39.3675 86.9219C39.3506 87.0576 39.3337 87.1968 39.3134 87.3325C39.3472 87.4445 39.3845 87.5599 39.4149 87.6719C39.6146 88.3812 38.5146 88.6832 38.3149 87.9773C37.709 85.8291 36.7748 83.759 35.8609 81.7296C34.7879 79.3506 33.6404 77.0022 32.4118 74.6979C31.2575 72.5599 30.0932 70.3744 28.5362 68.4977C28.5125 68.4739 28.4922 68.4502 28.4719 68.4196C26.0009 65.6708 22.8734 63.6142 19.8101 61.6119C19.519 61.6459 19.2686 61.4151 19.228 61.1504C19.0587 61.5169 18.8929 61.8936 18.7236 62.2737C19.0519 62.3585 19.3261 62.725 19.1196 63.1153C17.8774 65.4739 16.5404 67.7782 15.2779 70.1266C14.4486 71.6708 13.7175 73.2488 13.2842 74.9524C12.4685 77.7183 12.9051 80.5859 13.2402 83.3891C13.7175 88.1504 14.8311 92.8947 14.6111 97.6968C14.2861 102.801 14.3301 107.925 14.4892 113.036H39.8617C39.9599 109.327 39.8109 105.567 40.031 101.881C36.3991 101.118 32.7198 100.493 29.1285 99.5633C28.2281 99.2545 27.4801 98.4637 26.8336 97.7986C24.5895 95.5011 22.6568 92.8676 20.7714 90.2714C19.2753 88.2115 17.7488 86.1278 16.4592 83.9253C16.0869 83.2873 17.0718 82.7137 17.4442 83.3484C18.9132 85.8631 20.6766 88.2386 22.4029 90.5769C24.1901 92.9965 26.0179 95.5112 28.2281 97.5644C28.6208 97.9377 28.9627 98.2262 29.4061 98.4468C35.1941 99.8619 41.0769 100.9 46.919 102.075L47.5892 101.223C48.5336 98.6741 49.2342 96.2137 49.8909 93.5633C49.4441 93.4377 49.0007 93.3155 48.5539 93.19L48.5641 93.2036ZM19.4852 64.2318C19.6307 63.9807 20.0132 63.8484 20.2671 64.0282C22.2472 65.4298 24.1461 66.9468 25.9434 68.5757C26.4884 69.0712 25.6794 69.8755 25.1378 69.3834C23.4116 67.8189 21.5939 66.3597 19.6917 65.0158C19.4378 64.8359 19.3193 64.5203 19.4886 64.2318H19.4852ZM22.3894 106.541C25.7572 106.218 29.0777 105.37 32.185 104.033C32.8518 103.744 33.434 104.732 32.7604 105.02C29.4534 106.446 25.9739 107.342 22.3894 107.684C21.6582 107.756 21.665 106.609 22.3894 106.541ZM34.0297 91.2081C33.7725 91.9818 33.5152 92.759 33.2546 93.5327C33.021 94.2454 31.9751 93.9603 32.1545 93.2273C32.4118 92.4536 32.669 91.6764 32.9296 90.9026C33.0312 90.5972 33.3155 90.4309 33.6303 90.5022C33.918 90.5667 34.1245 90.923 34.0297 91.2047V91.2081Z" fill="#4C4C4A"/>
<path id="Vector_50" d="M100.169 59.9595C100.118 59.8916 100.095 59.8204 100.088 59.7423C99.3194 59.7491 98.5477 59.7355 97.7827 59.7253C97.5086 59.7219 97.3292 59.5455 97.2344 59.3045C96.8282 58.317 96.5473 57.2785 96.3036 56.24C96.158 56.2468 96.0023 56.2299 95.8568 56.2332C95.1426 56.24 95.1257 55.1642 95.7959 55.0964C95.5048 54.9199 95.2069 54.7468 94.8955 54.5941C94.7499 55.8328 94.1068 57.1903 93.0102 57.8452C92.3738 58.2185 91.8018 57.2276 92.4347 56.8577C92.4889 56.8271 92.5397 56.7898 92.5938 56.7559C92.604 56.7491 92.6006 56.7491 92.6074 56.7457C92.7563 56.6235 92.8917 56.481 93.0135 56.3283C93.545 55.6054 93.8733 54.6314 93.7819 53.7491C93.7616 53.6167 93.7277 53.4844 93.6804 53.3554C93.6499 53.2842 93.5923 53.1654 93.5382 53.0975C93.501 53.0534 93.4299 52.9652 93.3791 52.9278C93.3723 52.9244 93.3622 52.9142 93.3385 52.9007C93.3317 52.9007 93.2572 52.8599 93.2437 52.8464C93.1896 52.826 93.1286 52.809 93.0711 52.7989C93.0542 52.7989 92.9831 52.7989 92.9425 52.7989C92.9425 52.8023 92.8477 52.826 92.8037 52.8362C92.6615 52.9007 92.516 53.0127 92.4144 53.1891C92.0286 53.8136 91.0402 53.24 91.4295 52.6122C91.663 52.2355 92.0116 51.9369 92.4077 51.7774C90.9691 51.869 89.4358 51.0885 88.4711 50.0568C87.5166 49.0387 87.0394 47.7152 86.667 46.395C84.4161 50.0093 87.8314 52.0489 83.9863 55.8769C83.6478 56.1857 83.2145 56.3419 83.7798 56.7457C84.5211 57.438 85.0152 58.4018 85.1202 59.4063C85.242 59.352 85.3707 59.352 85.4891 59.2909C85.9461 59.0907 86.3793 58.8294 86.799 58.5579C87.0664 58.3848 87.4185 58.5104 87.5809 58.7615C87.8009 59.1111 87.5369 59.498 87.212 59.6473C86.5993 59.9697 85.9596 60.5127 85.2353 60.4719C85.2725 61.0387 85.4282 61.5715 85.4722 62.1416C85.4925 62.4538 85.4519 62.8102 85.5737 63.1054C85.8818 63.8554 86.9107 64.205 87.6452 64.2559C88.593 64.3237 89.4358 63.998 90.3226 63.7129C90.4986 63.6552 90.7559 63.7129 90.8777 63.8588C91.4058 64.5138 91.9338 65.1688 92.4618 65.8237C92.8172 66.2649 92.411 66.852 91.9947 66.8249C92.0455 66.9233 92.103 67.0183 92.1673 67.1099C93.1219 66.1054 93.8225 64.8803 94.8481 63.9335C96.466 62.3215 98.4055 61.1676 100.545 60.4312C100.423 60.2683 100.301 60.1088 100.183 59.9459L100.169 59.9595ZM86.8329 53.257C86.0984 53.257 86.0984 52.1133 86.8329 52.1133C87.5674 52.1133 87.5674 53.257 86.8329 53.257Z" fill="white"/>
<path id="Vector_51" d="M92.8203 51.6754C92.9252 51.6619 93.0336 51.6585 93.1419 51.6653C93.0945 51.6076 93.0505 51.5499 93.0031 51.4922C92.9557 51.5668 92.8948 51.6279 92.8203 51.6754Z" fill="#6EC878"/>
<path id="Vector_52" d="M103.364 49.1472C102.765 47.1958 101.621 45.1698 99.888 44.0363C96.1274 41.5725 90.7456 42.2071 87.5605 45.3124C87.4725 45.3938 87.3879 45.4752 87.3066 45.5601C87.4894 45.594 87.6553 45.7162 87.7196 45.9504C88.0344 47.094 88.4033 48.2954 89.2157 49.1947C90.0246 50.0872 91.2906 50.7524 92.5159 50.6336C92.939 50.5963 93.2368 51.1562 93.0033 51.4922C93.0473 51.5499 93.0947 51.6076 93.1421 51.6653C93.687 51.6924 94.215 52.0522 94.4858 52.473C94.8818 53.0635 94.9766 53.8644 94.8954 54.594C95.2102 54.7467 95.5046 54.9198 95.7957 55.0963C96.6386 55.0182 97.2783 55.2015 97.4509 56.1246C97.6608 56.956 97.8875 57.7807 98.182 58.5884C98.8353 58.5985 99.4919 58.6053 100.145 58.5985C100.589 57.3124 101.272 56.0737 101.98 54.9334C103.523 52.7852 104.2 51.8723 103.368 49.1472H103.364Z" fill="#5A5A5A"/>
<path id="Vector_53" d="M111.051 109.439C113.15 109.88 115.248 110.318 117.347 110.759C117.347 110.759 117.347 110.756 117.347 110.752C117.327 110.416 117.662 110.158 117.97 110.186L117.939 110.074C115.556 109.656 113.173 109.239 110.791 108.818L110.828 109.432C110.895 109.422 110.97 109.422 111.051 109.439Z" fill="white"/>
<path id="Vector_54" d="M70.5755 104.155C70.3047 104.077 70.0746 103.826 70.1423 103.473C70.4435 101.945 70.4672 100.344 70.2844 98.7996C70.1355 97.3199 69.6887 95.7215 68.6631 94.6084C68.3416 94.8188 67.8745 94.5609 67.8338 94.1978C67.6747 94.2656 67.5224 94.3403 67.3701 94.4149C69.5059 96.1898 69.6684 100.238 69.6582 102.841C69.6515 103.123 69.4755 103.296 69.269 103.364C69.4315 103.686 69.6142 103.999 69.8072 104.301C69.8986 104.447 69.9053 104.613 69.8512 104.762L70.8565 104.175C70.7651 104.192 70.6669 104.185 70.5721 104.158L70.5755 104.155Z" fill="white"/>
<path id="Vector_55" d="M66.8081 103.045C65.136 101.077 63.1931 99.0611 61.5583 97.0011C60.9355 97.8801 60.0622 98.5418 58.8978 98.457C58.1768 98.4061 57.4491 97.9106 57.4085 97.1301C57.3713 96.4072 58.0313 95.8303 58.4273 95.2907C57.4423 95.328 56.4675 95.5588 55.4758 95.5215C54.4265 95.4841 53.367 95.1957 52.4396 94.7002C51.827 97.0316 51.2922 99.4004 50.4121 101.647L50.6152 101.664C50.578 101.26 50.9672 101.019 51.3294 101.087C51.634 101.128 52.074 101.148 52.4193 101.274C52.7781 101.403 53.059 101.644 53.3433 101.895C53.9797 102.597 54.9782 102.699 55.7432 103.184C56.3152 102.197 57.2393 101.898 58.1667 102.645C58.4104 102.838 58.5763 103.083 58.644 103.381C58.9181 103.381 59.1923 103.476 59.4191 103.615C59.6459 103.768 59.8219 103.985 59.9302 104.233C60.0453 103.802 60.5631 103.724 60.8712 103.995C61.5989 104.542 62.2962 105.217 63.0577 105.679C63.1051 105.692 63.166 105.716 63.2168 105.723C63.2642 105.726 63.3082 105.73 63.3624 105.723C63.3861 105.716 63.4538 105.699 63.4639 105.696C63.5485 105.669 63.4741 105.696 63.5181 105.669C63.5282 105.662 63.579 105.628 63.5892 105.624C63.6095 105.607 63.6264 105.59 63.6433 105.57C63.6704 105.54 63.7144 105.468 63.7313 105.431C63.7347 105.417 63.7415 105.4 63.7449 105.387C63.1424 104.803 62.5399 104.219 61.9374 103.636C61.697 103.429 61.741 103.042 61.9374 102.828C62.5331 102.295 63.0814 103.195 63.4842 103.558C63.8599 103.924 64.2593 104.26 64.6181 104.644C64.6824 104.684 64.74 104.739 64.784 104.8C64.7941 104.81 64.8077 104.82 64.8178 104.83C64.8855 104.878 64.96 104.925 65.0311 104.959C64.9837 104.932 65.1259 104.99 65.1529 105C65.2071 105 65.2646 105 65.3188 105C65.3425 104.983 65.3729 104.98 65.4 104.973C65.4474 104.942 65.532 104.885 65.444 104.959C65.4745 104.932 65.5117 104.905 65.532 104.871C65.5354 104.847 65.5422 104.851 65.5354 104.864C65.5388 104.854 65.5456 104.84 65.5523 104.827C65.5523 104.813 65.5591 104.803 65.5591 104.793C65.5591 104.776 65.5591 104.756 65.5591 104.752V104.742C65.5591 104.712 65.5456 104.688 65.5388 104.661C65.5219 104.637 65.505 104.606 65.488 104.576C64.8009 103.883 64.1206 103.184 63.4301 102.492C63.2033 102.265 63.2202 101.912 63.4301 101.684C63.6399 101.457 64.0258 101.474 64.2357 101.684C64.8754 102.326 65.5083 102.977 66.1447 103.622C66.5881 103.917 67.062 103.683 66.8589 103.171C66.869 103.205 66.8047 103.069 66.7912 103.049L66.8081 103.045Z" fill="white"/>
<path id="Vector_56" d="M51.6138 93.4478L51.1467 93.2476C50.4562 96.0304 49.7691 98.8539 48.6521 101.508C48.405 102.007 47.569 101.783 47.6028 101.236L46.9326 102.088C47.5723 102.119 47.7754 102.658 47.3659 103.096C48.0395 103.015 48.6859 102.797 49.2309 102.444C48.9906 102.2 49.1023 101.84 49.2309 101.559C50.331 98.9693 50.815 96.1356 51.6104 93.4512L51.6138 93.4478Z" fill="white"/>
<path id="Vector_57" d="M117.36 112.554C117.37 112.337 117.37 112.123 117.37 111.906C115.468 111.574 113.579 111.112 111.684 110.739C111.596 111.048 111.579 111.387 111.518 111.692C111.457 112.14 111.42 112.592 111.366 113.043H117.326C117.343 112.88 117.353 112.717 117.364 112.554H117.36Z" fill="white"/>
<path id="Vector_58" d="M57.852 105.709C57.852 105.709 57.8452 105.74 57.8418 105.757C57.8418 105.74 57.8486 105.726 57.852 105.716C57.852 105.716 57.852 105.716 57.852 105.713V105.709Z" fill="#6EC878"/>
<path id="Vector_59" d="M110.452 90.2712C110.452 90.2712 110.435 90.2475 110.425 90.2373C110.425 90.2441 110.425 90.2509 110.425 90.2543C110.465 90.3595 110.567 90.3968 110.452 90.2712Z" fill="#6EC878"/>
<path id="Vector_60" d="M110.5 70.5C107 67.5 106 65.5 103 63C102.733 63.448 97.9804 67.6251 97.7029 68.0629C97.626 68.183 95 70.5 95 70.5L89 70C89 70 87.9608 73.7922 85.5001 78.5C82.5213 84.199 78.0001 90 78.0001 90L69.5 93.5L71.0002 103C71.0002 103 76.7046 101.873 82 99.5C84.0627 98.5758 89 91.5 89 91.5C89 91.5 92.0464 93.9253 92.0003 94.5C92.0002 105 92.0002 113.5 92.0002 113.5L102.5 114L110.5 113.5L111 107.5L118.5 109C118.5 109 120.234 85.944 121 88C121.146 86.948 110.351 71.552 110.5 70.5Z" fill="#DCDCDC"/>
<path id="Vector_61" d="M91.8119 88.6457C92.5261 83.562 93.1726 78.4477 94.1034 73.3979C93.836 73.8459 93.5585 74.2837 93.2809 74.7215C93.1354 74.9489 92.895 75.0371 92.6378 74.9828C92.323 74.9217 92.0082 74.8572 91.6934 74.7961C90.8946 79.7339 89.6152 87.0914 91.3719 91.8052C91.5174 90.7531 91.663 89.6977 91.8119 88.6457Z" fill="#FFD44A"/>
<path id="Vector_62" d="M92.2416 68.6846C92.1096 68.8169 91.9708 69.0138 91.788 69.0545C91.4969 70.5511 91.4834 72.0952 91.6696 73.6088C91.6696 73.6156 91.6696 73.6224 91.6696 73.6291C91.9505 73.6834 92.2314 73.7411 92.5124 73.7954C92.9998 73.0251 93.4771 72.2411 93.89 71.4267C93.9577 71.2909 94.0559 71.2129 94.1608 71.1721C93.5211 70.3441 92.8779 69.5126 92.2382 68.6846H92.2416Z" fill="#FFD44A"/>
<path id="Vector_63" d="M57.93 105.96C57.93 105.96 57.9198 105.953 57.9164 105.947C57.9164 105.947 57.9097 105.94 57.9097 105.937C57.9232 105.96 57.9537 105.987 57.9503 105.977C57.9401 105.967 57.9334 105.96 57.93 105.957V105.96Z" fill="#6EC878"/>
<path id="Vector_64" d="M58.8809 104.643C58.8742 104.636 58.8709 104.633 58.8643 104.626C58.8643 104.63 58.8709 104.633 58.8742 104.64C58.8742 104.64 58.8776 104.643 58.8809 104.646V104.643Z" fill="#6EC878"/>
<path id="Vector_65" d="M58.4175 105.978C58.4175 105.978 58.4312 105.957 58.4347 105.947C58.4278 105.957 58.4244 105.961 58.4175 105.978Z" fill="#6EC878"/>
<path id="Vector_66" d="M58.4442 105.937C58.4713 105.906 58.4882 105.866 58.4612 105.906C58.451 105.92 58.4442 105.933 58.4341 105.947C58.4341 105.944 58.4409 105.94 58.4442 105.937Z" fill="#6EC878"/>
<path id="Vector_67" d="M58.8472 104.606C58.8472 104.606 58.8577 104.617 58.8612 104.624C58.8542 104.617 58.8507 104.61 58.8472 104.606Z" fill="#6EC878"/>
<path id="Vector_68" d="M58.1772 106.069C58.1772 106.069 58.1976 106.076 58.2348 106.069C58.2145 106.069 58.1976 106.072 58.1772 106.069Z" fill="#6EC878"/>
<path id="Vector_69" d="M58.6714 104.525C58.6714 104.525 58.6985 104.532 58.712 104.535C58.712 104.532 58.6951 104.525 58.6714 104.525Z" fill="#6EC878"/>
<path id="Vector_70" d="M46.7532 103.133C46.9597 103.133 47.1628 103.116 47.3659 103.093C47.7755 102.655 47.5724 102.115 46.9326 102.085C41.0905 100.911 35.2111 99.8721 29.4197 98.4569C28.9729 98.2363 28.6344 97.9512 28.2417 97.5745C26.0315 95.5214 24.2037 93.0033 22.4165 90.587C20.6902 88.2488 18.9268 85.8732 17.4578 83.3585C17.0854 82.7239 16.1004 83.2974 16.4728 83.9354C17.759 86.1379 19.2889 88.2182 20.785 90.2816C22.6704 92.8777 24.5997 95.5112 26.8472 97.8087C27.4937 98.4705 28.2417 99.2646 29.1421 99.5734C32.7334 100.507 36.4093 101.128 40.0446 101.891C39.8212 105.577 39.9735 109.337 39.8753 113.046H41.016C41.0295 111.641 41.0431 110.236 41.0566 108.835C41.0702 106.592 41.1108 104.348 41.1142 102.105C42.9792 102.475 44.8442 102.845 46.7092 103.208C46.9394 103.276 47.217 103.262 47.3727 103.099C47.1696 103.123 46.9665 103.14 46.76 103.14L46.7532 103.133Z" fill="#323232"/>
<path id="Vector_71" d="M39.8721 113.043C39.8721 113.169 39.8721 113.294 39.8687 113.423C39.8619 114.159 41.0026 114.159 41.0094 113.423C41.0094 113.297 41.0094 113.172 41.0127 113.043H39.8721Z" fill="#323232"/>
<path id="Vector_72" d="M80.4151 89.6812C80.2932 89.4063 79.8735 89.3215 79.6332 89.4776C79.3489 89.6608 79.2981 89.9663 79.4301 90.2615C79.8397 91.1846 80.2459 92.1043 80.6554 93.0274C81.0447 93.6654 81.9789 93.1292 81.6404 92.4504C81.2308 91.5274 80.8247 90.6077 80.4151 89.6846V89.6812Z" fill="#323232"/>
<path id="Vector_73" d="M88.7146 69.6957C87.5232 70.8224 87.0222 72.4887 86.7481 74.0633C86.6871 74.5418 86.7176 74.8201 86.4603 75.1934C84.9643 78.4513 82.6931 81.2375 80.7536 84.2274C79.64 85.8801 78.4925 87.509 77.2943 89.1074C77.1691 89.2737 77.1623 89.4366 77.2198 89.5724C77.3688 89.9219 77.9645 90.1018 78.2793 89.6844C80.2729 87.0169 82.0838 84.2307 83.9793 81.4955C85.3907 79.5509 86.7074 77.5317 87.6653 75.319C87.8989 74.5181 87.9158 73.6391 88.2001 72.8382C88.4642 71.966 88.85 71.1346 89.5202 70.5034C89.8384 70.2047 89.6827 69.8009 89.3916 69.6244C89.0836 69.9841 88.8094 70.3744 88.5758 70.7307C88.8128 70.3778 89.0836 69.9841 89.3916 69.6244C89.1919 69.5022 88.9312 69.4887 88.7112 69.6957H88.7146Z" fill="#323232"/>
<path id="Vector_74" d="M33.6341 90.5056C33.3193 90.4344 33.035 90.6007 32.9334 90.9061C32.6762 91.6798 32.4189 92.457 32.1583 93.2308C32.0635 93.5158 32.2666 93.8688 32.5577 93.9332C32.8725 94.0045 33.1568 93.8382 33.2584 93.5328C33.5156 92.759 33.7729 91.9819 34.0335 91.2081C34.1283 90.9231 33.9252 90.5701 33.6341 90.5056Z" fill="#323232"/>
<path id="Vector_75" d="M28.0996 49.9414C28.0996 49.9414 28.1335 49.9516 28.1707 49.9448C28.1673 49.9448 28.1605 49.9448 28.1572 49.9448C28.1368 49.9448 28.1199 49.9448 28.0996 49.9448V49.9414Z" fill="#323232"/>
<path id="Vector_76" d="M27.3413 50.3421C27.3413 50.3421 27.362 50.3214 27.3688 50.3076C27.3585 50.318 27.3585 50.3214 27.3516 50.3283C27.3516 50.3318 27.3447 50.3387 27.3413 50.3421Z" fill="#323232"/>
<path id="Vector_77" d="M37.2522 42.3599C37.1202 41.4504 36.9205 40.3067 35.9829 39.8859C35.3432 39.6008 34.541 39.5432 33.8573 39.3972C33.0855 39.2343 32.3104 39.068 31.5387 38.9051C29.9613 38.5692 28.384 38.2366 26.8067 37.9006C25.5239 37.6291 24.0176 37.1404 22.7652 37.7751C21.7938 38.2671 20.7377 39.4006 20.9713 40.568C21.0627 40.456 21.1676 40.3441 21.2759 40.2321C21.1642 40.3441 21.0627 40.456 20.9713 40.568C21.127 41.2366 22.1797 40.9312 22.0612 40.2219C21.9969 39.8316 22.5723 39.3158 22.8228 39.1054C23.9838 38.1348 25.5645 38.8508 26.8744 39.0816C29.7143 39.6993 32.5778 40.2694 35.4109 40.8904C35.9964 41.1178 36.0269 41.8916 36.1217 42.4413C36.2435 42.4379 36.3654 42.4549 36.4839 42.516C36.362 42.4549 36.2402 42.4379 36.1217 42.4413C36.1285 42.8723 36.362 43.1642 36.775 43.0522C36.7039 42.5941 36.6193 42.1529 36.4872 41.7558C36.6193 42.1529 36.7039 42.5975 36.775 43.0522C37.0525 42.9775 37.3064 42.7196 37.2522 42.3565V42.3599Z" fill="#323232"/>
<path id="Vector_78" d="M20.0576 53.1005C19.6988 52.6186 19.3231 52.1435 19.0151 51.6276C18.663 51.0371 18.5547 50.4161 18.4227 49.7441C18.1181 48.1864 17.915 46.4896 18.5006 44.9692C18.9575 43.7849 19.885 42.7837 21.1576 42.5292C21.8786 42.3867 21.574 41.2837 20.853 41.4263C20.7278 41.45 20.6093 41.4873 20.4908 41.5247C16.4697 42.8787 16.5848 47.9557 17.6138 51.3392C18.1215 52.9885 20.0068 54.105 20.1693 55.8663H21.3066C21.31 54.8346 20.6465 53.898 20.0542 53.1039L20.0576 53.1005Z" fill="#323232"/>
<path id="Vector_79" d="M38.6503 72.7193C38.3626 71.5655 37.9869 70.4286 37.4724 69.3528C37.2693 68.9286 36.7921 69.0134 36.5585 69.3053C37.0256 70.001 37.4961 70.7239 38.0072 71.4942C37.4961 70.7272 37.029 70.0044 36.5585 69.3053C36.4265 69.4682 36.3723 69.6922 36.4874 69.9297C37.926 73.0553 38.3017 76.5711 38.5082 79.9716C37.4352 76.6119 36.0745 73.3064 34.2738 70.2759C34.3685 70.2284 34.4599 70.1809 34.5547 70.1334C34.7815 70.018 34.8763 69.7227 34.8153 69.4886C34.487 68.165 34.1248 66.8042 33.5833 65.5417C33.563 65.5214 33.546 65.501 33.5257 65.4806C33.7017 65.7759 33.8202 66.1119 33.8202 66.5327C33.8202 66.1085 33.7017 65.7759 33.5257 65.4806C33.4953 65.4501 33.4682 65.4196 33.4411 65.389C33.4716 65.4196 33.4986 65.4501 33.5257 65.4806C33.3497 65.1888 33.1162 64.9343 32.8758 64.6696C32.4121 64.6051 32.1041 65.1277 32.3241 65.5214C32.8792 66.6752 33.2448 68.0666 33.5934 69.3358C33.1466 69.5598 32.6998 69.7838 32.253 70.0078C31.5795 69.3291 30.9025 68.5994 30.4726 67.768C30.3711 67.5711 30.212 67.4897 30.0461 67.4829C30.5166 66.8008 30.9871 66.1187 31.4542 65.4365C31.6675 65.1209 31.4339 64.6254 31.0582 64.5915C31.0751 64.4931 31.0717 64.3913 31.0379 64.2963C31.1699 64.4082 31.3628 64.4422 31.549 64.4015C31.5727 63.984 31.6539 63.6379 31.9179 63.1051C31.9552 63.2578 32.0093 63.3969 32.0669 63.5293C32.1143 63.0813 32.1583 62.6334 32.2056 62.182C32.8521 62.3856 33.4953 62.5621 34.1891 62.5723C35.7529 62.6198 37.6653 61.7612 37.8684 60.0406C37.8955 59.4263 37.9429 58.8189 38.0681 58.2148C38.1866 57.2137 38.1629 56.1684 38.7146 55.2996C39.1343 54.6345 40.1126 54.1628 39.9264 53.2499C39.8418 52.8358 39.5371 52.5406 39.2359 52.2691C38.0783 51.2408 37.2862 49.8155 37.425 48.234C37.4419 47.4603 37.9734 44.5112 36.9715 44.389C37.0391 44.803 37.1204 45.2035 37.2389 45.5632C37.1204 45.2035 37.0391 44.7996 36.9715 44.389C36.6127 44.3517 36.2065 44.6368 36.325 45.0949C36.7785 46.8562 35.8917 48.6413 36.5619 50.389C36.9511 51.3969 37.5909 52.2962 38.3761 53.0293C38.4709 53.1175 38.762 53.3008 38.7857 53.4365C38.8162 53.6198 38.2611 54.0304 38.1358 54.1831C37.5469 54.8653 37.1644 55.7306 37.1068 56.6367C37.073 56.6232 37.0391 56.613 37.0053 56.5994C36.4807 56.3585 35.9628 56.0904 35.4923 55.7578C34.8289 55.4015 34.2941 56.3245 34.9169 56.7453C35.5566 57.1831 36.2539 57.553 36.9884 57.8008C36.9478 58.3472 36.7853 58.8528 36.765 59.406C36.7514 59.6944 36.7751 60.0134 36.6533 60.2815C36.325 61.0044 35.3603 61.3472 34.6292 61.415C33.651 61.5067 32.7777 61.1639 31.8638 60.872C31.4779 60.7499 31.1767 61.0723 31.1428 61.4218C31.0853 62.3076 30.8923 63.2069 30.9059 64.0858C27.6869 61.9275 24.3664 59.8404 20.9207 58.0621C21.0087 57.4953 21.1813 56.9286 21.2186 56.3551C21.2287 56.3381 21.2355 56.3144 21.2457 56.2974C21.31 56.5451 21.5232 56.7589 21.7974 56.7453C22.4845 56.708 23.1615 56.9116 23.8452 56.7861C24.8369 56.5994 25.4868 55.6662 25.9607 54.8517C26.0859 54.6379 26.0487 54.3426 25.8761 54.1628C25.524 54.6413 25.1077 55.0621 24.6948 55.4761C25.1111 55.0587 25.524 54.6413 25.8761 54.1628C25.6256 53.9015 25.1585 53.9524 24.9757 54.2748C24.8335 54.5191 24.6812 54.7634 24.5086 54.9908C24.3732 55.1605 24.231 55.3166 24.0652 55.4558C23.9806 55.5202 23.8858 55.5711 23.791 55.6186C23.791 55.6186 23.791 55.6186 23.7876 55.6186C23.7233 55.639 23.659 55.6594 23.5913 55.6729C23.5981 55.6729 23.6015 55.6729 23.6049 55.6729C23.6015 55.6729 23.5913 55.6729 23.5879 55.6729C23.5879 55.6729 23.5879 55.6729 23.5845 55.6729C23.5439 55.6831 23.527 55.6797 23.527 55.6729C22.9482 55.7306 22.3796 55.5508 21.7974 55.6017C21.6112 55.6119 21.4352 55.7103 21.3269 55.8596C21.3269 55.8596 21.31 55.88 21.3032 55.8901C21.3032 55.88 21.3032 55.8698 21.3032 55.8596H20.1659C20.1659 55.9444 20.1659 56.0259 20.1557 56.1107C19.841 57.4953 19.6209 58.9105 19.3366 60.3053C19.2994 60.5836 19.1809 60.8686 19.2283 61.1503C19.2689 61.4184 19.5194 61.6492 19.8105 61.6119C22.8737 63.6141 26.0013 65.6707 28.4722 68.4196C28.4925 68.4467 28.5128 68.4739 28.5365 68.4976C30.0935 70.3743 31.2613 72.5598 32.4121 74.6978C33.6442 76.9987 34.7883 79.3506 35.8612 81.7295C36.7751 83.7589 37.7127 85.829 38.3152 87.9772C38.5149 88.6831 39.615 88.3845 39.4153 87.6718C39.3848 87.5564 39.3476 87.4444 39.3137 87.3324C39.334 87.1967 39.351 87.0576 39.3679 86.9218L39.2156 86.4128L39.439 86.372C39.9332 81.8279 39.703 77.165 38.6402 72.7125L38.6503 72.7193ZM28.8682 67.2012C26.3838 64.6492 23.4289 62.5757 20.4367 60.6616C20.5281 60.1865 20.6161 59.7148 20.7075 59.2397C24.0347 60.9603 27.2029 63.0304 30.3474 65.0564C29.8532 65.7725 29.3624 66.4886 28.8682 67.2012ZM38.454 84.8754C36.484 80.1107 34.267 75.4478 31.6472 71.0055C32.1109 71.6198 32.7878 70.9648 33.2989 70.7646C35.6683 75.1085 37.6213 79.7612 38.4675 84.665C38.4641 84.7363 38.4574 84.8042 38.454 84.8754Z" fill="#323232"/>
<path id="Vector_80" d="M33.5897 65.545C33.4205 65.2124 33.3359 64.7 32.8823 64.6729C33.1193 64.9376 33.3562 65.1921 33.5322 65.4839C33.5525 65.5043 33.5694 65.5247 33.5897 65.545Z" fill="#323232"/>
<path id="Vector_81" d="M31.5557 64.4014C31.7892 64.3505 32.0058 64.1774 32.0363 63.8753C32.0498 63.76 32.06 63.6446 32.0735 63.5292C32.016 63.3968 31.9618 63.2577 31.9246 63.105C31.6606 63.6344 31.5827 63.9839 31.5557 64.4014Z" fill="#323232"/>
<path id="Vector_82" d="M39.3745 86.9253C39.3982 86.742 39.4253 86.5587 39.449 86.3755L39.2256 86.4162L39.3779 86.9253H39.3745Z" fill="#323232"/>
<path id="Vector_83" d="M23.5946 55.6763C23.5946 55.6763 23.5946 55.6763 23.598 55.6763C23.5574 55.6662 23.5337 55.6696 23.5337 55.6763C23.5574 55.6763 23.5777 55.6763 23.5946 55.6763Z" fill="#323232"/>
<path id="Vector_84" d="M29.5958 77.3653C28.6853 75.0712 27.3787 72.8619 25.2802 71.4705C25.9199 71.1074 26.6273 70.8834 27.3449 70.7409C27.6394 70.6832 27.8323 70.3167 27.7443 70.0384C27.6427 69.7262 27.3584 69.5769 27.0436 69.638C26.1331 69.8178 25.2531 70.1538 24.4509 70.6187C24.3629 70.6696 24.2918 70.7511 24.241 70.8393C20.2063 68.63 16.2326 70.6527 14.4894 74.6776C14.1848 75.3427 15.1697 75.923 15.4744 75.2545C17.3766 70.8393 21.4181 69.7533 25.1718 72.8076C26.8033 74.0803 27.7781 75.9196 28.5465 77.7997C29.5281 79.9581 30.5469 82.0961 31.5657 84.2375C32.2359 85.6391 32.9061 87.0373 33.5831 88.4355C33.82 88.9242 34.4157 88.7375 34.585 88.3404C34.6459 88.1979 34.6527 88.0316 34.5681 87.8586C32.8824 84.3767 31.2036 80.888 29.5992 77.3687L29.5958 77.3653Z" fill="#323232"/>
<path id="Vector_85" d="M109.934 68.7387C109.792 68.6132 109.64 68.4944 109.484 68.379C108.052 66.8926 106.621 65.4061 105.192 63.9197C104.83 63.6177 104.427 62.8303 103.892 63.1595C104.549 63.4684 105.307 63.6686 105.307 64.6358C105.307 63.672 104.546 63.4684 103.892 63.1595C103.601 63.3292 103.439 63.7432 103.74 64.0589C104.745 65.1007 105.747 66.1426 106.753 67.1878C105.737 66.9876 104.684 67.0147 103.723 67.3303C100.393 68.5622 97.9183 73.0724 99.7833 76.3813C100.135 77.0294 101.12 76.4525 100.768 75.8043C99.4617 73.388 100.961 70.6901 102.86 69.0984C104.471 67.7478 107.037 68.0362 108.706 69.2172C108.851 69.3598 109.007 69.577 109.21 69.6075C109.552 69.8247 109.955 69.6075 110.08 69.3021C109.779 68.8473 109.464 68.4163 109.108 68.0634C109.46 68.4163 109.775 68.8473 110.08 69.3021C110.151 69.1222 110.127 68.9118 109.934 68.7387Z" fill="#323232"/>
<path id="Vector_86" d="M18.7306 62.2769C18.5139 62.2192 18.277 62.2837 18.1416 62.5416C17.0009 64.7068 15.7925 66.8312 14.6146 68.976C13.0881 71.6977 11.7951 74.6943 11.6631 77.8606C11.7748 84.1084 13.3826 90.2543 13.562 96.4952C13.1862 101.996 13.1287 107.531 13.3521 113.043H14.4928C14.3337 107.932 14.2931 102.807 14.6146 97.7034C14.8346 92.9013 13.721 88.157 13.2438 83.3957C12.9087 80.5925 12.4721 77.7249 13.2878 74.959C13.7177 73.252 14.4522 71.6774 15.2814 70.1332C16.5406 67.7848 17.881 65.4805 19.1232 63.1219C19.3297 62.7283 19.0521 62.3651 18.7272 62.2803L18.7306 62.2769Z" fill="#323232"/>
<path id="Vector_87" d="M13.3555 113.043C13.3589 113.169 13.3656 113.294 13.369 113.423C13.3961 114.156 14.5368 114.159 14.5097 113.423C14.5063 113.297 14.5029 113.172 14.4961 113.043H13.3555Z" fill="#323232"/>
<path id="Vector_88" d="M35.1944 48.8452C34.4599 48.8452 34.4599 49.9889 35.1944 49.9889C35.9289 49.9889 35.9289 48.8452 35.1944 48.8452Z" fill="#323232"/>
<path id="Vector_89" d="M35.6679 42.5601C35.1805 42.7637 34.6931 43.1472 34.2023 42.9028C34.6897 43.1472 35.1771 42.7637 35.6679 42.5601C35.5969 42.4447 35.4885 42.3564 35.3565 42.3361C33.6709 42.0782 32.4828 43.2218 31.42 44.3689C30.5129 45.3531 29.4264 46.7071 28.0047 46.4288C27.2872 46.2897 26.9791 47.3926 27.7001 47.5318C28.2451 47.637 28.746 47.6031 29.2097 47.4707C29.1116 48.0001 29.0473 48.5329 29.0168 49.0657C28.2721 48.6042 27.2601 48.7467 26.6576 49.3881C25.632 50.4164 25.6523 52.1234 26.397 53.301C26.4714 53.1449 26.5391 52.982 26.5967 52.8123C26.5391 52.9854 26.4714 53.1449 26.397 53.301C26.7185 53.8576 28.4278 55.5714 28.9762 54.6585C29.1251 54.404 29.0473 54.0171 28.7731 53.8745C28.2789 53.6302 27.822 53.3044 27.4835 52.8666C27.5173 52.9107 27.5275 52.9175 27.5241 52.9141C27.3887 52.7478 27.2668 52.5307 27.1721 52.3236C27.0942 52.137 27.0435 51.9402 27.0096 51.7399C27.0028 51.5974 26.9927 51.4481 27.0028 51.3055C27.0028 51.2512 26.9893 51.051 27.0028 51.2377C27.0198 51.051 27.0841 50.8678 27.1382 50.6879C27.1992 50.5691 27.2601 50.4469 27.3379 50.3383L27.3312 50.3451C27.3312 50.3451 27.3413 50.3316 27.3481 50.3248C27.3819 50.2739 27.3785 50.284 27.365 50.3044C27.4429 50.223 27.5309 50.1313 27.5647 50.1008C27.6358 50.0601 27.6832 50.0227 27.761 49.9786C27.822 49.9684 27.8423 49.9515 27.9167 49.9345C27.9777 49.9345 28.0318 49.9243 28.0961 49.9345C28.0758 49.9141 28.1401 49.9345 28.1537 49.9345C28.1672 49.9345 28.1807 49.9345 28.1909 49.9345C28.1807 49.9345 28.1774 49.9345 28.1672 49.9345C28.2146 49.9447 28.262 49.9583 28.306 49.9718C28.3635 49.9922 28.438 50.0227 28.2992 49.965C28.4177 49.9956 28.5361 50.1008 28.6445 50.1653C28.8171 50.3112 28.966 50.4775 29.1048 50.654C29.5787 51.1359 30.3572 50.5114 29.9747 49.9379C30.0695 49.8395 30.1304 49.7037 30.1338 49.551C30.1473 48.6178 30.2827 47.6879 30.5264 46.7886C31.9751 45.8723 33.1835 43.2693 35.0519 43.4255C35.563 43.534 35.9726 43.0046 35.6679 42.5465V42.5601ZM27.9337 49.9379C27.9607 49.9311 27.9844 49.9243 27.9912 49.9311C27.9912 49.9345 27.9641 49.9379 27.9337 49.9379Z" fill="#323232"/>
<path id="Vector_90" d="M92.5736 107.379C92.5533 104.169 92.5363 100.955 92.516 97.7444C92.5127 97.0046 92.5059 96.2682 92.5025 95.5283C92.5025 95.1007 92.1166 94.9243 91.7951 94.9921C91.5615 95.0397 91.3618 95.2195 91.3618 95.5283C91.3957 101.365 91.4329 107.206 91.4667 113.043H92.6074C92.5973 111.156 92.5837 109.266 92.5736 107.379Z" fill="#323232"/>
<path id="Vector_91" d="M91.4668 113.043C91.4668 113.169 91.4668 113.294 91.4668 113.423C91.4702 114.159 92.6109 114.159 92.6075 113.423C92.6075 113.297 92.6075 113.172 92.6075 113.043H91.4668Z" fill="#323232"/>
<path id="Vector_92" d="M106.922 98.5319C104.63 100.056 102.176 101.308 99.5902 102.248C98.9064 102.496 99.2009 103.602 99.8948 103.351C102.572 102.377 105.124 101.097 107.497 99.5194C108.106 99.1156 107.534 98.1246 106.922 98.5319Z" fill="#323232"/>
<path id="Vector_93" d="M32.1886 104.029C29.0813 105.366 25.7575 106.215 22.393 106.537C21.6686 106.605 21.6619 107.752 22.393 107.681C25.9775 107.338 29.4571 106.439 32.764 105.017C33.4376 104.728 32.8554 103.741 32.1886 104.029Z" fill="#323232"/>
<path id="Vector_94" d="M86.8326 53.2569C87.5671 53.2569 87.5671 52.1133 86.8326 52.1133C86.0981 52.1133 86.0981 53.2569 86.8326 53.2569Z" fill="#323232"/>
<path id="Vector_95" d="M94.4824 52.4762C94.215 52.0553 93.687 51.6956 93.1387 51.6685C93.5008 52.1266 93.8766 52.5814 94.4824 52.4762Z" fill="#323232"/>
<path id="Vector_96" d="M102.962 55.51C103.595 54.4953 104.454 53.5858 104.722 52.3879C105.317 49.2589 103.375 45.2646 100.914 43.3641C96.7742 40.3675 90.5123 40.829 86.8635 44.4161C85.188 45.8517 84.4366 48.1695 84.7243 50.3347C84.9782 52.0417 84.7074 53.4704 83.4855 54.7498C83.1368 55.1333 82.6494 55.4388 82.426 55.9207C81.9488 56.9422 83.0691 57.4885 83.5329 58.2216C84.1218 59.1412 84.0135 60.2204 84.1861 61.2487C84.3858 62.0734 84.2267 62.9727 84.6126 63.7498C85.7668 65.691 88.4036 65.6605 90.272 64.9376C90.7323 65.5078 91.1893 66.0779 91.6496 66.648C91.7512 66.7736 91.8696 66.8313 91.9881 66.8381C92.4044 66.8686 92.8106 66.2781 92.4552 65.837C91.9272 65.182 91.3991 64.527 90.8711 63.872C90.7493 63.7227 90.492 63.6684 90.316 63.7261C89.4292 64.0078 88.5864 64.3336 87.6386 64.2691C86.9041 64.2182 85.8785 63.8686 85.5671 63.1186C85.4453 62.8234 85.4859 62.4636 85.4656 62.1548C85.4216 61.5847 85.2659 61.0519 85.2286 60.4851C85.9496 60.5293 86.5893 59.9863 87.2054 59.6605C87.5337 59.5112 87.7977 59.1209 87.5743 58.7747C87.4118 58.5236 87.0632 58.398 86.7924 58.5711C86.3727 58.8392 85.9395 59.1005 85.4825 59.3041C85.364 59.3652 85.2354 59.3652 85.1136 59.4195C85.0086 58.4116 84.5178 57.4512 83.7732 56.7589C83.2113 56.3551 83.6378 56.1989 83.9797 55.8901C87.8248 52.0655 84.4061 50.0293 86.6604 46.4082C87.0327 47.7284 87.51 49.0553 88.4645 50.07C89.4292 51.0983 90.9625 51.8822 92.401 51.7906C92.005 51.9501 91.6564 52.2487 91.4228 52.6254C91.0336 53.2532 92.0219 53.8268 92.4078 53.2023C92.5094 53.0259 92.6515 52.9139 92.7971 52.8494C92.8377 52.8392 92.9358 52.8189 92.9358 52.8121C92.9765 52.8121 93.0509 52.8121 93.0645 52.8121C93.122 52.8222 93.1829 52.8358 93.2371 52.8596C93.2506 52.8698 93.3285 52.9105 93.3319 52.9139C93.3556 52.9308 93.3657 52.9376 93.3725 52.941C93.4233 52.9784 93.4943 53.07 93.5316 53.1107C93.5823 53.1786 93.6399 53.2974 93.6737 53.3686C93.7211 53.4942 93.755 53.6265 93.7753 53.7623C93.8633 54.648 93.5383 55.622 93.0069 56.3415C92.8851 56.4942 92.7497 56.6333 92.6007 56.7589C92.594 56.7623 92.5974 56.7589 92.5872 56.7691C92.5331 56.803 92.4823 56.837 92.4281 56.8709C91.7952 57.2408 92.3672 58.2318 93.0035 57.8584C94.1036 57.2035 94.7433 55.8426 94.8889 54.6073C94.6926 54.5123 94.4928 54.4241 94.2762 54.3494C94.4928 54.4207 94.6926 54.5123 94.8889 54.6073C94.9701 53.8777 94.8753 53.0768 94.4793 52.4863C93.8768 52.5915 93.4977 52.1367 93.1355 51.6786C93.0272 51.6718 92.9189 51.6752 92.814 51.6888C92.8885 51.6413 92.9528 51.5802 92.9968 51.5055C92.8038 51.2612 92.6041 51.0372 92.3706 50.9184C92.6041 51.0338 92.8004 51.2612 92.9968 51.5055C93.2269 51.1695 92.9325 50.6096 92.5094 50.6469C91.2841 50.7657 90.0181 50.1005 89.2092 49.208C88.3968 48.3087 88.0279 47.1073 87.7131 45.9637C87.6488 45.7295 87.4829 45.6073 87.3001 45.5734C87.3814 45.4885 87.466 45.4037 87.554 45.3256C90.7391 42.217 96.1243 41.5858 99.8815 44.0496C101.618 45.1865 102.762 47.2091 103.358 49.1605C103.645 50.0971 103.828 51.1288 103.615 52.0994C103.375 53.182 102.542 54.027 101.97 54.9467C101.259 56.087 100.575 57.3256 100.135 58.6118C99.482 58.6186 98.8254 58.6118 98.1721 58.6017C97.8777 57.7974 97.6543 56.9727 97.441 56.1379C97.2684 55.2148 96.6287 55.0315 95.7859 55.1096C96.2631 55.398 96.7404 55.6831 97.3124 55.8765C96.7404 55.6865 96.2631 55.398 95.7859 55.1096C95.1157 55.1775 95.1326 56.2532 95.8468 56.2465C95.9923 56.2465 96.148 56.26 96.2936 56.2532C96.5373 57.2917 96.8182 58.3302 97.2244 59.3177C97.3226 59.5587 97.5019 59.7351 97.7727 59.7385C98.5411 59.7487 99.3094 59.7623 100.078 59.7555C100.125 60.0304 100.379 60.2272 100.525 60.458C98.3854 61.1944 96.4459 62.3517 94.8279 63.9603C93.8024 64.9071 93.1017 66.1322 92.1472 67.1367C92.3097 67.3709 92.5094 67.5711 92.7463 67.6933C92.506 67.5745 92.3097 67.3743 92.1472 67.1367C91.8527 67.4489 91.5515 67.7544 91.257 68.0632C90.9862 68.036 90.7323 68.2498 90.7086 68.5722C91.1013 68.3992 91.5244 68.3381 91.9881 68.4535C91.5278 68.3381 91.1013 68.3992 90.7086 68.5722C90.316 70.4218 90.2517 72.4308 90.6206 74.294C89.9132 78.2781 89.2464 82.4082 89.3547 86.484C88.7319 84.3765 88.2377 82.2284 87.9399 80.0496C87.8992 79.7408 87.5066 79.5779 87.2392 79.6492C86.9109 79.7374 86.7992 80.0496 86.8398 80.3517C87.3441 84.0236 88.346 87.7091 89.7237 91.1842C90.0181 91.9274 90.3262 92.6639 90.6545 93.3867C90.7526 93.6039 90.9253 93.6888 91.1013 93.682C90.976 94.1299 91.2807 94.6424 91.7918 94.4897C91.9847 94.4354 92.1573 94.2962 92.1844 94.0994C93.1525 87.1763 94.0731 80.2431 95.2544 73.3539C95.4271 72.5598 95.4338 71.8064 95.8434 71.07C97.942 68.148 100.87 65.7759 103.564 63.4173C103.676 63.3256 103.733 63.2204 103.75 63.1118C103.777 62.9354 103.693 62.7589 103.554 62.6333C102.738 61.5338 101.919 60.4308 101.086 59.3381C101.489 57.9942 102.21 56.7114 102.945 55.527L102.962 55.51ZM96.3545 56.2498C96.3545 56.2498 96.3545 56.2498 96.3579 56.2498C96.3579 56.2498 96.3579 56.2498 96.3545 56.2498ZM91.8121 88.6458C91.6632 89.6978 91.5176 90.7532 91.3721 91.8053C89.6153 87.0915 90.8914 79.7408 91.6936 74.7962C92.0084 74.8573 92.3232 74.9218 92.638 74.9829C92.8986 75.0338 93.1389 74.9455 93.2811 74.7216C93.5586 74.2838 93.8362 73.8426 94.1036 73.398C93.1728 78.4478 92.5263 83.5655 91.8121 88.6458ZM93.8937 71.4297C93.4808 72.2408 93.0035 73.0247 92.5161 73.7985C92.2352 73.7442 91.9542 73.6865 91.6733 73.6322C91.6733 73.6254 91.6733 73.6186 91.6733 73.6118C91.4838 72.0983 91.5007 70.5541 91.7918 69.0575C91.9746 69.0168 92.1133 68.82 92.2453 68.6876C92.8851 69.5157 93.5282 70.3471 94.1679 71.1752C94.063 71.2159 93.9648 71.2974 93.8971 71.4297H93.8937ZM101.256 61.4116C101.631 61.9173 102.011 62.4195 102.386 62.9252C100.741 64.3234 99.1368 65.7759 97.6069 67.2962C96.6659 68.2329 95.6674 69.2136 94.9566 70.3471C94.3135 69.5157 93.6737 68.6842 93.0306 67.8528C93.9005 66.9467 94.5267 65.8336 95.444 64.9614C97.0687 63.2815 99.042 62.1107 101.256 61.4116Z" fill="#323232"/>
<path id="Vector_97" d="M94.4452 97.6763C94.1033 97.0247 93.1183 97.6016 93.4602 98.2532C96.0462 103.205 98.7371 108.098 101.333 113.043H102.623C99.9353 107.901 97.1327 102.821 94.4452 97.6763Z" fill="#323232"/>
<path id="Vector_98" d="M102.623 113.043H101.333C101.452 113.267 101.57 113.488 101.686 113.712C102.071 114.414 103.087 113.688 102.623 113.043Z" fill="#323232"/>
<path id="Vector_99" d="M110.415 90.2207C110.415 90.2207 110.421 90.2414 110.425 90.2518C110.425 90.2449 110.425 90.238 110.425 90.2345C110.421 90.2311 110.418 90.2242 110.415 90.2207Z" fill="#323232"/>
<path id="Vector_100" d="M110.672 70.1606C110.608 70.0622 110.544 69.9434 110.449 69.8789C110.831 70.4864 111.207 71.104 111.623 71.647C111.308 71.1515 110.99 70.6561 110.669 70.164L110.672 70.1606Z" fill="#323232"/>
<path id="Vector_101" d="M121.057 86.6672C117.902 81.665 114.768 76.6525 111.627 71.6435C111.21 71.1039 110.834 70.4828 110.452 69.8754C110.009 69.5326 109.257 70.0485 109.609 70.6084C112.811 75.6955 116.01 80.786 119.212 85.8731C119.689 86.6299 120.464 87.5292 120.353 88.4591C119.53 95.277 118.748 102.095 117.892 108.906C115.719 108.526 113.546 108.142 111.376 107.762C111.444 102.064 111.508 96.3663 111.576 90.665C111.579 90.312 111.63 89.9862 111.43 89.6808C110.926 88.9037 110.33 88.1706 109.778 87.4274C107.389 84.1967 104.972 80.9659 102.349 77.9218C101.868 77.3652 101.063 78.1763 101.543 78.7295C104.691 82.4048 107.558 86.3143 110.415 90.217C110.405 90.1729 110.411 90.1254 110.442 90.0711C110.425 90.1016 110.422 90.1661 110.425 90.2306C110.435 90.2408 110.442 90.2543 110.452 90.2645C110.567 90.3901 110.466 90.3528 110.425 90.2476C110.391 96.2442 110.286 102.237 110.229 108.234C110.225 108.533 110.486 108.811 110.79 108.811C113.173 109.228 115.556 109.646 117.939 110.067C118.044 110.084 118.146 110.104 118.251 110.121C118.647 110.192 118.924 109.961 118.972 109.571C119.249 107.257 119.523 104.939 119.801 102.624C120.248 98.8844 120.691 95.1446 121.138 91.4048C121.25 90.4817 121.351 89.5553 121.47 88.6322C121.561 87.9229 121.446 87.2849 121.057 86.6638V86.6672Z" fill="#323232"/>
<path id="Vector_102" d="M65.546 104.868C65.546 104.868 65.546 104.85 65.5425 104.875C65.5425 104.875 65.5425 104.871 65.5425 104.868H65.546Z" fill="#323232"/>
<path id="Vector_103" d="M57.0505 103.388C57.0436 103.395 57.0333 103.405 57.0229 103.419C57.0298 103.419 57.0402 103.405 57.0539 103.388H57.0505Z" fill="#323232"/>
<path id="Vector_104" d="M57.5507 103.65C57.5507 103.633 57.5473 103.619 57.5439 103.605C57.5439 103.605 57.5371 103.599 57.5371 103.595C57.5371 103.602 57.5405 103.622 57.554 103.653L57.5507 103.65Z" fill="#323232"/>
<path id="Vector_105" d="M56.7148 105.166C56.7148 105.166 56.7216 105.166 56.725 105.166C56.7385 105.163 56.7487 105.159 56.7622 105.159C56.7521 105.156 56.7352 105.156 56.7148 105.166Z" fill="#323232"/>
<path id="Vector_106" d="M58.8715 104.638C58.8715 104.638 58.8646 104.627 58.8611 104.624C58.8543 104.617 58.8508 104.613 58.8474 104.606C58.8336 104.596 58.8371 104.606 58.8715 104.638Z" fill="#323232"/>
<path id="Vector_107" d="M58.7119 104.535C58.7119 104.535 58.6848 104.528 58.6713 104.525C58.6679 104.525 58.6611 104.525 58.6577 104.525C58.6949 104.538 58.7153 104.542 58.7153 104.538L58.7119 104.535Z" fill="#323232"/>
<path id="Vector_108" d="M57.8521 105.71C57.8521 105.71 57.8521 105.71 57.8521 105.713C57.8521 105.706 57.852 105.699 57.8556 105.696C57.8556 105.699 57.8556 105.703 57.8556 105.706L57.8521 105.71Z" fill="#323232"/>
<path id="Vector_109" d="M57.9028 105.93C57.9028 105.93 57.9062 105.936 57.9096 105.94C57.9096 105.94 57.9164 105.947 57.9164 105.95C57.9198 105.953 57.9265 105.957 57.9299 105.964C57.9299 105.967 57.9401 105.974 57.9502 105.984C57.9502 105.984 57.9502 105.981 57.9468 105.977C57.9536 105.984 57.957 105.987 57.9638 105.994C57.9671 105.994 57.9705 106.001 57.9773 106.004C57.9638 105.991 57.9468 105.974 57.9401 105.97C57.9333 105.96 57.9198 105.947 57.9028 105.933V105.93Z" fill="#323232"/>
<path id="Vector_110" d="M58.1468 106.065C58.0621 106.045 58.096 106.059 58.1468 106.065V106.065Z" fill="#323232"/>
<path id="Vector_111" d="M58.4341 105.947C58.4341 105.947 58.451 105.92 58.4612 105.906C58.4544 105.913 58.4442 105.933 58.4341 105.947Z" fill="#323232"/>
<path id="Vector_112" d="M58.0551 106.045C58.0551 106.045 58.0585 106.045 58.0618 106.045C58.0212 106.021 57.9975 106.008 57.9941 106.011C58.0144 106.021 58.0348 106.032 58.0551 106.042V106.045Z" fill="#323232"/>
<path id="Vector_113" d="M58.1942 106.072C58.1942 106.072 58.2213 106.072 58.2382 106.072C58.2382 106.072 58.2416 106.072 58.245 106.072C58.245 106.072 58.2484 106.072 58.2517 106.072C58.2111 106.072 58.1908 106.072 58.1807 106.076C58.184 106.076 58.1908 106.076 58.1942 106.076V106.072Z" fill="#323232"/>
<path id="Vector_114" d="M52.0912 102.367C52.0912 102.367 52.0879 102.367 52.0845 102.367C52.1285 102.397 52.1454 102.401 52.1352 102.39C52.1217 102.384 52.1082 102.377 52.0946 102.37C52.0946 102.37 52.0946 102.37 52.0912 102.37V102.367Z" fill="#323232"/>
<path id="Vector_115" d="M87.9974 93.1561L89.4088 91.5441C89.2768 91.164 88.6574 90.9638 88.3494 91.4118C87.0835 93.2613 85.8176 95.1109 84.5516 96.9604C84.1319 97.5747 83.7291 98.1482 83.0183 98.4706C79.1563 99.9943 75.2502 101.42 71.3814 102.926C71.7131 100.086 71.6048 96.4683 69.7431 94.1538C72.1599 93.1357 74.58 92.1176 76.9968 91.0995C77.2845 90.9808 77.4808 90.7228 77.3962 90.3971C77.3251 90.129 76.9832 89.8846 76.7023 89.9966C73.8827 91.181 71.0632 92.3688 68.2436 93.5532C67.9762 93.6652 67.7901 93.8993 67.8341 94.1946C67.8747 94.5577 68.3384 94.819 68.6634 94.6052C69.6856 95.7183 70.1358 97.3167 70.2847 98.7964C70.4675 100.34 70.4438 101.942 70.1425 103.469C70.0714 103.822 70.305 104.074 70.5758 104.152C70.7721 104.209 70.9853 104.182 71.1207 104.026C71.2358 104.107 71.3915 104.138 71.5743 104.067C75.4397 102.584 79.3086 101.114 83.174 99.6278C84.7953 99.0543 85.54 97.4661 86.481 96.1527C87.4321 94.7613 88.3866 93.3733 89.3377 91.9819C89.4461 91.8258 89.4596 91.6697 89.4122 91.5373L88.0008 93.1493L87.9974 93.1561Z" fill="#323232"/>
<path id="Vector_116" d="M51.1432 93.2477C51.1432 93.1798 51.1297 93.1153 51.1026 93.0576C51.0755 92.8608 50.9537 92.6809 50.7066 92.6097C49.681 92.3246 48.652 92.0395 47.6264 91.7511C45.1487 91.0621 42.6711 90.3698 40.1934 89.6809C39.3032 89.4332 38.413 89.1855 37.5228 88.9377C36.9101 88.768 36.2975 88.595 35.6814 88.4253C35.4479 88.3608 35.2583 88.4388 35.1365 88.578C34.886 88.8597 34.9063 89.3959 35.3802 89.5282C40.2205 90.8755 45.0607 92.2228 49.901 93.5735C49.2443 96.2273 48.5437 98.6843 47.5993 101.233C47.5655 101.779 48.4015 102.007 48.6486 101.504C49.7656 98.854 50.4493 96.0271 51.1432 93.2443V93.2477Z" fill="#323232"/>
<path id="Vector_117" d="M49.15 101.763C49.0485 102 49.062 102.262 49.2312 102.441C49.4513 102.706 49.986 102.676 50.135 102.34C50.2331 102.112 50.3245 101.878 50.4159 101.647L49.2346 101.556C49.2075 101.624 49.1805 101.695 49.1534 101.763H49.15Z" fill="#323232"/>
<path id="Vector_118" d="M66.5645 94.7102C66.8759 94.6525 67.1297 94.5371 67.3768 94.4184C67.0586 94.2419 66.6965 94.4319 66.5645 94.7102Z" fill="#323232"/>
<path id="Vector_119" d="M69.8071 104.298C69.6142 103.996 69.4314 103.683 69.269 103.361C69.4788 103.297 69.6515 103.123 69.6582 102.838C69.6684 100.235 69.5093 96.1902 67.3735 94.412C67.1264 94.5341 66.8725 94.6495 66.5611 94.7038C66.5374 94.7547 66.5171 94.809 66.5104 94.8667C64.9161 95.0771 63.4911 94.2762 62.0052 93.835C60.9796 93.4651 60.0995 93.2377 59.2906 94.171C58.072 94.0149 56.8907 94.3712 55.679 94.3746C54.6263 94.3984 53.5905 94.0285 52.6733 93.5432C52.5582 93.0816 51.8305 92.9459 51.6071 93.4414C50.8116 96.1224 50.3276 98.9595 49.2275 101.549L50.4088 101.64C51.2889 99.3938 51.8203 97.0251 52.4363 94.6936C53.3638 95.1891 54.4232 95.4776 55.4725 95.5149C56.4643 95.5488 57.4357 95.3181 58.4241 95.2841C58.028 95.8237 57.3646 96.4006 57.4052 97.1235C57.4492 97.904 58.1736 98.3995 58.8945 98.4504C60.0589 98.5353 60.9322 97.8735 61.555 96.9945C63.1899 99.0579 65.1361 101.07 66.8048 103.039C66.8184 103.059 66.8827 103.195 66.8725 103.161C67.0756 103.673 66.6017 103.907 66.1583 103.612C65.522 102.967 64.889 102.319 64.2493 101.674C64.0394 101.464 63.6502 101.447 63.4437 101.674C63.2339 101.902 63.2169 102.258 63.4437 102.482C64.1308 103.174 64.8146 103.873 65.5017 104.566C65.5152 104.593 65.5321 104.627 65.5525 104.651C65.5592 104.678 65.5694 104.702 65.5728 104.732V104.742C65.5728 104.742 65.5728 104.766 65.5728 104.783C65.5728 104.793 65.566 104.803 65.566 104.817C65.5626 104.83 65.5558 104.844 65.5491 104.854C65.5491 104.854 65.5491 104.854 65.5491 104.861C65.5491 104.861 65.5491 104.864 65.5491 104.868C65.5491 104.868 65.5491 104.868 65.5491 104.864C65.5254 104.898 65.4881 104.926 65.4611 104.953C65.5491 104.878 65.4611 104.936 65.4171 104.966C65.39 104.973 65.3561 104.98 65.3358 104.993C65.2817 105 65.2241 104.997 65.17 104.993C65.1429 104.983 65.0007 104.929 65.0481 104.953C64.977 104.922 64.9026 104.871 64.8349 104.824C64.8213 104.814 64.8112 104.803 64.801 104.793C64.757 104.729 64.6995 104.678 64.6352 104.637C64.2764 104.254 63.877 103.918 63.5013 103.551C63.0985 103.188 62.5501 102.289 61.9544 102.821C61.7581 103.035 61.7141 103.422 61.9544 103.629C62.5603 104.213 63.1594 104.793 63.7619 105.38C63.7585 105.394 63.7551 105.411 63.7483 105.424C63.7314 105.462 63.6874 105.533 63.6603 105.564C63.6434 105.58 63.6231 105.601 63.6062 105.618C63.5994 105.618 63.5453 105.655 63.5351 105.662C63.4911 105.689 63.5656 105.662 63.481 105.689C63.4708 105.689 63.4031 105.709 63.3794 105.716C63.3252 105.723 63.2779 105.72 63.2339 105.716C63.1831 105.706 63.1222 105.686 63.0748 105.672C62.3132 105.211 61.6159 104.532 60.8882 103.989C60.5836 103.717 60.0589 103.799 59.9472 104.226C59.8389 103.979 59.6629 103.761 59.4361 103.609C59.2093 103.47 58.9318 103.375 58.661 103.375C58.5933 103.079 58.4241 102.832 58.1837 102.638C57.2563 101.895 56.3356 102.194 55.7602 103.178C54.9919 102.692 53.9933 102.591 53.3604 101.888C53.0761 101.637 52.7951 101.396 52.4363 101.267C52.0877 101.142 51.6511 101.121 51.3464 101.081C50.9843 101.013 50.595 101.254 50.6322 101.657C50.6898 102.414 51.5698 102.146 52.0979 102.36C52.0911 102.357 52.0911 102.357 52.0843 102.35C52.0911 102.357 52.1012 102.36 52.108 102.363C52.1317 102.37 52.1419 102.377 52.1486 102.384C52.1486 102.384 52.152 102.384 52.1554 102.384C52.2062 102.418 52.2569 102.448 52.3077 102.482C52.5243 102.659 52.7274 102.862 52.9474 103.025C52.5819 103.48 52.5683 104.182 52.8628 104.678C53.3401 105.401 54.4503 105.682 55.1983 105.234C55.442 105.876 56.1664 106.331 56.8366 106.286C57.0769 106.979 57.9231 107.352 58.6068 107.142C58.8607 107.559 59.3041 107.844 59.8051 107.861C60.2112 107.892 60.6242 107.719 60.9051 107.42C61.687 107.881 62.7803 107.668 63.2203 106.84C63.8059 106.894 64.4219 106.565 64.7062 106.039C65.5592 106.351 66.6424 105.828 66.7168 104.868C67.4107 104.807 68.0707 104.203 68.0707 103.453C68.284 103.945 68.548 104.406 68.8323 104.861C68.9948 105.112 69.3468 105.238 69.6142 105.065C69.8647 104.902 69.9899 104.552 69.8173 104.281L69.8071 104.298ZM65.5051 104.579C65.5051 104.579 65.5051 104.579 65.5084 104.583C65.5355 104.61 65.5423 104.64 65.5051 104.579ZM52.2569 102.462C52.2569 102.462 52.2705 102.472 52.2908 102.489C52.2671 102.472 52.2569 102.462 52.2569 102.462ZM53.8647 103.677C53.8647 103.677 53.8613 103.677 53.8579 103.68C53.8579 103.68 53.8613 103.677 53.8647 103.673V103.677ZM54.6026 104.271C54.6026 104.271 54.6128 104.257 54.6161 104.25C54.606 104.264 54.5925 104.274 54.5823 104.284C54.5823 104.284 54.5789 104.284 54.5755 104.288C54.5451 104.298 54.518 104.304 54.4875 104.311C54.4232 104.315 54.3589 104.311 54.2946 104.311C54.21 104.294 54.1253 104.274 54.0441 104.243C53.9866 104.216 53.9324 104.182 53.8783 104.148C53.8681 104.138 53.8546 104.128 53.8444 104.114C53.8343 104.097 53.8241 104.081 53.8139 104.06C53.8072 104.033 53.8004 104.006 53.7936 103.979C53.7936 103.938 53.7936 103.901 53.7936 103.86C53.8004 103.826 53.8106 103.792 53.8207 103.761C53.8309 103.741 53.841 103.721 53.8546 103.704C53.8816 103.677 53.9053 103.646 53.9358 103.622C53.9155 103.639 53.8952 103.653 53.8749 103.67C53.8749 103.67 53.8749 103.67 53.8749 103.666C53.8952 103.653 53.9087 103.636 53.9256 103.619C54.2709 103.778 54.65 103.877 54.9817 104.053C54.8328 104.07 54.6974 104.145 54.5992 104.274L54.6026 104.271ZM58.8945 104.657C58.8945 104.657 58.8844 104.651 58.8776 104.644C58.8844 104.651 58.8878 104.657 58.8945 104.661V104.657ZM58.8878 104.664C58.9013 104.698 58.9047 104.719 58.8878 104.664V104.664ZM58.6305 104.515C58.6305 104.515 58.6305 104.515 58.6271 104.515C58.6271 104.515 58.6271 104.515 58.6305 104.515ZM56.8535 103.585C56.8535 103.585 56.8366 103.609 56.8129 103.636C56.8095 103.636 56.8264 103.612 56.8535 103.585ZM56.2544 104.864C56.2544 104.864 56.2544 104.868 56.2578 104.871C56.2578 104.875 56.2578 104.878 56.2578 104.881C56.251 104.875 56.2544 104.875 56.251 104.875C56.251 104.875 56.251 104.868 56.251 104.864H56.2544ZM56.2578 104.888C56.2578 104.888 56.2578 104.881 56.2578 104.875C56.2578 104.875 56.2612 104.881 56.2645 104.881C56.2645 104.885 56.2645 104.888 56.2612 104.888H56.2578ZM56.4101 105.034L56.4304 105.048C56.4304 105.048 56.4202 105.041 56.4101 105.034ZM56.6944 105.18C56.6944 105.18 56.7012 105.177 56.7046 105.173C56.7046 105.173 56.708 105.173 56.7113 105.173C56.7046 105.173 56.6978 105.177 56.6944 105.18ZM57.5508 103.65C57.5508 103.694 57.544 103.734 57.544 103.778C57.544 103.592 57.544 103.745 57.5305 103.806C57.5135 103.873 57.4898 103.945 57.4628 104.009C57.2664 104.406 57.0295 104.78 56.7858 105.15C56.7858 105.15 56.779 105.153 56.779 105.156C56.7892 105.139 56.7892 105.129 56.7655 105.16C56.7655 105.16 56.7621 105.16 56.7587 105.163C56.7553 105.163 56.752 105.163 56.7452 105.163C56.7418 105.163 56.735 105.163 56.7317 105.163C56.7283 105.163 56.7215 105.163 56.7181 105.163C56.6572 105.153 56.6267 105.15 56.5759 105.129C56.5184 105.095 56.4609 105.061 56.4067 105.027C56.4033 105.027 56.4067 105.027 56.3999 105.024C56.3525 104.976 56.3255 104.953 56.2849 104.909C56.2815 104.902 56.2781 104.898 56.2747 104.892C56.2747 104.892 56.2713 104.881 56.2544 104.858C56.2544 104.837 56.2544 104.817 56.2544 104.8C56.2882 104.62 56.3593 104.454 56.4236 104.284C56.4033 104.359 56.3966 104.376 56.3999 104.366C56.4981 104.101 56.6843 103.826 56.8569 103.588C56.9043 103.541 56.9754 103.47 57.0194 103.422C57.0058 103.426 57.0024 103.415 57.0397 103.395C57.0397 103.395 57.0431 103.395 57.0464 103.395C57.0498 103.388 57.0566 103.385 57.0566 103.381C57.0566 103.388 57.0498 103.388 57.0464 103.395C57.0566 103.388 57.0667 103.385 57.0769 103.378C57.0837 103.378 57.0803 103.378 57.0871 103.378C57.104 103.378 57.1209 103.378 57.1378 103.378C57.1717 103.392 57.192 103.398 57.2157 103.402C57.3037 103.449 57.3917 103.497 57.4797 103.551C57.4797 103.551 57.4797 103.551 57.4831 103.551C57.4932 103.561 57.5034 103.571 57.5135 103.582C57.5169 103.588 57.5203 103.592 57.5237 103.599V103.595C57.5237 103.595 57.5237 103.595 57.5271 103.599C57.5271 103.599 57.5271 103.599 57.5271 103.605C57.5271 103.605 57.5271 103.609 57.5271 103.612C57.5271 103.619 57.5271 103.622 57.5271 103.626C57.5305 103.643 57.5338 103.663 57.5372 103.68C57.5338 103.666 57.5305 103.663 57.5271 103.653L57.5508 103.65ZM57.8419 105.771C57.8419 105.771 57.8419 105.764 57.8419 105.76C57.8419 105.764 57.8419 105.767 57.8419 105.771ZM58.9081 104.851C58.881 104.993 58.8336 105.133 58.7828 105.268C58.6813 105.482 58.5865 105.703 58.4613 105.906C58.4951 105.859 58.4579 105.93 58.4342 105.947C58.4274 105.957 58.4207 105.967 58.4173 105.978C58.4274 105.964 58.4308 105.957 58.4342 105.947C58.4139 105.967 58.397 105.988 58.3767 106.005C58.353 106.022 58.3259 106.035 58.2988 106.049C58.2819 106.056 58.265 106.059 58.248 106.062C58.2548 106.062 58.265 106.062 58.2751 106.062C58.2616 106.062 58.248 106.062 58.2345 106.062C58.1973 106.069 58.16 106.069 58.177 106.062C58.1668 106.062 58.1567 106.062 58.1431 106.062C58.16 106.066 58.177 106.069 58.204 106.076C58.1567 106.066 58.1059 106.059 58.0619 106.042C58.072 106.049 58.0788 106.052 58.0923 106.059C58.0788 106.052 58.0686 106.045 58.0551 106.039C58.028 106.032 57.9908 106.008 57.9942 106.008C57.9874 106.008 57.9806 106.001 57.9773 105.995C57.9874 106.005 57.9908 106.008 58.0043 106.022C57.9908 106.008 57.9773 105.995 57.9637 105.984C57.9603 105.984 57.9536 105.978 57.9502 105.974C57.9502 105.984 57.9231 105.957 57.9096 105.933C57.9028 105.923 57.8926 105.913 57.8825 105.903C57.8926 105.91 57.896 105.916 57.9028 105.923C57.8926 105.906 57.8825 105.886 57.8723 105.869C57.8723 105.862 57.8656 105.852 57.8656 105.845C57.8656 105.845 57.8656 105.842 57.8656 105.838C57.8689 105.852 57.8554 105.76 57.8554 105.713C57.8554 105.723 57.8486 105.74 57.8452 105.754C57.8452 105.737 57.8486 105.723 57.8554 105.706C57.8554 105.662 57.8757 105.614 57.8554 105.696C57.8656 105.645 57.8825 105.594 57.896 105.547C58.0754 105.2 58.3394 104.909 58.5662 104.593C58.5865 104.576 58.6068 104.549 58.6238 104.528C58.6271 104.528 58.6305 104.525 58.6339 104.522C58.6407 104.522 58.6441 104.522 58.6508 104.518C58.6508 104.518 58.6508 104.518 58.6542 104.518C58.6576 104.518 58.661 104.518 58.6644 104.518C58.6914 104.518 58.705 104.525 58.705 104.528C58.7151 104.528 58.7287 104.535 58.7388 104.535C58.7693 104.552 58.7998 104.569 58.8302 104.586C58.8302 104.586 58.837 104.593 58.8404 104.596C58.8438 104.596 58.8505 104.607 58.8539 104.613C58.8607 104.62 58.8641 104.623 58.8708 104.63C58.8708 104.63 58.8641 104.627 58.8641 104.623C58.8641 104.623 58.8641 104.623 58.8675 104.63C58.8708 104.637 58.8742 104.644 58.8776 104.651C58.8878 104.678 58.8945 104.708 58.9013 104.739C58.9013 104.769 58.8945 104.81 58.9013 104.841L58.9081 104.851ZM60.1909 106.398C60.1808 106.436 60.1706 106.476 60.1605 106.514C60.1435 106.544 60.1266 106.578 60.1063 106.605C60.086 106.629 60.0657 106.65 60.042 106.67C60.0217 106.683 59.998 106.697 59.9743 106.711C59.9404 106.721 59.9066 106.731 59.8727 106.738C59.8524 106.738 59.8321 106.738 59.8118 106.738C59.7814 106.731 59.7509 106.724 59.7204 106.714C59.7001 106.704 59.6832 106.69 59.6629 106.68C59.6392 106.66 59.6189 106.636 59.5952 106.612C59.5783 106.585 59.5613 106.561 59.5478 106.531C59.5377 106.504 59.5309 106.476 59.5241 106.446C59.5241 106.419 59.5241 106.388 59.5241 106.361C59.5275 106.344 59.5343 106.327 59.5377 106.31C59.5512 106.286 59.5613 106.266 59.5783 106.242C59.6053 106.212 59.6358 106.181 59.6663 106.154C59.6967 106.134 59.7272 106.117 59.7577 106.1C59.7949 106.086 59.8355 106.076 59.8761 106.066C59.8998 106.066 59.9201 106.066 59.9438 106.066C59.9743 106.073 60.0014 106.079 60.0318 106.09C60.0555 106.103 60.0826 106.117 60.1063 106.134C60.1198 106.147 60.1368 106.161 60.1503 106.178C60.1605 106.191 60.1672 106.208 60.1774 106.225C60.1841 106.246 60.1909 106.266 60.1943 106.29C60.1943 106.327 60.1943 106.364 60.1943 106.398H60.1909ZM60.0386 104.932C60.0488 104.881 60.0521 104.83 60.0488 104.78C60.1232 104.854 60.2112 104.912 60.2925 104.98C60.2078 104.956 60.1232 104.939 60.0352 104.932H60.0386ZM62.0187 106.493C61.9781 106.507 61.9375 106.517 61.8935 106.527C61.8326 106.527 61.7716 106.527 61.7107 106.527C61.643 106.514 61.5753 106.493 61.5076 106.47C61.4501 106.442 61.3891 106.415 61.335 106.378C61.3418 106.144 61.2977 105.91 61.186 105.696C61.4873 105.94 61.7852 106.212 62.1101 106.436C62.1 106.442 62.0864 106.453 62.0729 106.466C62.0559 106.476 62.0356 106.487 62.0153 106.497L62.0187 106.493ZM62.0932 106.456C62.0932 106.456 62.0864 106.456 62.083 106.459C62.0966 106.449 62.1101 106.439 62.1169 106.436C62.1169 106.436 62.1101 106.442 62.0932 106.453V106.456ZM65.5694 104.827C65.5694 104.827 65.5694 104.814 65.5694 104.803C65.5694 104.814 65.5694 104.824 65.5694 104.827ZM65.5795 104.769L65.5863 104.749C65.5863 104.749 65.5863 104.759 65.5795 104.769ZM68.1215 101.549C67.8744 101.702 67.5901 101.783 67.3295 101.915C66.0162 100.466 64.7469 98.9764 63.4573 97.507C63.1323 97.1371 62.8108 96.7705 62.4858 96.4006C62.3267 96.2208 62.1372 96.1868 61.9679 96.2377C62.0221 95.7015 61.2233 95.3248 60.9085 95.8916C60.5023 96.6144 59.866 97.4662 58.9115 97.3135C58.1736 97.1914 58.837 96.6246 59.0638 96.3328C59.382 95.9119 59.6832 95.4776 60.0284 95.0771C60.1672 94.9176 60.3534 94.6767 60.5734 94.6291C62.4757 94.9787 64.3576 96.231 66.4867 96.0104C66.7507 95.9866 66.9199 95.8203 66.991 95.6235C68.2569 97.2592 68.3923 99.4889 68.5108 101.481C68.3788 101.461 68.2366 101.471 68.1215 101.545V101.549Z" fill="#323232"/>
<path id="Vector_120" d="M25.9438 68.5757C24.1431 66.9467 22.2476 65.4297 20.2675 64.0282C20.017 63.8517 19.6345 63.984 19.4856 64.2318C19.3197 64.5168 19.4382 64.8358 19.6886 65.0157C21.5909 66.3596 23.4085 67.8189 25.1348 69.3834C25.6798 69.8754 26.4887 69.0677 25.9404 68.5757H25.9438Z" fill="#323232"/>
<path id="Vector_121" d="M47.3321 84.438C45.352 84.8147 43.3719 85.188 41.3918 85.5647C40.9551 85.6902 40.0615 85.6156 40.1259 86.257C40.1495 86.5794 40.4237 86.9086 40.8367 86.8305C42.8608 86.447 44.8815 86.0635 46.9056 85.6801C46.8921 87.1902 46.8785 88.697 46.8616 90.2072C46.8616 90.4617 46.8582 90.7162 46.8548 90.9708C46.8515 91.4289 47.2915 91.602 47.6266 91.49C47.8297 91.4221 47.9921 91.2491 47.9955 90.9708C48.0124 89.2332 48.0294 87.4923 48.0429 85.7547C48.0429 85.5002 48.0463 85.2457 48.0497 84.9911C48.0531 84.5941 47.6841 84.3735 47.3287 84.4414L47.3321 84.438Z" fill="#323232"/>
<path id="Vector_122" d="M46.6517 103.826C46.3234 103.741 45.9206 103.917 45.9206 104.355V106.941C44.6885 107.243 43.4565 107.545 42.2244 107.847C42.0315 107.895 41.8385 107.942 41.6456 107.99C41.2428 108.088 41.1649 108.485 41.3037 108.781C41.4087 109.005 41.6422 109.167 41.9502 109.093C43.514 108.709 45.0812 108.326 46.6449 107.942C46.8887 107.885 47.0647 107.637 47.0647 107.393V104.359C47.0647 104.06 46.8785 103.887 46.6551 103.829L46.6517 103.826Z" fill="#323232"/>
<path id="Vector_123" d="M110.208 113.131C110.205 113.165 110.191 113.24 110.188 113.26C110.188 113.247 110.195 113.216 110.205 113.155C110.127 113.477 110.215 113.888 110.587 113.973C110.865 114.037 111.234 113.888 111.288 113.572C111.318 113.396 111.342 113.219 111.362 113.043H110.215C110.215 113.07 110.208 113.101 110.205 113.128L110.208 113.131Z" fill="#323232"/>
<path id="Vector_124" d="M117.327 113.043C117.323 113.08 117.32 113.118 117.313 113.155C117.228 113.477 117.323 113.888 117.692 113.973C117.97 114.037 118.339 113.888 118.393 113.572C118.423 113.396 118.444 113.219 118.464 113.043H117.327Z" fill="#323232"/>
<path id="Vector_125" d="M118.487 110.752C118.47 110.471 118.264 110.202 117.969 110.186C117.658 110.158 117.323 110.42 117.347 110.752C117.347 110.752 117.347 110.756 117.347 110.759C115.174 110.342 113.007 109.775 110.828 109.432C110.34 109.514 110.154 110.223 110.574 110.471C110.398 111.319 110.323 112.184 110.222 113.043H111.369C111.423 112.592 111.464 112.14 111.521 111.692C111.582 111.387 111.599 111.048 111.687 110.739C113.583 111.115 115.475 111.577 117.374 111.906C117.374 112.286 117.367 112.666 117.326 113.043H118.464C118.545 112.286 118.535 111.509 118.487 110.752Z" fill="#323232"/>
<path id="Vector_126" d="M64.0804 7.53035V0.539401C64.0804 -0.180056 62.9634 -0.183449 62.9634 0.539401V7.52696C62.9634 8.24641 64.0804 8.24981 64.0804 7.52696V7.53035Z" fill="#323232"/>
<path id="Vector_127" d="M50.0706 11.6131C48.7065 9.72964 47.339 7.84276 45.975 5.95928C45.799 5.71494 45.4909 5.59616 45.21 5.75905C44.9697 5.90159 44.8309 6.27828 45.0103 6.52602C46.3744 8.40951 47.7418 10.2964 49.1059 12.1799C49.2819 12.4242 49.5899 12.543 49.8709 12.3801C50.1112 12.2376 50.25 11.8609 50.0706 11.6131Z" fill="#323232"/>
<path id="Vector_128" d="M38.8501 18.8857C36.8192 17.7556 34.7849 16.6255 32.754 15.4988C32.1245 15.1492 31.5592 16.1164 32.1888 16.466C34.2197 17.5961 36.2539 18.7262 38.2848 19.8528C38.9144 20.2024 39.4796 19.2352 38.8501 18.8857Z" fill="#323232"/>
<path id="Vector_129" d="M88.7552 19.8528C90.7861 18.7228 92.8203 17.5927 94.8512 16.466C95.4808 16.1164 94.9189 15.1492 94.286 15.4988C92.2551 16.6289 90.2208 17.759 88.1899 18.8857C87.5604 19.2352 88.1222 20.2024 88.7552 19.8528Z" fill="#323232"/>
<path id="Vector_130" d="M77.9411 12.1765C79.1359 10.5272 80.3341 8.87445 81.529 7.22513C81.6982 6.99097 81.8674 6.75681 82.0367 6.52264C82.2127 6.2783 82.0773 5.89821 81.837 5.75568C81.556 5.58939 81.2514 5.71156 81.072 5.9559C79.7079 7.83939 78.3405 9.72626 76.9764 11.6097C76.6278 12.2478 77.5146 12.7975 77.9411 12.1765Z" fill="#323232"/>
<path id="Vector_131" d="M110.032 29.5147C110.158 29.2704 110.276 28.9582 110.469 28.7647C110.662 28.5713 110.97 28.4525 111.217 28.3269C110.973 28.2014 110.662 28.0826 110.469 27.8892C110.276 27.6957 110.158 27.3869 110.032 27.1392C109.907 27.3835 109.789 27.6957 109.596 27.8892C109.403 28.0826 109.095 28.2014 108.848 28.3269C109.091 28.4525 109.403 28.5713 109.596 28.7647C109.789 28.9582 109.907 29.267 110.032 29.5147Z" fill="#FFD44A"/>
<path id="Vector_132" d="M117.58 39.5665H118.69C118.762 40.1027 118.416 41.1582 119.222 41.2091C120.027 41.1378 119.682 40.1129 119.753 39.5665C120.288 39.4953 121.341 39.8414 121.392 39.0337C121.32 38.226 120.298 38.5722 119.753 38.5009C119.682 37.9647 120.027 36.9093 119.222 36.8584C118.416 36.9297 118.762 37.9546 118.69 38.5009C118.156 38.5722 117.103 38.226 117.052 39.0337C117.066 39.3222 117.286 39.5665 117.584 39.5665H117.58Z" fill="#323232"/>
<path id="Vector_133" d="M107.47 28.7887C107.923 29.0364 108.377 29.2841 108.827 29.5353C109.074 29.99 109.321 30.4448 109.572 30.8961C109.761 31.2423 110.3 31.2423 110.486 30.8961C110.733 30.4414 110.98 29.9866 111.23 29.5353C111.684 29.2875 112.138 29.0398 112.588 28.7887C112.933 28.5986 112.933 28.059 112.588 27.8724C112.134 27.6246 111.681 27.3769 111.23 27.1258C110.983 26.671 110.736 26.2163 110.486 25.7649C110.377 25.5647 110.201 25.4934 110.029 25.507C109.856 25.4934 109.68 25.5647 109.572 25.7649C109.325 26.2196 109.078 26.6744 108.827 27.1258C108.374 27.3735 107.92 27.6212 107.47 27.8724C107.125 28.0624 107.125 28.602 107.47 28.7887ZM108.847 28.3305C109.091 28.2049 109.403 28.0862 109.596 27.8927C109.788 27.6993 109.907 27.3905 110.032 27.1427C110.157 27.3871 110.276 27.6993 110.469 27.8927C110.662 28.0862 110.97 28.2049 111.217 28.3305C110.973 28.4561 110.662 28.5748 110.469 28.7683C110.276 28.9617 110.157 29.2706 110.032 29.5183C109.907 29.2739 109.788 28.9617 109.596 28.7683C109.403 28.5748 109.095 28.4561 108.847 28.3305Z" fill="#323232"/>
<path id="Vector_134" d="M4.50071 34.4798C4.257 34.3542 3.9456 34.2354 3.75267 34.042C3.55974 33.8486 3.44127 33.5397 3.31603 33.292C3.19079 33.5363 3.07232 33.8486 2.87939 34.042C2.68646 34.2354 2.37844 34.3542 2.13135 34.4798C2.37505 34.6053 2.68646 34.7241 2.87939 34.9176C3.07232 35.111 3.19079 35.4198 3.31603 35.6676C3.44127 35.4232 3.55974 35.111 3.75267 34.9176C3.9456 34.7241 4.25362 34.6053 4.50071 34.4798Z" fill="#FFD44A"/>
<path id="Vector_135" d="M13.2914 24.9707V23.8576C13.8262 23.7863 14.8789 24.1324 14.9297 23.3248C14.8586 22.5171 13.8364 22.8632 13.2914 22.7919C13.2203 22.2558 13.5656 21.2003 12.76 21.1494C11.9544 21.2207 12.2997 22.2456 12.2286 22.7919C11.6938 22.8632 10.6411 22.5171 10.5903 23.3248C10.6614 24.1324 11.6836 23.7863 12.2286 23.8576C12.2997 24.3938 11.9544 25.4492 12.76 25.5001C13.0477 25.4865 13.2914 25.2659 13.2914 24.9673V24.9707Z" fill="#323232"/>
<path id="Vector_136" d="M3.77666 37.0451C4.02375 36.5904 4.27084 36.1356 4.52132 35.6843C4.97488 35.4365 5.42845 35.1888 5.87863 34.9377C6.22388 34.7476 6.22388 34.208 5.87863 34.0214C5.42506 33.7736 4.9715 33.5259 4.52132 33.2748C4.27423 32.82 4.02714 32.3653 3.77666 31.9139C3.58711 31.5678 3.04893 31.5678 2.86276 31.9139C2.61567 32.3687 2.36858 32.8234 2.11811 33.2748C1.66454 33.5225 1.21098 33.7702 0.760801 34.0214C0.561098 34.13 0.490017 34.3064 0.503556 34.4795C0.490017 34.6526 0.561098 34.8291 0.760801 34.9377C1.21437 35.1854 1.66793 35.4331 2.11811 35.6843C2.3652 36.139 2.61229 36.5938 2.86276 37.0451C3.05231 37.3913 3.5905 37.3913 3.77666 37.0451ZM3.31971 35.6639C3.19448 35.4196 3.07601 35.1074 2.88307 34.9139C2.69014 34.7205 2.38212 34.6017 2.13503 34.4761C2.37874 34.3506 2.69014 34.2318 2.88307 34.0383C3.07601 33.8449 3.19448 33.5361 3.31971 33.2883C3.44495 33.5327 3.56342 33.8449 3.75635 34.0383C3.94929 34.2318 4.2573 34.3506 4.5044 34.4761C4.26069 34.6017 3.94929 34.7205 3.75635 34.9139C3.56342 35.1074 3.44495 35.4162 3.31971 35.6639Z" fill="#323232"/>
</g>
<defs>
<clipPath id="clip0_282_221">
<rect width="121" height="114" fill="white" transform="translate(0.5)"/>
</clipPath>
</defs>
</svg>
