<svg width="91" height="18" viewBox="0 0 91 18" fill="none" xmlns="http://www.w3.org/2000/svg">
<path d="M2.82 14L0.012 5.204H1.176L2.604 9.968C2.756 10.48 2.892 10.964 3.012 11.42C3.14 11.868 3.288 12.352 3.456 12.872H3.504C3.672 12.352 3.816 11.868 3.936 11.42C4.064 10.964 4.204 10.48 4.356 9.968L5.772 5.204H6.9L4.104 14H2.82ZM8.00634 14V7.484H9.11034V14H8.00634ZM8.55834 6.14C8.34234 6.14 8.16634 6.076 8.03034 5.948C7.90234 5.812 7.83834 5.632 7.83834 5.408C7.83834 5.192 7.90234 5.02 8.03034 4.892C8.16634 4.764 8.34234 4.7 8.55834 4.7C8.77434 4.7 8.95034 4.764 9.08634 4.892C9.22234 5.02 9.29034 5.192 9.29034 5.408C9.29034 5.632 9.22234 5.812 9.08634 5.948C8.95034 6.076 8.77434 6.14 8.55834 6.14ZM13.951 14.156C13.367 14.156 12.839 14.02 12.367 13.748C11.895 13.476 11.519 13.088 11.239 12.584C10.967 12.072 10.831 11.46 10.831 10.748C10.831 10.212 10.911 9.736 11.071 9.32C11.231 8.896 11.447 8.536 11.719 8.24C11.999 7.936 12.315 7.708 12.667 7.556C13.019 7.396 13.379 7.316 13.747 7.316C14.307 7.316 14.779 7.44 15.163 7.688C15.547 7.936 15.839 8.292 16.039 8.756C16.247 9.212 16.351 9.752 16.351 10.376C16.351 10.496 16.347 10.608 16.339 10.712C16.331 10.816 16.319 10.912 16.303 11H11.911C11.935 11.464 12.039 11.868 12.223 12.212C12.415 12.548 12.667 12.812 12.979 13.004C13.291 13.188 13.655 13.28 14.071 13.28C14.391 13.28 14.679 13.236 14.935 13.148C15.199 13.052 15.455 12.924 15.703 12.764L16.087 13.496C15.807 13.68 15.491 13.836 15.139 13.964C14.787 14.092 14.391 14.156 13.951 14.156ZM11.899 10.22H15.391C15.391 9.564 15.247 9.064 14.959 8.72C14.679 8.368 14.283 8.192 13.771 8.192C13.467 8.192 13.179 8.272 12.907 8.432C12.643 8.592 12.419 8.82 12.235 9.116C12.059 9.412 11.947 9.78 11.899 10.22ZM19.0227 14L17.2107 7.484H18.3267L19.2987 11.252C19.3707 11.564 19.4347 11.868 19.4907 12.164C19.5547 12.46 19.6187 12.76 19.6827 13.064H19.7427C19.8147 12.76 19.8827 12.46 19.9467 12.164C20.0187 11.868 20.0947 11.564 20.1747 11.252L21.1947 7.484H22.2627L23.2827 11.252C23.3627 11.564 23.4387 11.868 23.5107 12.164C23.5907 12.46 23.6667 12.76 23.7387 13.064H23.7987C23.8627 12.76 23.9267 12.46 23.9907 12.164C24.0547 11.868 24.1227 11.564 24.1947 11.252L25.1427 7.484H26.1987L24.4347 14H23.1027L22.1667 10.484C22.0867 10.18 22.0107 9.876 21.9387 9.572C21.8667 9.26 21.7947 8.94 21.7227 8.612H21.6627C21.5907 8.94 21.5187 9.26 21.4467 9.572C21.3827 9.884 21.3067 10.196 21.2187 10.508L20.2947 14H19.0227ZM30.2954 14V7.484H31.1954L31.3034 8.432H31.3274C31.6154 8.12 31.9274 7.856 32.2634 7.64C32.6074 7.424 32.9714 7.316 33.3554 7.316C33.8594 7.316 34.2514 7.428 34.5314 7.652C34.8114 7.876 35.0194 8.18 35.1554 8.564C35.4994 8.196 35.8434 7.896 36.1874 7.664C36.5394 7.432 36.9154 7.316 37.3154 7.316C37.9794 7.316 38.4714 7.536 38.7914 7.976C39.1194 8.408 39.2834 9.04 39.2834 9.872V14H38.1914V10.016C38.1914 9.4 38.0914 8.956 37.8914 8.684C37.6994 8.412 37.3954 8.276 36.9794 8.276C36.7314 8.276 36.4714 8.36 36.1994 8.528C35.9354 8.688 35.6474 8.936 35.3354 9.272V14H34.2434V10.016C34.2434 9.4 34.1434 8.956 33.9434 8.684C33.7514 8.412 33.4474 8.276 33.0314 8.276C32.7834 8.276 32.5234 8.36 32.2514 8.528C31.9794 8.688 31.6954 8.936 31.3994 9.272V14H30.2954ZM43.9368 14.156C43.4088 14.156 42.9128 14.024 42.4488 13.76C41.9848 13.488 41.6128 13.1 41.3328 12.596C41.0608 12.084 40.9248 11.468 40.9248 10.748C40.9248 10.02 41.0608 9.404 41.3328 8.9C41.6128 8.388 41.9848 7.996 42.4488 7.724C42.9128 7.452 43.4088 7.316 43.9368 7.316C44.3368 7.316 44.7168 7.392 45.0768 7.544C45.4448 7.696 45.7688 7.92 46.0488 8.216C46.3288 8.512 46.5488 8.872 46.7088 9.296C46.8688 9.72 46.9488 10.204 46.9488 10.748C46.9488 11.468 46.8088 12.084 46.5288 12.596C46.2488 13.1 45.8808 13.488 45.4248 13.76C44.9688 14.024 44.4728 14.156 43.9368 14.156ZM43.9368 13.244C44.3128 13.244 44.6408 13.14 44.9208 12.932C45.2088 12.724 45.4328 12.432 45.5928 12.056C45.7528 11.68 45.8328 11.244 45.8328 10.748C45.8328 10.244 45.7528 9.804 45.5928 9.428C45.4328 9.052 45.2088 8.76 44.9208 8.552C44.6408 8.344 44.3128 8.24 43.9368 8.24C43.5608 8.24 43.2288 8.344 42.9408 8.552C42.6608 8.76 42.4408 9.052 42.2808 9.428C42.1288 9.804 42.0528 10.244 42.0528 10.748C42.0528 11.244 42.1288 11.68 42.2808 12.056C42.4408 12.432 42.6608 12.724 42.9408 12.932C43.2288 13.14 43.5608 13.244 43.9368 13.244ZM48.6821 14V7.484H49.5821L49.6901 8.672H49.7141C49.9381 8.256 50.2101 7.928 50.5301 7.688C50.8581 7.44 51.2021 7.316 51.5621 7.316C51.7141 7.316 51.8421 7.328 51.9461 7.352C52.0581 7.368 52.1621 7.404 52.2581 7.46L52.0541 8.408C51.9421 8.376 51.8421 8.352 51.7541 8.336C51.6661 8.312 51.5541 8.3 51.4181 8.3C51.1541 8.3 50.8701 8.416 50.5661 8.648C50.2621 8.872 50.0021 9.26 49.7861 9.812V14H48.6821ZM55.8104 14.156C55.2264 14.156 54.6984 14.02 54.2264 13.748C53.7544 13.476 53.3784 13.088 53.0984 12.584C52.8264 12.072 52.6904 11.46 52.6904 10.748C52.6904 10.212 52.7704 9.736 52.9304 9.32C53.0904 8.896 53.3064 8.536 53.5784 8.24C53.8584 7.936 54.1744 7.708 54.5264 7.556C54.8784 7.396 55.2384 7.316 55.6064 7.316C56.1664 7.316 56.6384 7.44 57.0224 7.688C57.4064 7.936 57.6984 8.292 57.8984 8.756C58.1064 9.212 58.2104 9.752 58.2104 10.376C58.2104 10.496 58.2064 10.608 58.1984 10.712C58.1904 10.816 58.1784 10.912 58.1624 11H53.7704C53.7944 11.464 53.8984 11.868 54.0824 12.212C54.2744 12.548 54.5264 12.812 54.8384 13.004C55.1504 13.188 55.5144 13.28 55.9304 13.28C56.2504 13.28 56.5384 13.236 56.7944 13.148C57.0584 13.052 57.3144 12.924 57.5624 12.764L57.9464 13.496C57.6664 13.68 57.3504 13.836 56.9984 13.964C56.6464 14.092 56.2504 14.156 55.8104 14.156ZM53.7584 10.22H57.2504C57.2504 9.564 57.1064 9.064 56.8184 8.72C56.5384 8.368 56.1424 8.192 55.6304 8.192C55.3264 8.192 55.0384 8.272 54.7664 8.432C54.5024 8.592 54.2784 8.82 54.0944 9.116C53.9184 9.412 53.8064 9.78 53.7584 10.22Z" fill="#111111"/>
<circle cx="82.5" cy="9.5" r="8.5" fill="#FFD44A"/>
<path d="M67 9.5C66.7239 9.5 66.5 9.72386 66.5 10C66.5 10.2761 66.7239 10.5 67 10.5V9.5ZM83.3536 10.3536C83.5488 10.1583 83.5488 9.84171 83.3536 9.64645L80.1716 6.46447C79.9763 6.2692 79.6597 6.2692 79.4645 6.46447C79.2692 6.65973 79.2692 6.97631 79.4645 7.17157L82.2929 10L79.4645 12.8284C79.2692 13.0237 79.2692 13.3403 79.4645 13.5355C79.6597 13.7308 79.9763 13.7308 80.1716 13.5355L83.3536 10.3536ZM67 10.5L75 10.5V9.5L67 9.5V10.5ZM75 10.5L83 10.5V9.5L75 9.5V10.5Z" fill="white"/>
</svg>
