<svg width="90" height="162" viewBox="0 0 90 162" fill="none" xmlns="http://www.w3.org/2000/svg">
<g id="&#227;&#131;&#149;&#227;&#131;&#172;&#227;&#131;&#188;&#227;&#131;&#160; 76">
<g id="LINE">
<path id="Rectangle 1" d="M22.5 75L45 80.5L68 75L82.5 86.5L87.5 95V126.5L74.5 134.5V155.5L70.5 160H18.5L13 153L14.5 134.5L1.5 114.5L3 91L22.5 75Z" fill="#FFD44A"/>
<path id="Rectangle 2" d="M27 6.5L35 2.5L43.5 1L55.5 3L66 12L68.5 19.5L69.5 26.5L61.5 26L58.5 28H49.5H42.5L35.5 28.5L32 26L29 21.5L22.5 27L19 26L21 14.5L27 6.5Z" fill="#FFD44A"/>
<path id="Rectangle 3" d="M19 53L31 56L26 65.5L24 68.5L18 72.5L5 71.5L4.5 69.5L8 67L8.5 62.5L13 55.5L19 53Z" fill="#FFD44A"/>
<path id="&#227;&#131;&#153;&#227;&#130;&#175;&#227;&#130;&#191;&#227;&#131;&#188;" d="M19.6114 52.7822C15.1043 53.9694 12.342 55.8442 9.99903 59.4642C7.3403 63.5736 10.0796 67.3906 2.44336 69.7968C10.7749 75.2738 23.5893 72.7698 26.574 64.7443" stroke="black" stroke-width="2" stroke-linecap="round" stroke-linejoin="round"/>
<path id="&#227;&#131;&#153;&#227;&#130;&#175;&#227;&#130;&#191;&#227;&#131;&#188;_2" d="M31.656 13.6422C29.7847 15.986 29.0446 19.0366 29.6568 21.8698C30.2704 24.703 32.2274 27.2795 34.9385 28.82" stroke="black" stroke-width="2" stroke-linecap="round" stroke-linejoin="round"/>
<path id="&#227;&#131;&#153;&#227;&#130;&#175;&#227;&#130;&#191;&#227;&#131;&#188;_3" d="M38.7351 13.6422C36.8638 15.986 36.1237 19.0366 36.7359 21.8698C37.3482 24.703 39.3065 27.2795 42.0176 28.82" stroke="black" stroke-width="2" stroke-linecap="round" stroke-linejoin="round"/>
<path id="&#227;&#131;&#153;&#227;&#130;&#175;&#227;&#130;&#191;&#227;&#131;&#188;_4" d="M46.4988 13.6422C44.6274 15.986 43.8873 19.0366 44.4996 21.8698C45.1119 24.703 47.0701 27.2795 49.7813 28.82" stroke="black" stroke-width="2" stroke-linecap="round" stroke-linejoin="round"/>
<path id="&#227;&#131;&#153;&#227;&#130;&#175;&#227;&#130;&#191;&#227;&#131;&#188;_5" d="M53.0983 13.9446C51.7866 16.6418 51.7336 19.7804 52.9523 22.4103C54.1723 25.04 56.6468 27.1245 59.6298 28.0329" stroke="black" stroke-width="2" stroke-linecap="round" stroke-linejoin="round"/>
<path id="&#227;&#131;&#153;&#227;&#130;&#175;&#227;&#130;&#191;&#227;&#131;&#188;_6" d="M29.4471 18.837C28.3005 22.2969 25.2404 25.8063 21.7866 27.0799" stroke="black" stroke-width="2" stroke-linecap="round" stroke-linejoin="round"/>
<path id="&#227;&#131;&#153;&#227;&#130;&#175;&#227;&#130;&#191;&#227;&#131;&#188;_7" d="M57.0625 18.2206C58.0173 22.9655 62.4401 26.7939 67.2974 27.0799" stroke="black" stroke-width="2" stroke-linecap="round" stroke-linejoin="round"/>
<path id="&#227;&#131;&#153;&#227;&#130;&#175;&#227;&#130;&#191;&#227;&#131;&#188;_8" d="M14.5097 133.594C14.5097 133.594 13.7031 144.456 13.7095 152.719C13.7121 156.532 18.0606 159.298 18.0606 159.982" stroke="black" stroke-width="2" stroke-linecap="round" stroke-linejoin="round"/>
<path id="&#227;&#131;&#153;&#227;&#130;&#175;&#227;&#130;&#191;&#227;&#131;&#188;_9" d="M73.9606 133.594C73.9606 133.594 74.7672 144.456 74.7608 152.719C74.7582 156.532 70.4097 159.298 70.4097 159.982" stroke="black" stroke-width="2" stroke-linecap="round" stroke-linejoin="round"/>
<path id="&#227;&#131;&#153;&#227;&#130;&#175;&#227;&#130;&#191;&#227;&#131;&#188;_10" d="M67.5884 27.0494C67.7341 28.2773 67.8095 29.5318 67.8095 30.8067C67.8095 45.8994 57.4775 60.4226 44.4177 60.4226C31.358 60.4226 20.5146 45.8994 20.5146 30.8067C20.5146 29.5611 20.5862 28.3345 20.7268 27.1333" stroke="black" stroke-width="2" stroke-linecap="round" stroke-linejoin="round"/>
<path id="&#227;&#131;&#153;&#227;&#130;&#175;&#227;&#130;&#191;&#227;&#131;&#188;_11" d="M67.853 26.8867C69.3128 26.1749 71.1061 26.3185 72.4509 27.254C74.3746 28.5938 74.877 31.3177 74.7121 33.7657C74.482 37.1569 73.0043 39.4283 71.2225 40.8939" stroke="black" stroke-width="2" stroke-linecap="round" stroke-linejoin="round"/>
<path id="&#227;&#131;&#153;&#227;&#130;&#175;&#227;&#130;&#191;&#227;&#131;&#188;_12" d="M20.5226 26.8867C19.0628 26.1749 17.2695 26.3185 15.9248 27.254C14.001 28.5938 13.4987 31.3177 13.6635 33.7657C13.9192 37.5433 15.7241 39.9304 17.7705 41.3616" stroke="black" stroke-width="2" stroke-linecap="round" stroke-linejoin="round"/>
<path id="&#227;&#131;&#153;&#227;&#130;&#175;&#227;&#130;&#191;&#227;&#131;&#188;_13" d="M34.8209 36.787C35.7034 36.787 36.4187 36.0757 36.4187 35.1982C36.4187 34.3207 35.7034 33.6094 34.8209 33.6094C33.9385 33.6094 33.2231 34.3207 33.2231 35.1982C33.2231 36.0757 33.9385 36.787 34.8209 36.787Z" fill="black"/>
<path id="&#227;&#131;&#153;&#227;&#130;&#175;&#227;&#130;&#191;&#227;&#131;&#188;_14" d="M53.5548 36.787C54.4373 36.787 55.1526 36.0757 55.1526 35.1982C55.1526 34.3207 54.4373 33.6094 53.5548 33.6094C52.6724 33.6094 51.957 34.3207 51.957 35.1982C51.957 36.0757 52.6724 36.787 53.5548 36.787Z" fill="black"/>
<path id="&#227;&#131;&#153;&#227;&#130;&#175;&#227;&#130;&#191;&#227;&#131;&#188;_15" d="M44.8182 36.0244C45.0892 38.0162 44.4986 40.0995 43.2217 41.6603" stroke="black" stroke-width="2" stroke-linecap="round" stroke-linejoin="round"/>
<path id="&#227;&#131;&#153;&#227;&#130;&#175;&#227;&#130;&#191;&#227;&#131;&#188;_16" d="M35.6556 58.6927L35.198 66.6598C35.198 66.6598 5.27188 84.4268 3.297 91.8511C1.05241 100.287 1 112.816 1 120.093" stroke="black" stroke-width="2" stroke-linecap="round" stroke-linejoin="round"/>
<path id="&#227;&#131;&#153;&#227;&#130;&#175;&#227;&#130;&#191;&#227;&#131;&#188;_17" d="M53.9253 59.074L54.3829 67.041C54.3829 67.041 84.3091 84.808 86.2852 92.2324C88.5298 100.668 88.246 112.381 87.69 120.093" stroke="black" stroke-width="2" stroke-linecap="round" stroke-linejoin="round"/>
<path id="&#227;&#131;&#153;&#227;&#130;&#175;&#227;&#130;&#191;&#227;&#131;&#188;_18" d="M18.0835 159.987L70.1079 160.094" stroke="black" stroke-width="2" stroke-linecap="round" stroke-linejoin="round"/>
<path id="&#227;&#131;&#153;&#227;&#130;&#175;&#227;&#130;&#191;&#227;&#131;&#188;_19" d="M40.7441 50.1422C40.7441 50.1422 41.7399 48.4962 44.2261 48.4962C46.8554 48.4962 47.6326 50.1422 47.6326 50.1422" stroke="black" stroke-width="2" stroke-linecap="round" stroke-linejoin="round"/>
<path id="&#227;&#131;&#153;&#227;&#130;&#175;&#227;&#130;&#191;&#227;&#131;&#188;_20" d="M50.1713 75.0793C46.9143 70.7246 46.3749 66.7754 47.9344 62.3851C49.4938 57.9936 54.8829 54.5643 59.1982 52.3755C62.1535 45.0516 62.0154 44.7452 64.1271 37.898C64.655 36.1871 65.9703 33.8077 68.1139 35.0902C69.5814 35.9685 69.024 38.6644 68.5856 40.627C66.8012 48.5979 64.0619 70.0103 50.1713 75.0806V75.0793Z" fill="white" stroke="black" stroke-width="2" stroke-linecap="round" stroke-linejoin="round"/>
<path id="&#227;&#131;&#153;&#227;&#130;&#175;&#227;&#130;&#191;&#227;&#131;&#188;_21" d="M70.2203 38.1281C71.2544 41.26 71.3349 44.9181 70.444 48.242C69.553 51.5658 67.6957 54.5299 65.3105 56.4378" stroke="black" stroke-width="2" stroke-linecap="round" stroke-linejoin="round"/>
<path id="&#227;&#131;&#153;&#227;&#130;&#175;&#227;&#130;&#191;&#227;&#131;&#188;_22" d="M46.1016 74.0904L60.9496 67.0029L85.0649 112.209C85.0649 112.209 92.1578 127.053 83.0261 131.845C69.2057 139.098 64.3063 121.438 64.3063 121.438L46.1016 74.0891V74.0904Z" stroke="black" stroke-width="2" stroke-linecap="round" stroke-linejoin="round"/>
<path id="&#227;&#131;&#153;&#227;&#130;&#175;&#227;&#130;&#191;&#227;&#131;&#188;_23" d="M46.1016 74.0904L60.9496 67.0029L85.0649 112.209C85.0649 112.209 92.1578 127.053 83.0261 131.845C69.2057 139.098 64.3063 121.438 64.3063 121.438L46.1016 74.0891V74.0904Z" fill="#FFD44A" stroke="black" stroke-width="2" stroke-linecap="round" stroke-linejoin="round"/>
<path id="&#227;&#131;&#153;&#227;&#130;&#175;&#227;&#130;&#191;&#227;&#131;&#188;_24" d="M38.5532 75.1873C41.8102 70.8327 42.3496 66.8835 40.7901 62.4932C39.2307 58.1016 33.8416 54.6723 29.5263 52.4835C26.571 45.1596 26.709 44.8533 24.5974 38.006C24.0695 36.2952 22.7542 33.9157 20.6106 35.1982C19.1431 36.0765 19.7004 38.7725 20.1389 40.735C21.9233 48.7059 24.6626 70.1183 38.5532 75.1886V75.1873Z" fill="white" stroke="black" stroke-width="2" stroke-linecap="round" stroke-linejoin="round"/>
<path id="&#227;&#131;&#153;&#227;&#130;&#175;&#227;&#130;&#191;&#227;&#131;&#188;_25" d="M18.5043 38.2361C17.4702 41.368 17.3896 45.0261 18.2806 48.35C19.1715 51.6738 21.0288 54.638 23.414 56.5458" stroke="black" stroke-width="2" stroke-linecap="round" stroke-linejoin="round"/>
<path id="&#227;&#131;&#153;&#227;&#130;&#175;&#227;&#130;&#191;&#227;&#131;&#188;_26" d="M19.0259 25.6589C19.0259 12.5821 27.2462 2.39703 42.0393 1.12469C59.5908 -0.385342 69.3489 12.0635 69.3489 25.2572" stroke="black" stroke-width="2" stroke-linecap="round" stroke-linejoin="round"/>
<path id="&#227;&#131;&#153;&#227;&#130;&#175;&#227;&#130;&#191;&#227;&#131;&#188;_27" d="M41.666 78.7959C41.666 78.7959 44.179 79.523 47.4181 78.7921" stroke="black" stroke-width="2" stroke-linecap="round" stroke-linejoin="round"/>
<path id="&#227;&#131;&#153;&#227;&#130;&#175;&#227;&#130;&#191;&#227;&#131;&#188;_28" d="M42.589 74.1984L27.741 67.111L3.62574 112.318C3.62574 112.318 -3.46721 127.163 5.66454 131.955C19.4849 139.207 24.3844 121.547 24.3844 121.547L42.589 74.1984Z" fill="#FFD44A" stroke="black" stroke-width="2" stroke-linecap="round" stroke-linejoin="round"/>
</g>
</g>
</svg>
