<svg width="105" height="169" viewBox="0 0 105 169" fill="none" xmlns="http://www.w3.org/2000/svg">
<g id="_&#227;&#131;&#172;&#227;&#130;&#164;&#227;&#131;&#164;&#227;&#131;&#188;_10" clip-path="url(#clip0_194_221)">
<g id="color">
<path id="&#227;&#131;&#153;&#227;&#130;&#175;&#227;&#130;&#191;&#227;&#131;&#188;" d="M38.2932 9.81334C38.2932 9.81334 31.7772 9.2607 29.075 25.7019L29.1648 31.3131C29.1648 31.3131 28.9175 30.0422 26.3077 32.215C26.3077 32.215 22.5954 41.348 29.252 46.4652L33.4967 48.3903L39.6053 57.9287L47.9775 64.9567V71.0019L39.0105 77.2804L36.1273 79.1417C36.1273 79.1417 18.4574 90.8619 16.0077 94.6249L11.4767 110.444L1.67529 150.279L28.3981 163.57L28.5921 167.776L82.7042 168.069C82.7042 168.069 82.8968 158.945 82.8968 155.903L88.1802 153.263L92.1177 150.241L103.261 135.351C103.261 135.351 106.377 130.179 102.786 130.804L102.221 128.168L100.177 127.035L96.3558 129.35L97.8098 101.563C97.8098 101.563 97.9894 90.0225 86.7184 82.713L85.1252 82.0483L85.1161 72.5608C85.1161 72.5608 90.173 65.2304 82.5115 61.8793L71.2379 59.2921L77.7553 48.3916L85.1174 44.7278L86.9723 35.338L82.9007 30.3629C82.9007 30.3629 81.8529 1.62402 57.5212 1.62402L46.9245 2.65893L40.8328 7.12441L38.2932 9.81334Z" fill="white"/>
<path id="&#227;&#131;&#153;&#227;&#130;&#175;&#227;&#130;&#191;&#227;&#131;&#188;_2" d="M59.9773 80.2639L56.3613 82.7417L47.2589 72.9075C47.2589 72.9075 17.7935 86.7067 14.5928 97.3412L1.91602 148.053L28.7156 164.013V167.796L83.1414 167.677L83.6139 155.382L72.3976 155.146L70.0364 141.55L75.3498 137.295L83.2599 137.059L88.9272 135.167C88.9272 135.167 92.7294 136.279 90.2263 139.069C87.7232 141.859 86.5908 142.12 86.5908 142.12L89.7993 143.037L96.6187 135.291L95.7596 130.529L95.5474 128.478C95.5474 128.478 99.4107 100.192 97.7199 97.2134L86.2836 81.6951L84.7398 86.1045L71.1936 91.6948L63.8679 83.8144L63.1247 79.8638L59.9799 80.2652L59.9773 80.2639Z" fill="#FFD44A"/>
<path id="&#227;&#131;&#153;&#227;&#130;&#175;&#227;&#130;&#191;&#227;&#131;&#188;_3" d="M46.8879 15.8351C48.8469 14.1667 49.2595 11.6746 49.4899 12.5987C51.6389 21.2156 59.5686 20.3175 59.5686 20.3175C59.5686 20.3175 64.9847 21.2547 70.0989 18.0079C70.0989 18.0079 71.7728 23.4535 75.1519 24.9694L77.6068 29.4284L79.1102 31.6572L83.075 30.5649C83.075 30.5649 85.2592 12.2664 71.3107 5.50559C57.3623 -1.25519 49.7138 -1.23564 37.9091 9.61655C29.8025 17.0681 30.4455 15.3906 28.5776 30.5662L32.437 31.8827L40.3732 25.7358L43.4008 22.5385C43.4008 22.5385 46.6354 16.0541 46.8892 15.8377L46.8879 15.8351Z" fill="#FFD44A"/>
</g>
<g id="LINE">
<path id="&#227;&#131;&#153;&#227;&#130;&#175;&#227;&#130;&#191;&#227;&#131;&#188;_4" d="M82.9033 155.158C82.9072 161.555 82.9111 166.872 82.9124 167.942" stroke="black" stroke-width="2" stroke-linecap="round" stroke-linejoin="round"/>
<path id="&#227;&#131;&#153;&#227;&#130;&#175;&#227;&#130;&#191;&#227;&#131;&#188;_5" d="M46.5143 41.5787C47.4129 41.5787 48.1413 40.8493 48.1413 39.9495C48.1413 39.0496 47.4129 38.3202 46.5143 38.3202C45.6157 38.3202 44.8872 39.0496 44.8872 39.9495C44.8872 40.8493 45.6157 41.5787 46.5143 41.5787Z" fill="black"/>
<path id="&#227;&#131;&#153;&#227;&#130;&#175;&#227;&#130;&#191;&#227;&#131;&#188;_6" d="M65.59 41.5787C66.4886 41.5787 67.217 40.8493 67.217 39.9495C67.217 39.0496 66.4886 38.3202 65.59 38.3202C64.6913 38.3202 63.9629 39.0496 63.9629 39.9495C63.9629 40.8493 64.6913 41.5787 65.59 41.5787Z" fill="black"/>
<path id="&#227;&#131;&#153;&#227;&#130;&#175;&#227;&#130;&#191;&#227;&#131;&#188;_7" d="M56.6931 40.7967C56.9691 42.8391 56.3677 44.9754 55.0674 46.576" stroke="black" stroke-width="2" stroke-linecap="round" stroke-linejoin="round"/>
<path id="&#227;&#131;&#153;&#227;&#130;&#175;&#227;&#130;&#191;&#227;&#131;&#188;_8" d="M97.7995 100.959C97.9076 108.399 97.0589 119.921 96.0332 127.891" stroke="black" stroke-width="2" stroke-linecap="round" stroke-linejoin="round"/>
<path id="&#227;&#131;&#153;&#227;&#130;&#175;&#227;&#130;&#191;&#227;&#131;&#188;_9" d="M27.0889 167.913L82.8957 168.022" stroke="black" stroke-width="2" stroke-linecap="round" stroke-linejoin="round"/>
<path id="&#227;&#131;&#153;&#227;&#130;&#175;&#227;&#130;&#191;&#227;&#131;&#188;_10" d="M52.5449 55.2737C52.5449 55.2737 53.5589 53.5858 56.0906 53.5858C58.7681 53.5858 59.5595 55.2737 59.5595 55.2737" stroke="black" stroke-width="2" stroke-linecap="round" stroke-linejoin="round"/>
<path id="&#227;&#131;&#153;&#227;&#130;&#175;&#227;&#130;&#191;&#227;&#131;&#188;_11" d="M13.648 100.651L1.6416 149.285" stroke="black" stroke-width="2" stroke-linecap="round" stroke-linejoin="round"/>
<path id="&#227;&#131;&#153;&#227;&#130;&#175;&#227;&#130;&#191;&#227;&#131;&#188;_12" d="M69.9272 142.017C72.3952 139.312 75.2939 136.404 78.9047 136.403C80.7661 136.403 82.6587 137.199 84.4445 136.662C85.3362 136.394 86.1041 135.815 86.9463 135.415C87.7885 135.015 88.8207 134.809 89.6212 135.293C90.5323 135.844 90.8044 137.146 90.4659 138.176C90.1275 139.204 89.3179 139.995 88.4601 140.631C86.5259 142.066 84.1933 142.929 81.8126 143.092" stroke="black" stroke-width="2" stroke-linecap="round" stroke-linejoin="round"/>
<path id="&#227;&#131;&#153;&#227;&#130;&#175;&#227;&#130;&#191;&#227;&#131;&#188;_13" d="M83.7132 142.808C87.3148 141.581 89.3063 143.104 89.3063 143.104L93.5836 138.989C93.5836 138.989 99.782 130.012 102.772 130.617C105.09 131.086 103.794 133.958 102.102 136.574C99.6857 140.311 96.6034 144.873 94.4622 147.375C93.3362 148.69 90.0287 152.032 88.1348 153.105C83.6702 155.633 78.0536 156.056 72.3472 155.235" stroke="black" stroke-width="2" stroke-linecap="round" stroke-linejoin="round"/>
<path id="&#227;&#131;&#153;&#227;&#130;&#175;&#227;&#130;&#191;&#227;&#131;&#188;_14" d="M96.3467 131.332C96.6148 130.5 96.9038 129.664 97.3633 128.931C97.824 128.197 98.4775 127.565 99.2832 127.3C100.089 127.035 101.055 127.194 101.652 127.828C102.25 128.461 102.123 129.419 101.771 130.217" stroke="black" stroke-width="2" stroke-linecap="round" stroke-linejoin="round"/>
<path id="&#227;&#131;&#153;&#227;&#130;&#175;&#227;&#130;&#191;&#227;&#131;&#188;_15" d="M73.9873 59.7469C76.6765 59.627 80.0126 60.4977 82.1721 64.2906C86.0978 71.187 84.8574 84.9966 84.8574 84.9966" stroke="black" stroke-width="2" stroke-linecap="round" stroke-linejoin="round"/>
<path id="&#227;&#131;&#153;&#227;&#130;&#175;&#227;&#130;&#191;&#227;&#131;&#188;_16" d="M70.5767 60.8535C65.5289 62.355 53.5589 69.5746 56.3939 76.4436C57.9351 80.1792 61.0538 80.5741 62.0704 80.2078" stroke="black" stroke-width="2" stroke-linecap="round" stroke-linejoin="round"/>
<path id="&#227;&#131;&#153;&#227;&#130;&#175;&#227;&#130;&#191;&#227;&#131;&#188;_17" d="M59.7549 74.233C60.6947 74.7453 61.723 75.0946 62.7812 75.2575" stroke="black" stroke-width="2" stroke-linecap="round" stroke-linejoin="round"/>
<path id="&#227;&#131;&#153;&#227;&#130;&#175;&#227;&#130;&#191;&#227;&#131;&#188;_18" d="M63.0598 75.5117C62.323 78.5004 62.8854 82.1135 64.5671 85.1973C66.2488 88.2812 68.7701 90.2233 71.0753 91.5045" stroke="black" stroke-width="2" stroke-linecap="round" stroke-linejoin="round"/>
<path id="&#227;&#131;&#153;&#227;&#130;&#175;&#227;&#130;&#191;&#227;&#131;&#188;_19" d="M59.5894 68.6962C62.2109 69.2188 64.5721 70.431 66.449 72.218" stroke="black" stroke-width="2" stroke-linecap="round" stroke-linejoin="round"/>
<path id="&#227;&#131;&#153;&#227;&#130;&#175;&#227;&#130;&#191;&#227;&#131;&#188;_20" d="M67.7393 62.1491C70.914 63.274 73.8804 65.0779 76.3614 67.3914" stroke="black" stroke-width="2" stroke-linecap="round" stroke-linejoin="round"/>
<path id="&#227;&#131;&#153;&#227;&#130;&#175;&#227;&#130;&#191;&#227;&#131;&#188;_21" d="M63.4009 65.2812C66.163 66.0177 68.6973 67.4123 70.7669 69.3349" stroke="black" stroke-width="2" stroke-linecap="round" stroke-linejoin="round"/>
<path id="&#227;&#131;&#153;&#227;&#130;&#175;&#227;&#130;&#191;&#227;&#131;&#188;_22" d="M80.8467 62.389C83.2873 61.4401 85.6875 63.2584 86.3071 65.8639C86.928 68.4681 86.1014 71.5519 84.7464 74.1692" stroke="black" stroke-width="2" stroke-linecap="round" stroke-linejoin="round"/>
<path id="&#227;&#131;&#153;&#227;&#130;&#175;&#227;&#130;&#191;&#227;&#131;&#188;_23" d="M96.3885 134.891C94.5402 124.622 86.8162 85.4854 86.8162 85.4854L69.7568 92.4808C69.7568 92.4808 73.5225 125.868 75.4763 136.858" stroke="black" stroke-width="2" stroke-miterlimit="10"/>
<path id="&#227;&#131;&#153;&#227;&#130;&#175;&#227;&#130;&#191;&#227;&#131;&#188;_24" d="M85.1216 81.2819C91.829 86.6519 96.7075 93.1976 97.5289 97.7908" stroke="black" stroke-width="2" stroke-linecap="round" stroke-linejoin="round"/>
<path id="&#227;&#131;&#153;&#227;&#130;&#175;&#227;&#130;&#191;&#227;&#131;&#188;_25" d="M38.4184 9.61395C33.0373 10.7401 27.7227 18.6661 28.6911 30.3629" stroke="black" stroke-width="2" stroke-linecap="round" stroke-linejoin="round"/>
<path id="&#227;&#131;&#153;&#227;&#130;&#175;&#227;&#130;&#191;&#227;&#131;&#188;_26" d="M38.4185 9.61393C44.1249 0.589126 54.7346 0.406648 61.0932 1.36205C70.8724 2.83229 78.6355 9.4875 80.7103 15.2473" stroke="black" stroke-width="2" stroke-linecap="round" stroke-linejoin="round"/>
<path id="&#227;&#131;&#153;&#227;&#130;&#175;&#227;&#130;&#191;&#227;&#131;&#188;_27" d="M26.3804 117.041C26.3804 117.041 27.0429 164.014 27.065 167.823" stroke="black" stroke-width="2" stroke-linecap="round" stroke-linejoin="round"/>
<path id="&#227;&#131;&#153;&#227;&#130;&#175;&#227;&#130;&#191;&#227;&#131;&#188;_28" d="M22.2231 106.705C23.3946 109.168 24.5661 111.632 25.7376 114.095" stroke="black" stroke-width="2" stroke-linecap="round" stroke-linejoin="round"/>
<path id="&#227;&#131;&#153;&#227;&#130;&#175;&#227;&#130;&#191;&#227;&#131;&#188;_29" d="M69.4391 140.259L71.2809 156.951L19.4676 164.804C19.4676 164.804 2.73097 166.589 1.17941 156.174C-1.16877 140.415 17.5476 141.698 17.5476 141.698L69.4378 140.259H69.4391Z" fill="#FFD44A" stroke="black" stroke-width="2" stroke-linecap="round" stroke-linejoin="round"/>
<path id="&#227;&#131;&#153;&#227;&#130;&#175;&#227;&#130;&#191;&#227;&#131;&#188;_30" d="M47.9789 64.0417L47.5129 72.2115C47.5129 72.2115 15.5366 90.1855 15.0264 98.0437" stroke="black" stroke-width="2" stroke-linecap="round" stroke-linejoin="round"/>
<path id="&#227;&#131;&#153;&#227;&#130;&#175;&#227;&#130;&#191;&#227;&#131;&#188;_31" d="M79.462 31.579C79.6117 32.8433 79.6898 34.1337 79.6898 35.4462C79.6898 50.9229 69.1686 65.8156 55.8696 65.8156C42.5707 65.8156 31.5288 50.9229 31.5288 35.4462C31.5288 34.135 31.6056 32.8459 31.7553 31.5829" stroke="black" stroke-width="2" stroke-linecap="round" stroke-linejoin="round"/>
<path id="&#227;&#131;&#153;&#227;&#130;&#175;&#227;&#130;&#191;&#227;&#131;&#188;_32" d="M79.7327 31.4265C81.2192 30.6966 83.0454 30.8439 84.4148 31.8032C86.3737 33.177 86.8853 35.9702 86.7174 38.4806C86.2501 45.4369 80.6934 47.7947 77.7646 48.1401" stroke="black" stroke-width="2" stroke-linecap="round" stroke-linejoin="round"/>
<path id="&#227;&#131;&#153;&#227;&#130;&#175;&#227;&#130;&#191;&#227;&#131;&#188;_33" d="M31.535 31.4265C30.0485 30.6966 28.2223 30.8439 26.8529 31.8032C24.8939 33.177 24.3824 35.9702 24.5503 38.4806C25.0176 45.4369 30.5743 47.7947 33.503 48.1401" stroke="black" stroke-width="2" stroke-linecap="round" stroke-linejoin="round"/>
<path id="&#227;&#131;&#153;&#227;&#130;&#175;&#227;&#130;&#191;&#227;&#131;&#188;_34" d="M81.3936 18.0066C82.6588 21.3564 83.0649 24.0596 82.8644 28.6854" stroke="black" stroke-width="2" stroke-linecap="round" stroke-linejoin="round"/>
<path id="&#227;&#131;&#153;&#227;&#130;&#175;&#227;&#130;&#191;&#227;&#131;&#188;_35" d="M47.0067 15.2486C45.0034 20.9445 40.6312 26.0447 34.8818 29.3945" stroke="black" stroke-width="2" stroke-linecap="round" stroke-linejoin="round"/>
<path id="&#227;&#131;&#153;&#227;&#130;&#175;&#227;&#130;&#191;&#227;&#131;&#188;_36" d="M49.5605 13.0445C50.7008 17.3588 55.0965 20.5678 59.5481 20.3358" stroke="black" stroke-width="2" stroke-linecap="round" stroke-linejoin="round"/>
<path id="&#227;&#131;&#153;&#227;&#130;&#175;&#227;&#130;&#191;&#227;&#131;&#188;_37" d="M56.0361 11.7398C57.5734 16.0502 62.5652 18.8043 67.0246 17.8007" stroke="black" stroke-width="2" stroke-linecap="round" stroke-linejoin="round"/>
<path id="&#227;&#131;&#153;&#227;&#130;&#175;&#227;&#130;&#191;&#227;&#131;&#188;_38" d="M70.1304 18.4966C70.3048 20.1259 70.5651 21.9233 71.8186 22.9765C72.3731 23.4418 73.0643 23.7051 73.7008 24.0479C75.7821 25.1714 77.3155 27.2608 77.7658 29.5847" stroke="black" stroke-width="2" stroke-linecap="round" stroke-linejoin="round"/>
<path id="&#227;&#131;&#153;&#227;&#130;&#175;&#227;&#130;&#191;&#227;&#131;&#188;_39" d="M47.6182 72.9075L56.5605 82.7964L59.0427 80.2027" stroke="black" stroke-width="2" stroke-linecap="round" stroke-linejoin="round"/>
<path id="&#227;&#131;&#153;&#227;&#130;&#175;&#227;&#130;&#191;&#227;&#131;&#188;_40" d="M45.395 74.3542L48.9056 87.5226L56.3627 82.7964" stroke="black" stroke-width="2" stroke-linecap="round" stroke-linejoin="round"/>
<path id="&#227;&#131;&#153;&#227;&#130;&#175;&#227;&#130;&#191;&#227;&#131;&#188;_41" d="M63.9213 87.5226L56.7622 82.7417" stroke="black" stroke-width="2" stroke-linecap="round" stroke-linejoin="round"/>
</g>
</g>
<defs>
<clipPath id="clip0_194_221">
<rect width="105" height="169" fill="white"/>
</clipPath>
</defs>
</svg>
